<svg width="68" height="68" viewBox="0 0 68 68" fill="none" xmlns="http://www.w3.org/2000/svg">
<path d="M29.9918 42.7041C29.8169 42.7041 29.6406 42.652 29.4871 42.5432C29.094 42.2639 29.0015 41.719 29.2805 41.3258L29.8868 40.4716C30.1668 40.0784 30.7107 39.986 31.1042 40.2649C31.4974 40.5442 31.5898 41.0891 31.3108 41.4823L30.7045 42.3365C30.534 42.5763 30.265 42.7041 29.9918 42.7041Z" fill="#EFF2F5"/>
<path d="M22.7148 52.9565C22.5398 52.9565 22.3635 52.9043 22.2101 52.7955C21.8169 52.5162 21.7245 51.9713 22.0034 51.5781L23.2164 49.8693C23.496 49.4762 24.0413 49.3844 24.4338 49.6627C24.827 49.942 24.9194 50.4869 24.6404 50.8801L23.4275 52.5888C23.257 52.8286 22.9879 52.9565 22.7148 52.9565ZM26.3533 47.8301C26.1784 47.8301 26.0021 47.7779 25.8486 47.6692C25.4554 47.3899 25.363 46.845 25.642 46.4518L26.8549 44.743C27.1349 44.3498 27.6791 44.2581 28.0723 44.5364C28.4655 44.8156 28.5579 45.3606 28.279 45.7537L27.066 47.4625C26.8955 47.7022 26.6265 47.8301 26.3533 47.8301Z" fill="#EFF2F5"/>
<path d="M19.6826 57.2279C19.5076 57.2279 19.3313 57.1757 19.1779 57.0669C18.7847 56.7876 18.6923 56.2427 18.9712 55.8495L19.5775 54.9953C19.8572 54.6021 20.4014 54.5097 20.7949 54.7887C21.1881 55.0679 21.2805 55.6129 21.0016 56.0061L20.3953 56.8603C20.2248 57.1 19.9557 57.2279 19.6826 57.2279Z" fill="#EFF2F5"/>
<path d="M48.3175 57.2279C48.0443 57.2279 47.7752 57.1 47.6047 56.8603L46.9984 56.0061C46.7195 55.6129 46.8119 55.0679 47.2051 54.7887C47.5983 54.5097 48.1425 54.6021 48.4225 54.9953L49.0288 55.8495C49.3077 56.2427 49.2153 56.7876 48.8221 57.0669C48.6687 57.1757 48.4924 57.2279 48.3175 57.2279Z" fill="#EFF2F5"/>
<path d="M45.2852 52.9565C45.0121 52.9565 44.743 52.8286 44.5725 52.5888L43.3596 50.8801C43.0806 50.4869 43.173 49.942 43.5662 49.6627C43.9594 49.3844 44.5043 49.4762 44.7836 49.8693L45.9965 51.5781C46.2755 51.9713 46.1831 52.5162 45.7899 52.7955C45.6364 52.9043 45.4601 52.9565 45.2852 52.9565ZM41.6467 47.8301C41.3735 47.8301 41.1041 47.7022 40.934 47.4625L39.7214 45.7537C39.4424 45.3606 39.5348 44.8153 39.928 44.5364C40.3215 44.2581 40.8658 44.3498 41.1454 44.743L42.358 46.4518C42.637 46.845 42.5446 47.3902 42.1514 47.6692C41.9979 47.7779 41.8216 47.8301 41.6467 47.8301Z" fill="#EFF2F5"/>
<path d="M38.0082 42.7041C37.735 42.7041 37.466 42.5763 37.2955 42.3365L36.6892 41.4823C36.4102 41.0891 36.5026 40.5442 36.8958 40.2649C37.2887 39.986 37.8336 40.0784 38.1132 40.4716L38.7195 41.3258C38.9985 41.719 38.9061 42.2639 38.5129 42.5432C38.3594 42.652 38.1831 42.7041 38.0082 42.7041Z" fill="#EFF2F5"/>
<path d="M34 31.1785C33.5178 31.1785 33.127 30.7877 33.127 30.3055V29.258C33.127 28.7758 33.5178 28.385 34 28.385C34.4822 28.385 34.873 28.7758 34.873 29.258V30.3055C34.873 30.7877 34.4822 31.1785 34 31.1785Z" fill="#EFF2F5"/>
<path d="M34 26.1869C33.5178 26.1869 33.127 25.7961 33.127 25.3139V23.3419C33.127 22.8597 33.5178 22.4689 34 22.4689C34.4822 22.4689 34.873 22.8597 34.873 23.3419V25.3139C34.873 25.7961 34.4822 26.1869 34 26.1869ZM34 20.2708C33.5178 20.2708 33.127 19.88 33.127 19.3978V17.4258C33.127 16.9436 33.5178 16.5528 34 16.5528C34.4822 16.5528 34.873 16.9436 34.873 17.4258V19.3978C34.873 19.88 34.4822 20.2708 34 20.2708Z" fill="#EFF2F5"/>
<path d="M34 14.3547C33.5178 14.3547 33.127 13.9639 33.127 13.4817V12.4341C33.127 11.9519 33.5178 11.5612 34 11.5612C34.4822 11.5612 34.873 11.9519 34.873 12.4341V13.4817C34.873 13.9639 34.4822 14.3547 34 14.3547Z" fill="#EFF2F5"/>
<path d="M56.0791 30.3254C55.7053 30.3254 55.3592 30.0832 55.2446 29.7071C55.1038 29.2457 55.3633 28.7578 55.8243 28.6173L56.8262 28.3114C57.2872 28.1716 57.7756 28.43 57.9161 28.8911C58.0569 29.3525 57.7974 29.8404 57.3363 29.9809L56.3345 30.2868C56.2492 30.3127 56.1636 30.3254 56.0791 30.3254Z" fill="#EFF2F5"/>
<path d="M44.4873 33.8632C44.1132 33.8632 43.7674 33.6211 43.6525 33.2446C43.512 32.7836 43.7718 32.2956 44.2329 32.1548L46.165 31.5652C46.626 31.424 47.114 31.6842 47.2549 32.1456C47.3954 32.6066 47.1355 33.0946 46.6745 33.2354L44.7423 33.825C44.6574 33.8506 44.5718 33.8632 44.4873 33.8632ZM50.2833 32.0941C49.9096 32.0941 49.5635 31.852 49.4489 31.4755C49.308 31.0145 49.5676 30.5265 50.0289 30.386L51.9607 29.7964C52.4214 29.6556 52.9097 29.9147 53.0502 30.3765C53.1911 30.8375 52.9316 31.3255 52.4702 31.466L50.5384 32.0556C50.4535 32.0815 50.3679 32.0941 50.2833 32.0941Z" fill="#EFF2F5"/>
<path d="M39.6215 35.3483C39.2477 35.3483 38.9016 35.1062 38.787 34.7297C38.6462 34.2687 38.9057 33.7807 39.3671 33.6399L40.3693 33.334C40.829 33.1928 41.3183 33.453 41.4588 33.9144C41.5996 34.3754 41.3401 34.8634 40.8788 35.0042L39.8765 35.3098C39.7916 35.3357 39.706 35.3483 39.6215 35.3483Z" fill="#EFF2F5"/>
<path d="M28.3785 35.3483C28.294 35.3483 28.2084 35.336 28.1234 35.3098L27.1212 35.0042C26.6599 34.8634 26.4003 34.3754 26.5412 33.9144C26.6817 33.453 27.17 33.1928 27.6307 33.334L28.6329 33.6399C29.0943 33.7807 29.3538 34.2687 29.213 34.7297C29.0984 35.1059 28.7523 35.3483 28.3785 35.3483Z" fill="#EFF2F5"/>
<path d="M23.5124 33.8633C23.4278 33.8633 23.3422 33.851 23.2573 33.8247L21.3255 33.2351C20.8642 33.0946 20.6047 32.6067 20.7455 32.1456C20.8863 31.6846 21.3746 31.4241 21.835 31.5652L23.7668 32.1552C24.2282 32.2957 24.4877 32.7836 24.3468 33.2447C24.2323 33.6208 23.8861 33.8633 23.5124 33.8633ZM17.7167 32.0941C17.6321 32.0941 17.5465 32.0819 17.4616 32.0559L15.5295 31.4663C15.0684 31.3255 14.8086 30.8375 14.9491 30.3765C15.0899 29.9151 15.5793 29.6556 16.0389 29.7961L17.9711 30.3857C18.4321 30.5265 18.692 31.0145 18.5515 31.4755C18.4365 31.8517 18.0904 32.0941 17.7167 32.0941Z" fill="#EFF2F5"/>
<path d="M11.9209 30.3254C11.8364 30.3254 11.7508 30.3131 11.6655 30.2868L10.6636 29.9809C10.2026 29.8404 9.94311 29.3525 10.0839 28.8911C10.2248 28.43 10.7114 28.1716 11.1738 28.3114L12.1757 28.6173C12.6367 28.7578 12.8962 29.2457 12.7554 29.7071C12.6408 30.0832 12.2947 30.3254 11.9209 30.3254Z" fill="#EFF2F5"/>
<path d="M57.7162 26.2759C57.5382 26.2759 57.3585 26.2217 57.2037 26.1091L36.9299 11.3733C36.5398 11.0899 36.4535 10.544 36.7369 10.1539C37.021 9.76375 37.5676 9.67816 37.9563 9.96085L58.2301 24.6967C58.6202 24.9801 58.7065 25.526 58.4231 25.9161C58.2523 26.1511 57.986 26.2759 57.7162 26.2759Z" fill="#EFF2F5"/>
<path d="M52.1094 56.6489C52.0201 56.6489 51.929 56.6349 51.8397 56.6059C51.381 56.4569 51.13 55.9645 51.2787 55.5061L59.0096 31.6914C59.1583 31.2324 59.6517 30.9821 60.1094 31.1304C60.568 31.2794 60.819 31.7718 60.6703 32.2302L52.9394 56.0449C52.8197 56.4142 52.4773 56.6489 52.1094 56.6489Z" fill="#EFF2F5"/>
<path d="M46.522 60.7062H21.478C20.9958 60.7062 20.605 60.3154 20.605 59.8332C20.605 59.351 20.9958 58.9602 21.478 58.9602H46.522C47.0042 58.9602 47.395 59.351 47.395 59.8332C47.395 60.3154 47.0042 60.7062 46.522 60.7062Z" fill="#EFF2F5"/>
<path d="M15.8906 56.6489C15.5226 56.6489 15.1803 56.4143 15.0606 56.045L7.32964 32.2302C7.18097 31.7719 7.43195 31.2795 7.8906 31.1305C8.34789 30.9818 8.84166 31.2321 8.99034 31.6914L16.7213 55.5062C16.8699 55.9645 16.619 56.4569 16.1603 56.6059C16.071 56.6349 15.9799 56.6489 15.8906 56.6489Z" fill="#EFF2F5"/>
<path d="M10.2838 26.2759C10.014 26.2759 9.74772 26.1511 9.57687 25.9161C9.2935 25.526 9.37977 24.9801 9.76988 24.6967L30.0437 9.96084C30.4327 9.67713 30.979 9.7634 31.2631 10.1539C31.5465 10.544 31.4602 11.0899 31.0701 11.3733L10.7963 26.1091C10.6415 26.2217 10.4618 26.2759 10.2838 26.2759Z" fill="#EFF2F5"/>
<path d="M34 42.9316C30.2793 42.9316 27.2522 39.9045 27.2522 36.1838C27.2522 32.4631 30.2793 29.436 34 29.436C37.7207 29.436 40.7478 32.4631 40.7478 36.1838C40.7478 39.9045 37.7207 42.9316 34 42.9316ZM34 31.1819C31.242 31.1819 28.9981 33.4257 28.9981 36.1838C28.9981 38.9418 31.242 41.1856 34 41.1856C36.7581 41.1856 39.0019 38.9418 39.0019 36.1838C39.0019 33.4257 36.7581 31.1819 34 31.1819Z" fill="#EFF2F5"/>
<path d="M61.1621 33.0397C58.329 33.0397 56.0241 30.7348 56.0241 27.9018C56.0241 25.0687 58.329 22.7639 61.1621 22.7639C63.9951 22.7639 66.3 25.0687 66.3 27.9018C66.3 30.7348 63.9951 33.0397 61.1621 33.0397ZM61.1621 24.5098C59.2917 24.5098 57.7701 26.0314 57.7701 27.9018C57.7701 29.7722 59.2917 31.2938 61.1621 31.2938C63.0325 31.2938 64.554 29.7722 64.554 27.9018C64.554 26.0314 63.0325 24.5098 61.1621 24.5098Z" fill="#EFF2F5"/>
<path d="M6.83794 33.0397C4.00487 33.0397 1.70001 30.7348 1.70001 27.9018C1.70001 25.0687 4.00487 22.7639 6.83794 22.7639C9.67101 22.7639 11.9759 25.0687 11.9759 27.9018C11.9759 30.7348 9.67101 33.0397 6.83794 33.0397ZM6.83794 24.5098C4.96752 24.5098 3.44596 26.0314 3.44596 27.9018C3.44596 29.7722 4.96752 31.2938 6.83794 31.2938C8.70835 31.2938 10.2299 29.7722 10.2299 27.9018C10.2299 26.0314 8.70835 24.5098 6.83794 24.5098Z" fill="#EFF2F5"/>
<path d="M34 13.3054C31.1669 13.3054 28.8621 11.0006 28.8621 8.1675C28.8621 5.33409 31.1669 3.02924 34 3.02924C36.8331 3.02924 39.1379 5.33409 39.1379 8.1675C39.1379 11.0006 36.8331 13.3054 34 13.3054ZM34 4.77518C32.1296 4.77518 30.608 6.29709 30.608 8.1675C30.608 10.0379 32.1296 11.5595 34 11.5595C35.8704 11.5595 37.392 10.0379 37.392 8.1675C37.392 6.29709 35.8704 4.77518 34 4.77518Z" fill="#EFF2F5"/>
<path d="M17.213 64.9708C14.3799 64.9708 12.0751 62.6659 12.0751 59.8325C12.0751 56.9994 14.3799 54.6946 17.213 54.6946C20.0461 54.6946 22.3509 56.9994 22.3509 59.8325C22.3509 62.6659 20.0461 64.9708 17.213 64.9708ZM17.213 56.4405C15.3426 56.4405 13.821 57.9621 13.821 59.8325C13.821 61.7029 15.3426 63.2248 17.213 63.2248C19.0834 63.2248 20.605 61.7029 20.605 59.8325C20.605 57.9621 19.0834 56.4405 17.213 56.4405Z" fill="#EFF2F5"/>
<path d="M50.787 64.9708C47.9539 64.9708 45.6491 62.6659 45.6491 59.8325C45.6491 56.9994 47.9539 54.6946 50.787 54.6946C53.6201 54.6946 55.9249 56.9994 55.9249 59.8325C55.9249 62.6659 53.6201 64.9708 50.787 64.9708ZM50.787 56.4405C48.9166 56.4405 47.395 57.9621 47.395 59.8325C47.395 61.7029 48.9166 63.2248 50.787 63.2248C52.6574 63.2248 54.179 61.7029 54.179 59.8325C54.179 57.9621 52.6574 56.4405 50.787 56.4405Z" fill="#EFF2F5"/>
</svg>
