<svg width="68" height="68" viewBox="0 0 68 68" fill="none" xmlns="http://www.w3.org/2000/svg">
<path d="M62.7592 32.6865C64.8537 30.5921 66.0078 27.807 66.0078 24.8453C66.0078 21.8835 64.8537 19.0985 62.7592 17.004C58.4362 12.681 51.3998 12.6796 47.0767 17.004C42.998 21.0827 42.7683 27.5746 46.3861 31.9268L40.5131 35.3175C39.2009 33.4967 37.1463 32.2442 34.7969 32.0118V25.0073C37.3655 24.824 39.8823 23.7549 41.8413 21.7959C46.1643 17.4715 46.1643 10.4364 41.8413 6.11339C37.5169 1.78901 30.4818 1.79034 26.1588 6.11339C21.8357 10.4378 21.8357 17.4728 26.1588 21.7959C28.1191 23.7562 30.6345 24.824 33.2031 25.0073V32.0118C30.8523 32.2442 28.7991 33.4967 27.4869 35.3175L21.6139 31.9268C23.2688 29.94 24.1705 27.4617 24.1705 24.8453C24.1705 21.8835 23.0164 19.0985 20.922 17.004C16.5989 12.681 9.56383 12.6796 5.23945 17.004C3.14633 19.0985 1.99219 21.8835 1.99219 24.8453C1.99219 27.807 3.14633 30.5921 5.24078 32.6865C7.33523 34.781 10.1203 35.9351 13.082 35.9351C15.8379 35.9351 18.4397 34.935 20.4744 33.1102L26.6873 36.6974C26.2305 37.7055 25.9741 38.8225 25.9741 39.9992C25.9741 43.4576 28.1775 46.4964 31.4048 47.596V52.2936L29.5481 50.4263C28.5932 49.3744 26.9609 49.2868 25.8998 50.2337C25.3845 50.6932 25.0777 51.3294 25.0378 52.0227C24.998 52.716 25.2304 53.3827 25.6899 53.898C26.5519 54.8649 28.0102 56.8092 29.4206 58.6899C30.9108 60.6754 32.1964 62.3914 32.7529 62.92C33.9363 64.0462 35.8288 64.8032 38.0813 65.0516C38.5873 65.1074 39.096 65.1353 39.5994 65.1353C41.2316 65.1353 42.8108 64.8457 44.0845 64.2999C46.2134 63.3875 47.3848 61.8229 47.3848 59.8958V50.587C47.3848 49.1553 46.2201 47.9918 44.7897 47.9918C44.3381 47.9918 43.9131 48.1074 43.5426 48.3119C43.1282 47.43 42.2304 46.8178 41.1931 46.8178C40.7934 46.8178 40.4148 46.9081 40.0762 47.0701C39.9434 46.6398 39.7003 46.2586 39.3816 45.9558C41.055 44.4457 42.0245 42.2982 42.0245 40.0005C42.0245 38.8238 41.7682 37.7068 41.3113 36.6988L47.5243 33.1115C47.6066 33.1859 47.6916 33.2576 47.7766 33.3293C47.7899 33.3413 47.8019 33.3519 47.8152 33.3625C49.8047 35.028 52.2909 35.9364 54.9166 35.9364C57.5423 35.9364 60.0286 35.028 62.0181 33.3625C62.0314 33.3519 62.0447 33.3413 62.0566 33.3293C62.2997 33.1235 62.5348 32.9123 62.7592 32.6865ZM6.36703 31.5589C4.57406 29.766 3.58594 27.382 3.58594 24.8453C3.58594 22.3085 4.57406 19.9246 6.36703 18.1303C10.0698 14.4275 16.0942 14.4275 19.7957 18.1303C21.5887 19.9232 22.5768 22.3085 22.5768 24.8453C22.5768 27.382 21.5887 29.766 19.7957 31.5603C18.0027 33.3532 15.6174 34.3414 13.0807 34.3414C10.5453 34.3414 8.16 33.3532 6.36703 31.5589ZM27.285 7.24097C30.9878 3.53815 37.0109 3.53815 40.7137 7.24097C44.4165 10.9438 44.4165 16.9668 40.7137 20.6696C38.8623 22.521 36.4305 23.4467 33.9987 23.4467C31.5669 23.4467 29.1351 22.521 27.2837 20.6696C23.5835 16.9668 23.5835 10.9438 27.285 7.24097ZM40.193 53.8515V49.4103C40.193 48.8578 40.642 48.4089 41.1945 48.4089C41.747 48.4089 42.1959 48.8578 42.1959 49.4103V53.8515C42.1959 54.2911 42.5531 54.6484 42.9927 54.6484C43.4323 54.6484 43.7896 54.2911 43.7896 53.8515V50.5843C43.7896 50.0318 44.2385 49.5829 44.791 49.5829C45.3435 49.5829 45.7924 50.0318 45.7924 50.5843V59.8932C45.7924 61.4949 44.5227 62.3754 43.4576 62.8336C40.4534 64.1219 35.785 63.6026 33.8512 61.7645C33.3917 61.3275 32.0211 59.5 30.6956 57.7323C29.2652 55.8251 27.7857 53.8528 26.8786 52.8355C26.702 52.6376 26.613 52.38 26.6289 52.1117C26.6448 51.8434 26.7617 51.5977 26.9596 51.421C27.1509 51.251 27.3886 51.1674 27.6263 51.1674C27.9026 51.1674 28.1775 51.2803 28.3741 51.5021C28.3834 51.5127 28.394 51.5233 28.4033 51.5339L31.6359 54.7865C31.863 55.015 32.207 55.084 32.5045 54.9618C32.8034 54.8383 32.9973 54.5475 32.9973 54.2247V39.7309C32.9973 39.3125 33.4555 38.9592 33.9987 38.9592C34.5419 38.9592 35.0001 39.3125 35.0001 39.7309V53.8528C35.0001 54.2925 35.3573 54.6497 35.797 54.6497C36.2366 54.6497 36.5938 54.2925 36.5938 53.8528V47.8338C36.5938 47.2813 37.0427 46.8324 37.5952 46.8324C38.1477 46.8324 38.5966 47.2813 38.5966 47.8338V53.8528C38.5966 54.2925 38.9539 54.6497 39.3935 54.6497C39.8331 54.6497 40.193 54.2925 40.193 53.8515ZM37.7214 45.2426C37.6802 45.2413 37.6391 45.2373 37.5966 45.2373C37.242 45.2373 36.9033 45.309 36.5952 45.4378V39.7296C36.5952 38.4253 35.4304 37.3642 34 37.3642C32.5696 37.3642 31.4048 38.4253 31.4048 39.7296V45.8854C29.1019 44.8734 27.5679 42.581 27.5679 39.9978C27.5679 36.4504 30.4539 33.5657 34 33.5657C37.5461 33.5657 40.4321 36.4518 40.4321 39.9978C40.4321 42.095 39.4227 44.034 37.7214 45.2426ZM48.2043 18.1303C51.9071 14.4275 57.9315 14.4275 61.633 18.1303C63.4259 19.9232 64.4141 22.3085 64.4141 24.8453C64.4141 27.2253 63.5455 29.4698 61.957 31.2203C61.2412 29.2865 59.6448 27.7964 57.6845 27.204C58.739 26.3792 59.4203 25.0963 59.4203 23.6566C59.4203 21.1743 57.4002 19.1556 54.9193 19.1556C52.4384 19.1556 50.4183 21.1743 50.4183 23.6566C50.4183 25.0963 51.0983 26.3792 52.1541 27.204C50.1938 27.7964 48.5974 29.2865 47.8829 31.2203C44.5055 27.4975 44.613 21.7215 48.2043 18.1303ZM54.918 26.5639C53.3149 26.5639 52.0107 25.2596 52.0107 23.6566C52.0107 22.0535 53.3149 20.7493 54.918 20.7493C56.521 20.7493 57.8252 22.0535 57.8252 23.6566C57.8252 25.2596 56.5223 26.5639 54.918 26.5639ZM49.1858 32.4142C49.6852 30.1644 51.6999 28.5162 54.0427 28.5162H55.7932C58.136 28.5162 60.1521 30.1644 60.6502 32.4142C59.0086 33.6627 57.0151 34.34 54.918 34.34C52.8209 34.3414 50.8273 33.6627 49.1858 32.4142ZM16.4037 27.1389C16.4037 28.556 15.3292 29.7514 13.8776 30.0967V31.6041C13.8776 32.0437 13.5203 32.401 13.0807 32.401C12.6411 32.401 12.2838 32.0437 12.2838 31.6041V30.1232C11.147 29.8961 10.1987 29.151 9.80953 28.1257C9.65414 27.714 9.86133 27.2545 10.273 27.0978C10.6848 26.9424 11.1443 27.1496 11.301 27.5613C11.5334 28.1749 12.2387 28.6025 13.017 28.6025C13.9891 28.6025 14.8099 27.9318 14.8099 27.1376C14.8099 26.9623 14.7807 26.3792 14.4048 26.2292L12.8045 25.5917L11.5016 25.1454C10.443 24.7828 9.75906 23.7642 9.75906 22.5516C9.75906 21.1345 10.8335 19.9392 12.2852 19.5939V18.0864C12.2852 17.6468 12.6424 17.2896 13.082 17.2896C13.5216 17.2896 13.8789 17.6468 13.8789 18.0864V19.5673C15.0158 19.7944 15.9641 20.5395 16.3532 21.5648C16.5086 21.9765 16.3014 22.436 15.8897 22.5928C15.478 22.7482 15.0184 22.541 14.8617 22.1292C14.6293 21.5157 13.9241 21.088 13.1458 21.088C12.1736 21.088 11.3528 21.7587 11.3528 22.5529C11.3528 22.9673 11.5281 23.4707 12.0182 23.6393L13.3397 24.0922C13.3516 24.0962 13.3636 24.1015 13.3769 24.1055L14.9945 24.7496C15.8764 25.1016 16.4037 25.9941 16.4037 27.1389ZM35.9829 20.3562L36.0041 19.6682C36.2153 19.5939 36.4212 19.5089 36.6217 19.4119L37.1237 19.8834C37.4823 20.2207 38.0335 20.2114 38.3802 19.8648L39.9088 18.3361C40.2555 17.9895 40.2634 17.437 39.9274 17.0797L39.4559 16.5777C39.5529 16.3771 39.6379 16.17 39.7123 15.9601L40.4016 15.9389C40.8916 15.9229 41.2755 15.5271 41.2755 15.0371V12.8749C41.2755 12.3835 40.8916 11.9877 40.4002 11.9731L39.7123 11.9518C39.6379 11.742 39.5529 11.5348 39.4559 11.3342L39.9288 10.8309C40.2634 10.4736 40.2541 9.92245 39.9075 9.57581L38.3802 8.04847C38.0335 7.7005 37.481 7.6912 37.1224 8.02855L36.6204 8.50003C36.4185 8.40308 36.2127 8.31808 36.0015 8.2437L35.9802 7.55706C35.9656 7.06565 35.5698 6.6805 35.0784 6.6805H32.9176C32.4262 6.6805 32.0304 7.06565 32.0158 7.55573L31.9945 8.24237C31.7834 8.31675 31.5762 8.40175 31.3743 8.4987L30.8736 8.02722C30.515 7.68987 29.9625 7.69784 29.6159 8.04581L28.0885 9.57315C27.7405 9.9198 27.7326 10.4723 28.0686 10.8309L28.5401 11.3316C28.4431 11.5335 28.3568 11.7393 28.2838 11.9505L27.5958 11.9717C27.1044 11.9864 26.7205 12.3835 26.7205 12.8735V15.0344C26.7205 15.5258 27.1057 15.9216 27.5958 15.9362L28.2824 15.9575C28.3568 16.1686 28.4418 16.3758 28.5387 16.5764L28.0673 17.0771C27.7299 17.4343 27.7392 17.9868 28.0859 18.3335L29.6132 19.8608C29.9598 20.2088 30.5137 20.2181 30.8709 19.8807L31.3716 19.4092C31.5735 19.5062 31.7794 19.5912 31.9905 19.6656L32.0118 20.3549C32.0277 20.8449 32.4235 21.2288 32.9136 21.2288H35.0758C35.5712 21.2301 35.967 20.8463 35.9829 20.3562ZM34.4263 19.1224L34.4104 19.6377H33.5896L33.5737 19.1237C33.5617 18.7239 33.2828 18.376 32.895 18.2764C32.4833 18.1714 32.0902 18.0081 31.7262 17.7916C31.3823 17.5884 30.9387 17.6362 30.6465 17.9111L30.2733 18.2631L29.6942 17.684L30.0462 17.3095C30.3198 17.0186 30.3689 16.575 30.1644 16.2297C29.9479 15.8645 29.7845 15.4714 29.6809 15.061C29.5827 14.6732 29.2334 14.3929 28.8336 14.381L28.3196 14.365V13.5456L28.8323 13.5296C29.2334 13.5177 29.5813 13.2388 29.6796 12.8496C29.7845 12.4379 29.9479 12.0448 30.1644 11.6796C30.3676 11.3356 30.3184 10.892 30.0448 10.6011L29.6929 10.2279L30.272 9.64886L30.6465 10.0008C30.9373 10.2744 31.3809 10.3235 31.7262 10.119C32.0915 9.90253 32.4846 9.73917 32.895 9.63558C33.2828 9.5373 33.563 9.188 33.575 8.78823L33.5909 8.27425H34.4104L34.4263 8.78691C34.4383 9.188 34.7172 9.53597 35.1063 9.63425C35.5167 9.73917 35.9098 9.9012 36.2751 10.1177C36.6191 10.3209 37.0627 10.2731 37.3535 9.99948L37.728 9.64753L38.3084 10.2279L37.9565 10.6025C37.6816 10.8946 37.6338 11.3382 37.8383 11.6809C38.0548 12.0448 38.2168 12.4379 38.3217 12.8483C38.42 13.2361 38.768 13.5164 39.1691 13.5283L39.6844 13.5442V14.365L39.1691 14.381C38.7693 14.3929 38.4213 14.6732 38.323 15.0596C38.2181 15.4714 38.0561 15.8632 37.8409 16.2257C37.6364 16.5697 37.6842 17.0146 37.9591 17.3055L38.3111 17.68L37.7307 18.2604L37.3575 17.9098C37.0666 17.6349 36.623 17.5857 36.2777 17.7903C35.9138 18.0067 35.5207 18.1688 35.1103 18.2737C34.7185 18.3733 34.4396 18.7213 34.4263 19.1224ZM37.2672 13.9546C37.2672 13.0821 36.9272 12.2613 36.3109 11.645C35.6934 11.0275 34.8739 10.6888 34.0013 10.6888C33.1288 10.6888 32.308 11.0288 31.6917 11.645C30.418 12.9187 30.418 14.9919 31.6917 16.2656C32.3093 16.8832 33.1288 17.2218 34.0013 17.2218C34.8739 17.2218 35.6947 16.8818 36.3109 16.2656C36.9272 15.648 37.2672 14.8285 37.2672 13.9546ZM35.1834 15.138C34.8673 15.4541 34.4476 15.6281 34 15.6281C33.5524 15.6281 33.1327 15.4541 32.8166 15.138C32.1645 14.4859 32.1645 13.4247 32.8166 12.7713C33.1327 12.4552 33.5524 12.2812 34 12.2812C34.4463 12.2812 34.8673 12.4552 35.1834 12.7713C35.4995 13.0874 35.6734 13.5071 35.6734 13.9546C35.6734 14.4022 35.4995 14.8219 35.1834 15.138Z" fill="#E8E9ED"/>
</svg>
