<svg width="68" height="68" viewBox="0 0 68 68" fill="none" xmlns="http://www.w3.org/2000/svg">
<path fill-rule="evenodd" clip-rule="evenodd" d="M12.2016 60.5169C12.1644 60.4711 12.1262 60.4232 12.086 60.3793C11.696 59.9484 11.338 59.4717 11.048 59.1646C9.44885 57.4691 7.44647 55.245 6.26732 53.0848C10.3652 48.9558 15.0441 44.3002 21.164 44.2184C24.4281 44.1745 27.6932 44.8846 30.9484 45.1041C33.2245 45.2556 36.0881 44.9804 38.1933 46.0276C39.4564 46.6559 39.2698 48.2716 38.2604 49.1413C37.3669 49.9112 36.0069 49.9172 34.8829 49.9092C32.7923 49.8953 30.7125 49.3587 28.6216 49.4165C27.7476 49.4405 27.0575 50.1745 27.0812 51.0561C27.1052 51.9358 27.8344 52.632 28.7085 52.606C30.7634 52.5502 32.8064 53.0868 34.8611 53.1007C36.7009 53.1127 38.8575 52.8254 40.3199 51.5668C43.0536 49.2111 43.016 44.8686 39.5968 43.1672C37.1385 41.9425 33.8172 42.0981 31.1593 41.9186C27.8203 41.6951 24.4698 40.983 21.1219 41.027C13.9766 41.1227 8.39406 46.4285 3.64958 51.2077C3.53293 51.3254 3.43512 51.4611 3.35985 51.6087C3.06457 52.1892 3.03208 52.253 3.03208 52.253C3.03208 52.253 3.25746 54.2118 3 53.6433C4.21478 56.3261 6.74238 59.2323 8.7507 61.3627C9.09826 61.7317 9.54385 62.3421 10.0255 62.8267C10.5461 63.3534 11.1226 63.7423 11.669 63.9079C12.2893 64.0934 12.9157 63.9976 13.5104 63.6306C14.0261 63.3135 14.5349 62.6293 14.9102 62.2663C15.6114 61.5881 16.2313 61.1812 17.2068 61.1652C22.0864 61.0794 26.8625 61.9291 31.7456 61.237C37.1058 60.479 42.4143 57.856 47.2679 55.5561C51.0168 53.7789 54.9697 51.9797 58.2294 49.3666C60.0078 47.9405 61.7981 45.9398 61.9269 43.5123C62.0992 40.247 58.7562 38.2603 55.9342 38.7789C52.1238 39.4811 47.5531 42.4551 43.9824 44.1027C43.1863 44.4697 42.8375 45.4192 43.2021 46.219C43.5665 47.0189 44.5072 47.372 45.3013 47.005C48.6601 45.4551 52.92 42.5768 56.5025 41.9185C57.4908 41.737 58.8216 42.1998 58.7622 43.3427C58.681 44.8607 57.368 45.9777 56.257 46.8693C53.1873 49.3307 49.4483 50.9963 45.9192 52.6679C41.3431 54.8361 36.3578 57.3613 31.3046 58.0774C26.5512 58.7496 21.9022 57.8919 17.1526 57.9737C15.2898 58.0056 14.0542 58.6699 12.7155 59.9644C12.5947 60.0801 12.3842 60.3115 12.2016 60.5169ZM15.6489 5.15467C15.517 5.37406 15.4362 5.62937 15.424 5.90467C15.3039 8.59549 14.953 11.5157 15.5489 14.1646C16.7053 19.3089 20.9634 22.9272 26.0189 23.6254C28.5291 28.3268 28.8697 33.6427 29.007 38.9306C29.03 39.8102 29.7582 40.5064 30.6323 40.4824C31.5063 40.4605 32.1974 39.7264 32.1747 38.8468C32.1418 37.5842 32.0936 36.3195 32.0101 35.0629C32.1533 34.9272 32.2741 34.7637 32.3624 34.5742C33.4085 32.3341 34.6412 30.4771 36.0521 28.8873C37.112 29.9525 38.3088 30.8521 39.5842 31.6619C40.8697 32.4798 42.3175 33.2457 43.8478 33.4631C45.3529 33.6786 46.8956 33.4951 48.3433 33.0522C54.536 31.1593 57.5126 25.3548 60.0475 19.8734C60.9882 17.8428 61.818 15.6766 63.4479 14.0888C63.5034 14.035 63.5529 13.9771 63.5984 13.9173C63.7272 13.8754 63.8559 13.8275 63.9846 13.7777C64.8005 13.4605 65.2085 12.537 64.8936 11.7152C64.5787 10.8934 63.6598 10.4845 62.8439 10.8016C61.0496 11.4978 59.291 11.1946 57.4176 10.9453C53.2607 10.3907 47.2997 8.98647 42.4451 9.78233C38.7619 10.3867 35.6671 12.168 34.0745 16.0975C33.4437 17.6553 33.1051 19.2591 32.9561 20.9306C32.8779 21.8062 33.5214 22.5842 34.3923 22.662C35.2631 22.7418 36.0337 22.0935 36.1119 21.2159C36.2325 19.8635 36.4979 18.5629 37.0083 17.3043C38.4397 13.7717 41.6644 12.8262 45.1707 12.7345C49.2385 12.6268 53.7122 13.67 57.0017 14.1088C57.7661 14.2105 58.5167 14.3063 59.2574 14.3581C58.4573 15.6846 57.8236 17.1228 57.176 18.525C55.0094 23.2085 52.7141 28.3807 47.4244 29.9984C46.4144 30.3056 45.341 30.4532 44.2934 30.3036C43.2022 30.148 42.1928 29.5476 41.2757 28.9631C40.2146 28.289 39.2121 27.5489 38.327 26.6653C41.1972 24.2258 44.6321 22.4745 48.5751 20.7271C49.3752 20.3741 49.7395 19.4306 49.387 18.6247C49.0345 17.8189 48.0998 17.4519 47.2997 17.8069C40.5296 20.8049 35.1865 23.9067 31.3843 29.785C30.8801 27.0383 30.0533 24.3734 28.6753 21.8661C29.2275 19.9352 29.5881 17.7012 29.4249 15.5889C29.2253 13.0018 28.2549 10.6002 26.0816 8.9665C24.7365 7.95323 23.2225 7.30496 21.7302 6.61681C20.5059 6.05229 19.2929 5.46388 18.2855 4.46056C17.6636 3.84219 16.6596 3.84618 16.0449 4.47453C15.8515 4.66996 15.7196 4.90532 15.6489 5.15467ZM18.4358 8.51371C18.3316 10.1812 18.2829 11.8747 18.6393 13.4605C19.4489 17.0629 22.3271 19.632 25.8007 20.3521C26.1601 18.9219 26.3822 17.3441 26.2659 15.8362C26.1368 14.1666 25.5882 12.5788 24.1853 11.5217C23.0228 10.648 21.7007 10.1134 20.411 9.51899C19.7395 9.20786 19.0758 8.8847 18.4358 8.51371Z" fill="#EFF2F5"/>
</svg>
