<svg width="68" height="68" viewBox="0 0 68 68" fill="none" xmlns="http://www.w3.org/2000/svg">
<path d="M61.7288 47.3075L47.2631 32.8973L60.3328 19.7698C63.7025 16.3891 63.7146 10.9223 60.3569 7.52958C58.7562 5.91113 56.5659 5 54.2793 5C51.9686 5 49.7663 5.91113 48.1416 7.55355L35.0478 20.7289L20.6422 6.37868C18.9453 4.6883 16.1893 4.6883 14.4924 6.37868L6.27268 14.5548C4.57577 16.2452 4.57577 19.0026 6.27268 20.693L20.7385 35.1032L9.53409 46.3604C9.40171 46.4922 9.30543 46.6601 9.24526 46.8399L5.27379 59.272C4.94885 60.291 5.21362 61.4059 5.98384 62.1732C6.74203 62.9285 7.84923 63.1922 8.86015 62.8566L21.2319 58.8644C21.4124 58.8044 21.5809 58.7085 21.7133 58.5647L32.9537 47.2715L47.3593 61.6217C49.0562 63.3121 51.8122 63.3121 53.5091 61.6217L61.7168 53.4456C63.4257 51.7552 63.4257 48.9978 61.7288 47.3075ZM60.0319 51.7552L51.8122 59.9314C51.054 60.6866 49.8265 60.6866 49.0562 59.9314L34.6506 45.5691L45.5662 34.5996L50.0671 39.0833L45.9753 43.1594C45.506 43.627 45.4939 44.3823 45.9633 44.8498C46.4327 45.3174 47.1908 45.3294 47.6602 44.8618L47.6722 44.8498L51.764 40.7737L60.0199 48.9978C60.7901 49.7651 60.7901 50.9879 60.0319 51.7552ZM7.68074 60.4708C7.54836 60.351 7.51226 60.1711 7.57243 60.0033L10.9422 49.4534L18.6444 57.186L8.13806 60.5667C7.95754 60.6267 7.78905 60.5907 7.68074 60.4708ZM12.0855 47.1996L45.8309 13.2961L54.6043 22.1196L20.8588 56.0231L12.0855 47.1996ZM7.40394 17.6239C7.40394 17.1084 7.60853 16.6169 7.96958 16.2452L16.1893 8.06906C16.9475 7.31378 18.175 7.31378 18.9453 8.06906L27.2493 16.3411L23.1574 20.4172C22.6881 20.8848 22.6881 21.6401 23.1574 22.1076C23.6268 22.5752 24.385 22.5752 24.8543 22.1076L28.9462 18.0315L33.3509 22.4193L22.4354 33.4008L7.96958 19.0026C7.60853 18.6309 7.40394 18.1394 7.40394 17.6239ZM58.6479 9.21996C59.8153 10.3948 60.4772 11.9893 60.4652 13.6437C60.4652 15.3101 59.8033 16.9046 58.6239 18.0915L56.3011 20.4172L47.5278 11.5937L49.8626 9.24393C51.0299 8.05707 52.6185 7.3977 54.2913 7.3977C55.916 7.3977 57.4926 8.05707 58.6479 9.21996Z" fill="#EFF2F5"/>
</svg>
