<svg width="68" height="68" viewBox="0 0 68 68" fill="none" xmlns="http://www.w3.org/2000/svg">
<path d="M57.3284 34.8121C57.1105 34.594 56.8082 34.4688 56.5 34.4688C56.1918 34.4688 55.8895 34.594 55.6715 34.8121C55.4535 35.0302 55.3281 35.3324 55.3281 35.6406C55.3281 35.9488 55.4534 36.2512 55.6715 36.469C55.8895 36.687 56.1918 36.8125 56.5 36.8125C56.8082 36.8125 57.1105 36.6871 57.3284 36.469C57.5465 36.2512 57.6719 35.9488 57.6719 35.6406C57.6719 35.3324 57.5465 35.0301 57.3284 34.8121Z" fill="#EFF2F5"/>
<path d="M56.5 11.0312C57.1471 11.0312 57.6719 10.5065 57.6719 9.85938V7.51562C57.6719 5.57711 56.0948 4 54.1562 4H12.6719C10.7334 4 9.15625 5.57711 9.15625 7.51562V10.3281H7.98438C5.78734 10.3281 4 12.1155 4 14.3125C4 16.5095 5.78734 18.2969 7.98438 18.2969H9.15625V23.4531H7.98438C5.78734 23.4531 4 25.2405 4 27.4375C4 29.6345 5.78734 31.4219 7.98438 31.4219H9.15625V36.5781H7.98438C5.78734 36.5781 4 38.3655 4 40.5625C4 42.7595 5.78734 44.5469 7.98438 44.5469H9.15625V49.7031H7.98438C5.78734 49.7031 4 51.4905 4 53.6875C4 55.8845 5.78734 57.6719 7.98438 57.6719H9.15625V60.4844C9.15625 62.4229 10.7334 64 12.6719 64H54.1562C56.0948 64 57.6719 62.4229 57.6719 60.4844V40.5625C57.6719 39.9154 57.1471 39.3906 56.5 39.3906C55.8529 39.3906 55.3281 39.9154 55.3281 40.5625V60.4844C55.3281 61.1305 54.8024 61.6562 54.1562 61.6562H12.6719C12.0257 61.6562 11.5 61.1305 11.5 60.4844V57.6719H12.1056C14.3027 57.6719 16.09 55.8845 16.09 53.6875C16.09 53.0404 15.5652 52.5156 14.9181 52.5156C14.271 52.5156 13.7462 53.0404 13.7462 53.6875C13.7462 54.5922 13.0103 55.3281 12.1056 55.3281H11.5V44.5469H12.1056C14.3027 44.5469 16.09 42.7595 16.09 40.5625C16.09 39.9154 15.5652 39.3906 14.9181 39.3906C14.271 39.3906 13.7462 39.9154 13.7462 40.5625C13.7462 41.4672 13.0103 42.2031 12.1056 42.2031H11.5V31.4219H12.1056C14.3027 31.4219 16.09 29.6345 16.09 27.4375C16.09 26.7904 15.5652 26.2656 14.9181 26.2656C14.271 26.2656 13.7462 26.7904 13.7462 27.4375C13.7462 28.3422 13.0103 29.0781 12.1056 29.0781H11.5V18.2969H12.1056C14.3027 18.2969 16.09 16.5095 16.09 14.3125C16.09 13.6654 15.5652 13.1406 14.9181 13.1406C14.271 13.1406 13.7462 13.6654 13.7462 14.3125C13.7462 15.2172 13.0103 15.9531 12.1056 15.9531H11.5V7.51562C11.5 6.86945 12.0257 6.34375 12.6719 6.34375H54.1562C54.8024 6.34375 55.3281 6.86945 55.3281 7.51562V9.85938C55.3281 10.5065 55.8529 11.0312 56.5 11.0312ZM9.15625 55.3281H7.98438C7.07969 55.3281 6.34375 54.5922 6.34375 53.6875C6.34375 52.7828 7.07969 52.0469 7.98438 52.0469H9.15625V55.3281ZM9.15625 42.2031H7.98438C7.07969 42.2031 6.34375 41.4672 6.34375 40.5625C6.34375 39.6578 7.07969 38.9219 7.98438 38.9219H9.15625V42.2031ZM9.15625 29.0781H7.98438C7.07969 29.0781 6.34375 28.3422 6.34375 27.4375C6.34375 26.5328 7.07969 25.7969 7.98438 25.7969H9.15625V29.0781ZM9.15625 15.9531H7.98438C7.07969 15.9531 6.34375 15.2172 6.34375 14.3125C6.34375 13.4078 7.07969 12.6719 7.98438 12.6719H9.15625V15.9531Z" fill="#EFF2F5"/>
<path d="M62.1147 15.3443C59.6051 12.8349 55.5215 12.8346 53.0117 15.3443L30.3141 38.0419C30.3125 38.0436 30.3111 38.0454 30.3094 38.0471C30.3023 38.0542 30.2961 38.0621 30.2891 38.0695C30.2654 38.0948 30.2424 38.1208 30.2213 38.1476C30.2133 38.1578 30.2059 38.1685 30.1982 38.1789C30.1788 38.2054 30.1605 38.2323 30.1435 38.26C30.137 38.2705 30.1308 38.281 30.1247 38.2918C30.1068 38.3232 30.0906 38.3553 30.0759 38.388C30.0733 38.3936 30.0699 38.3987 30.0674 38.4045L30.057 38.4285C30.0568 38.429 30.0565 38.4295 30.0564 38.4299L24.37 51.5475C24.1786 51.9889 24.2764 52.5021 24.6166 52.8423C24.841 53.0668 25.1407 53.1856 25.4454 53.1856C25.6027 53.1856 25.7611 53.1539 25.9114 53.0889L39.0544 47.3915C39.0605 47.3889 39.0659 47.3853 39.0719 47.3826C39.104 47.368 39.1355 47.3521 39.1665 47.3344C39.1775 47.3281 39.1885 47.3216 39.1993 47.3151C39.2266 47.2983 39.2532 47.2803 39.2793 47.2612C39.2901 47.2533 39.301 47.2457 39.3114 47.2376C39.3381 47.2166 39.3639 47.1938 39.3891 47.1701C39.3965 47.1632 39.4045 47.1569 39.4117 47.1497C39.4134 47.1481 39.4152 47.1468 39.4169 47.145L62.1146 24.4473C63.3304 23.2315 64 21.615 64 19.8958C64 18.1765 63.3304 16.56 62.1147 15.3443ZM27.6999 49.7591L31.5325 40.9178L36.5412 45.9265L27.6999 49.7591ZM38.5884 44.6589L32.8 38.8705L52.4066 19.264L58.195 25.0523L38.5884 44.6589ZM60.4574 22.79L59.8524 23.395L54.064 17.6068L54.6692 17.0016C56.2648 15.4059 58.8616 15.4059 60.4575 17.0016C61.2307 17.7747 61.6564 18.8024 61.6564 19.8957C61.6563 20.9891 61.2305 22.0169 60.4574 22.79Z" fill="#EFF2F5"/>
<path d="M37.3984 12.6719H26.0312C25.3841 12.6719 24.8594 13.1966 24.8594 13.8438C24.8594 14.4909 25.3841 15.0156 26.0312 15.0156H37.3984C38.0455 15.0156 38.5703 14.4909 38.5703 13.8438C38.5703 13.1966 38.0455 12.6719 37.3984 12.6719Z" fill="#EFF2F5"/>
<path d="M21.7034 13.0152C21.4855 12.7971 21.1832 12.6719 20.875 12.6719C20.5668 12.6719 20.2645 12.7971 20.0465 13.0152C19.8285 13.2332 19.7031 13.5355 19.7031 13.8438C19.7031 14.152 19.8284 14.4543 20.0465 14.6721C20.2645 14.8902 20.5668 15.0156 20.875 15.0156C21.1832 15.0156 21.4855 14.8902 21.7034 14.6721C21.9215 14.4543 22.0469 14.152 22.0469 13.8438C22.0469 13.5355 21.9215 13.2332 21.7034 13.0152Z" fill="#EFF2F5"/>
</svg>
