<svg width="108" height="108" viewBox="0 0 108 108" fill="none" xmlns="http://www.w3.org/2000/svg">
<path d="M63.6595 48.7068H57.8589C57.7748 48.4244 57.687 48.1511 57.5934 47.8906L63.2127 46.5498L80 51.4777L73.3076 29.9953C74.0389 29.4943 74.5163 28.68 74.5163 27.7563C74.5163 26.2333 73.2217 25 71.6274 25C70.033 25 68.7385 26.2352 68.7385 27.7563C68.7385 29.0844 69.7218 30.1921 71.0317 30.4544L76.5459 48.1475L63.2796 44.2525L58.0021 45.5114C58.0555 45.4203 58.0994 45.3237 58.1376 45.2235L62.5712 40.9934H72.1525L65.5804 29.7056C66.1035 29.2065 66.4262 28.5178 66.4262 27.7563C66.4262 26.2333 65.1317 25 63.5373 25C61.943 25 60.6485 26.2352 60.6485 27.7563C60.6485 29.2775 61.8666 30.4362 63.396 30.5072L68.2134 38.7817H61.6127L57.3834 42.817C57.5629 42.2722 57.5591 41.099 55.0215 39.8875C56.1767 40.4395 56.1767 42.6439 56.1767 42.6439H56.1824C55.2869 42.6694 54.5384 43.2433 54.296 44.0284C54.2673 44.0284 54.2406 44.023 54.2119 44.023C54.1833 44.023 54.1566 44.0266 54.1279 44.0284C53.8854 43.2451 53.137 42.6694 52.2415 42.6475H52.2472C52.2472 42.6475 52.2472 40.4395 53.4024 39.8875C50.628 41.212 50.882 42.4927 51.0939 42.9518C51.0271 42.9937 50.9603 43.0374 50.8992 43.0866L46.3873 38.7817H39.7866L44.604 30.5072C46.1334 30.4362 47.3515 29.2338 47.3515 27.7563C47.3515 26.2789 46.057 25 44.4627 25C42.8683 25 41.5738 26.2352 41.5738 27.7563C41.5738 28.5178 41.8965 29.2065 42.4196 29.7056L35.8475 40.9934H45.4288L50.2194 45.5642L44.7204 44.2525L31.4541 48.1475L36.9684 30.4544C38.2782 30.1921 39.2615 29.0844 39.2615 27.7563C39.2615 26.2333 37.967 25 36.3726 25C34.7783 25 33.4837 26.2352 33.4837 27.7563C33.4837 28.68 33.9611 29.4961 34.6924 29.9953L28 51.4777L44.7873 46.5498L50.798 47.9835C50.7178 48.2167 50.6414 48.459 50.5669 48.7068H44.3424L30.7457 59.3204L35.586 78.8152C34.6809 79.2816 34.0642 80.1943 34.0642 81.2437C34.0642 82.7667 35.3587 84 36.9531 84C38.5474 84 39.842 82.7648 39.842 81.2437C39.842 80.0467 39.0419 79.032 37.9269 78.6513L33.3367 60.1566L45.1691 50.9184H48.7626L42.9294 56.0194L46.9334 78.9355C46.1448 79.4273 45.6217 80.2763 45.6217 81.2437C45.6217 82.7667 46.9162 84 48.5105 84C50.1049 84 51.3994 82.7648 51.3994 81.2437C51.3994 79.9557 50.4715 78.8753 49.2189 78.5729L45.4231 56.8392L49.7421 53.0626C49.6428 54.05 49.5893 55.0848 49.5893 56.1542C49.5893 62.8547 51.6591 68.2854 54.2119 68.2854C56.7648 68.2854 58.8345 62.8547 58.8345 56.1542C58.8345 55.2305 58.7944 54.3306 58.72 53.4652L62.5769 56.8392L58.7811 78.5729C57.5285 78.8753 56.6006 79.9538 56.6006 81.2437C56.6006 82.7667 57.8951 84 59.4895 84C61.0838 84 62.3783 82.7648 62.3783 81.2437C62.3783 80.2763 61.8552 79.4273 61.0666 78.9355L65.0706 56.0194L59.2374 50.9184H62.8309L74.6633 60.1566L70.0731 78.6513C68.9562 79.0338 68.158 80.0486 68.158 81.2437C68.158 82.7667 69.4526 84 71.0469 84C72.6413 84 73.9358 82.7648 73.9358 81.2437C73.9358 80.1925 73.321 79.2798 72.414 78.8152L77.2543 59.3204L63.6576 48.7068H63.6595ZM50.418 45.5095C50.4428 45.5514 50.4677 45.5915 50.4963 45.6316L50.3321 45.5915L50.4199 45.5077L50.418 45.5095Z" fill="#205EA4"/>
<path d="M98.8082 54.6583C98.7676 46.7202 99.8123 39.0313 101.797 31.7237C102.666 28.5235 100.662 25.283 97.4411 24.4417C82.2506 20.4718 68.6832 12.4988 57.9568 1.71609C55.6649 -0.587821 52.0243 -0.569492 49.7545 1.75641C39.135 12.6436 25.6505 20.7522 10.5005 24.8725C7.28741 25.7467 5.3179 29.0074 6.21883 32.1984C8.27678 39.4859 9.39879 47.1656 9.43748 55.1037C9.44117 55.8937 9.42827 56.6781 9.40985 57.4626C11.7957 58.7474 14.3346 59.9296 17.0079 61C17.1884 58.9472 17.2897 56.8706 17.2897 54.7701C17.2897 47.8511 16.2875 41.1648 14.4267 34.8451C13.8297 32.8179 15.112 30.7431 17.17 30.2299C30.4942 26.9088 42.326 19.8486 51.4771 10.2371C52.8534 8.79093 55.1417 8.79093 56.5179 10.2371C65.6691 19.8504 77.5009 26.9088 90.8251 30.2299C92.8849 30.7431 94.1653 32.8198 93.5684 34.8451C91.7057 41.1648 90.7053 47.8511 90.7053 54.7701C90.7053 56.8706 90.8085 58.9454 90.9872 61C93.7618 59.8893 96.3946 58.6558 98.8597 57.3141C98.8284 56.4307 98.8082 55.5454 98.8026 54.6565L98.8082 54.6583Z" fill="#DDA923"/>
<path d="M99.2973 63.0018C96.8847 64.186 94.3424 65.2768 91.6854 66.2667C92.1187 68.7744 92.6816 71.2381 93.3759 73.6487C93.8943 75.4507 92.8408 77.2582 91.0022 77.7091C77.5171 81.0069 65.5429 88.092 56.2924 97.7618C54.9074 99.2082 52.6078 99.2082 51.2246 97.7618C41.9741 88.092 30 81.0069 16.5149 77.7091C14.6763 77.26 13.6227 75.4525 14.1412 73.6487C14.8337 71.2381 15.3965 68.7744 15.8317 66.2667C13.308 65.3263 10.8879 64.2942 8.58457 63.1778C8.1439 67.8028 7.33661 72.3234 6.18492 76.7082C5.39985 79.7017 7.18478 82.7393 10.2066 83.5202C25.5265 87.4798 39.2079 95.4686 50.0193 106.282C52.3245 108.588 55.9832 108.57 58.2662 106.242C68.9683 95.3219 82.5682 87.1975 97.8475 83.0875C100.862 82.2773 102.615 79.2196 101.801 76.2353C100.63 71.9476 99.7898 67.526 99.2973 63V63.0018Z" fill="#205EA4"/>
</svg>
