<svg width="176" height="156" viewBox="0 0 176 156" fill="none" xmlns="http://www.w3.org/2000/svg">
<g clip-path="url(#clip0_171_11053)">
<path opacity="0.85" d="M120.298 0C90.1384 0 65.6006 24.3638 65.6006 54.3099C65.6006 84.256 90.1384 108.62 120.298 108.62C150.458 108.62 174.996 84.256 174.996 54.3099C174.996 24.3638 150.462 0 120.298 0ZM120.298 108.152C90.3996 108.152 66.0715 84.0006 66.0715 54.3099C66.0715 24.6192 90.3996 0.467478 120.298 0.467478C150.197 0.467478 174.525 24.6231 174.525 54.3099C174.525 83.9967 150.201 108.152 120.298 108.152ZM120.298 16.1614C99.1156 16.1614 81.8774 33.2734 81.8774 54.3099C81.8774 75.3464 99.1116 92.4584 120.298 92.4584C141.485 92.4584 158.719 75.3464 158.719 54.3099C158.719 33.2734 141.485 16.1614 120.298 16.1614ZM120.298 91.987C99.3728 91.987 82.3522 75.0832 82.3522 54.3099C82.3522 33.5366 99.3767 16.6288 120.298 16.6288C141.22 16.6288 158.245 33.5327 158.245 54.3099C158.245 75.0871 141.22 91.987 120.298 91.987ZM120.769 11.6044H119.828V4.73763H120.769V11.6084V11.6044ZM119.828 95.6797H120.769V102.55H119.828V95.6797ZM116.14 11.8048L115.539 4.96155L116.48 4.87905L117.082 11.7223L116.14 11.8048ZM124.461 95.4793L125.062 102.323L124.12 102.405L123.519 95.5618L124.461 95.4793ZM112.484 12.3233L111.282 5.55866L112.211 5.3976L113.414 12.1623L112.484 12.3233ZM128.116 94.9608L129.319 101.725L128.389 101.887L127.186 95.1219L128.116 94.9608ZM108.884 13.1562L107.092 6.52112L108.002 6.27756L109.794 12.9126L108.884 13.1562ZM131.713 94.128L133.505 100.763L132.595 101.007L130.803 94.3715L131.713 94.128ZM105.375 14.2993L103.009 7.84498L103.895 7.52285L106.261 13.9772L105.375 14.2993ZM135.222 92.9848L137.588 99.4392L136.702 99.7613L134.336 93.3069L135.222 92.9848ZM101.98 15.745L99.0563 9.51847L99.9108 9.1217L102.835 15.3482L101.98 15.745ZM138.621 91.547L141.544 97.7735L140.69 98.1703L137.766 91.9438L138.621 91.547ZM98.7239 17.4734L95.266 11.5259L96.085 11.0584L99.5429 17.006L98.7239 17.4734ZM141.881 89.8185L145.339 95.7661L144.52 96.2336L141.062 90.286L141.881 89.8185ZM95.63 19.4809L91.6617 13.8515L92.4332 13.3133L96.4015 18.9427L95.63 19.4809ZM144.971 87.8151L148.939 93.4405L148.167 93.9787L144.199 88.3533L144.971 87.8151ZM92.722 21.7436L88.275 16.4796L88.999 15.8785L93.446 21.1426L92.722 21.7436ZM147.875 85.5484L152.322 90.8124L151.598 91.4135L147.151 86.1494L147.875 85.5484ZM90.0277 24.2538L85.1336 19.3944L85.8022 18.7305L90.6963 23.5899L90.0277 24.2538ZM150.569 83.0421L155.463 87.9015L154.794 88.5654L149.9 83.706L150.569 83.0421ZM87.5628 26.9841L82.2612 22.5686L82.8665 21.8497L88.1681 26.2652L87.5628 26.9841ZM153.034 80.3119L158.336 84.7274L157.73 85.4463L152.429 81.0308L153.034 80.3119ZM85.3472 29.9186L79.6776 25.9784L80.2197 25.2124L85.8892 29.1525L85.3472 29.9186ZM155.253 77.3774L160.923 81.3175L160.381 82.0836L154.711 78.1434L155.253 77.3774ZM83.4006 33.0338L77.4066 29.6004L77.8775 28.7872L83.8715 32.2206L83.4006 33.0338ZM157.204 74.2621L163.198 77.6955L162.727 78.5087L156.733 75.0753L157.204 74.2621ZM81.731 36.3061L75.4601 33.403L75.8597 32.5545L82.1306 35.4576L81.731 36.3061ZM158.874 70.9898L165.145 73.8929L164.745 74.7414L158.474 71.8383L158.874 70.9898ZM80.3542 39.712L73.8538 37.3628L74.1782 36.4829L80.6786 38.8321L80.3542 39.712ZM160.246 67.5878L166.747 69.937L166.426 70.817L159.926 68.4678L160.25 67.5878H160.246ZM79.282 43.2201L72.5996 41.4405L72.8449 40.537L79.5273 42.3165L79.282 43.2201ZM161.319 64.0759L168.001 65.8554L167.756 66.7589L161.073 64.9794L161.319 64.0759ZM78.5224 46.8106L71.7094 45.6164L71.8716 44.6932L78.6846 45.8874L78.5224 46.8106ZM162.078 60.4892L168.891 61.6835L168.729 62.6066L161.916 61.4124L162.078 60.4892ZM78.0832 50.4522L71.1911 49.8551L71.2742 48.9202L78.1663 49.5173L78.0832 50.4522ZM162.521 56.8476L169.414 57.4447L169.33 58.3797L162.438 57.7826L162.521 56.8476ZM77.9645 54.1174H71.0447V53.1824H77.9645V54.1174ZM169.56 53.1824V54.1174H162.64V53.1824H169.56ZM78.1663 57.7826L71.2742 58.3797L71.1911 57.4447L78.0832 56.8476L78.1663 57.7826ZM162.438 49.5212L169.33 48.9241L169.414 49.859L162.521 50.4562L162.438 49.5212ZM78.6885 61.4124L71.8756 62.6066L71.7133 61.6835L78.5263 60.4892L78.6885 61.4124ZM161.916 45.8914L168.729 44.6971L168.891 45.6203L162.078 46.8145L161.916 45.8914ZM79.5273 64.9872L72.8449 66.7668L72.5996 65.8633L79.282 64.0837L79.5273 64.9872ZM161.077 42.3205L167.76 40.5409L168.005 41.4444L161.323 43.224L161.077 42.3205ZM80.6786 68.4717L74.1782 70.8209L73.8538 69.9409L80.3542 67.5918L80.6786 68.4717ZM159.926 38.836L166.426 36.4868L166.747 37.3668L160.246 39.716L159.922 38.836H159.926ZM82.1306 71.8462L75.8597 74.7493L75.4601 73.9007L81.731 70.9977L82.1306 71.8462ZM158.474 35.4654L164.745 32.5624L165.145 33.4109L158.874 36.314L158.474 35.4654ZM83.8715 75.0792L77.8775 78.5127L77.4066 77.6995L83.4006 74.2661L83.8715 75.0792ZM156.733 32.2285L162.727 28.795L163.198 29.6082L157.204 33.0416L156.733 32.2285ZM85.8932 78.1512L80.2236 82.0914L79.6816 81.3254L85.3512 77.3852L85.8932 78.1512ZM154.715 29.1604L160.385 25.2202L160.927 25.9863L155.257 29.9264L154.715 29.1604ZM88.1721 81.0386L82.8705 85.4541L82.2651 84.7352L87.5668 80.3197L88.1721 81.0386ZM152.433 26.277L157.734 21.8615L158.339 22.5803L153.038 26.9958L152.433 26.277ZM90.6963 83.7138L85.8022 88.5732L85.1336 87.9093L90.0277 83.0499L90.6963 83.7138ZM149.904 23.5899L154.798 18.7305L155.467 19.3944L150.573 24.2538L149.904 23.5899ZM93.446 86.1494L88.999 91.4135L88.275 90.8124L92.722 85.5484L93.446 86.1494ZM147.155 21.1426L151.602 15.8785L152.326 16.4796L147.879 21.7436L147.155 21.1426ZM96.4015 88.3533L92.4332 93.9787L91.6617 93.4405L95.63 87.8151L96.4015 88.3533ZM144.199 18.9427L148.167 13.3133L148.939 13.8515L144.971 19.4809L144.199 18.9427ZM99.5389 90.2899L96.081 96.2375L95.262 95.77L98.72 89.8225L99.5389 90.2899ZM141.062 17.0099L144.52 11.0623L145.339 11.5298L141.881 17.4774L141.062 17.0099ZM101.98 91.551L102.835 91.9477L99.9108 98.1742L99.0563 97.7774L101.98 91.551ZM138.621 15.7489L137.766 15.3521L140.69 9.12563L141.544 9.5224L138.621 15.7489ZM105.375 92.9927L106.261 93.3148L103.895 99.7691L103.009 99.447L105.375 92.9927ZM135.222 14.3072L134.336 13.985L136.702 7.53071L137.588 7.85284L135.222 14.3072ZM108.884 94.1358L109.794 94.3794L108.002 101.014L107.092 100.771L108.884 94.1358ZM131.713 13.164L130.803 12.9205L132.595 6.28541L133.505 6.52897L131.713 13.164ZM112.484 94.9687L113.414 95.1297L112.211 101.894L111.282 101.733L112.484 94.9687ZM128.116 12.3312L127.186 12.1701L128.389 5.40545L129.319 5.56652L128.116 12.3312ZM116.14 95.4872L117.082 95.5697L116.48 102.413L115.539 102.33L116.14 95.4872ZM124.461 11.8126L123.519 11.7302L124.12 4.88691L125.062 4.9694L124.461 11.8126Z" fill="url(#paint0_linear_171_11053)"/>
<path opacity="0.85" d="M31.6188 48.0166C14.7367 48.0166 1 61.656 1 78.4184C1 95.1808 14.7367 108.82 31.6188 108.82C48.5009 108.82 62.2377 95.1808 62.2377 78.4184C62.2377 61.656 48.5009 48.0166 31.6188 48.0166ZM31.6188 108.557C14.8831 108.561 1.26508 95.0394 1.26508 78.4184C1.26508 61.7974 14.8831 48.2798 31.6188 48.2798C48.3546 48.2798 61.9726 61.8013 61.9726 78.4184C61.9726 95.0354 48.3546 108.557 31.6188 108.557ZM31.6188 57.0637C19.7614 57.0637 10.1117 66.645 10.1117 78.4184C10.1117 90.1917 19.7614 99.7731 31.6188 99.7731C43.4763 99.7731 53.126 90.1917 53.126 78.4184C53.126 66.645 43.4763 57.0637 31.6188 57.0637ZM31.6188 99.5099C19.9038 99.5099 10.3767 90.0464 10.3767 78.4184C10.3767 66.7904 19.9078 57.3269 31.6188 57.3269C43.3299 57.3269 52.8609 66.7904 52.8609 78.4184C52.8609 90.0464 43.3299 99.5099 31.6188 99.5099ZM31.8839 54.5142H31.3577V50.6683H31.8839V54.5142ZM31.3577 101.58H31.8839V105.426H31.3577V101.58ZM29.2925 54.6281L28.9562 50.7979L29.4824 50.7508L29.8187 54.581L29.2925 54.6281ZM33.9492 101.466L34.2855 105.296L33.7593 105.344L33.423 101.513L33.9492 101.466ZM27.247 54.9188L26.5744 51.1318L27.0927 51.0415L27.7653 54.8284L27.247 54.9188ZM35.9986 101.175L36.6712 104.962L36.1529 105.053L35.4803 101.266L35.9986 101.175ZM25.2332 55.3823L24.2322 51.6661L24.7426 51.5286L25.7435 55.2449L25.2332 55.3823ZM38.0124 100.708L39.0134 104.424L38.503 104.562L37.5021 100.846L38.0124 100.708ZM23.2708 56.0227L21.9454 52.4086L22.4399 52.2279L23.7653 55.842L23.2708 56.0227ZM39.9788 100.072L41.3042 103.686L40.8096 103.866L39.4842 100.252L39.9788 100.072ZM21.3677 56.8319L19.7298 53.3474L20.2085 53.1275L21.8465 56.6119L21.3677 56.8319ZM41.8779 99.2663L43.5158 102.751L43.0371 102.971L41.3992 99.4863L41.8779 99.2663ZM19.5438 57.8022L17.6091 54.471L18.0681 54.2078L20.0028 57.539L19.5438 57.8022ZM43.7018 98.2999L45.6365 101.631L45.1775 101.894L43.2428 98.5631L43.7018 98.2999ZM17.8109 58.9257L15.5913 55.7752L16.0226 55.4727L18.2421 58.6233L17.8109 58.9257ZM45.4308 97.1764L47.6503 100.327L47.2191 100.629L44.9995 97.4789L45.4308 97.1764ZM16.1848 60.1907L13.6962 57.2444L14.0998 56.9066L16.5884 59.8528L16.1848 60.1907ZM47.0569 95.9075L49.5454 98.8538L49.1419 99.1917L46.6533 96.2454L47.0569 95.9075ZM14.6734 61.5931L11.9356 58.8747L12.3075 58.5054L15.0453 61.2239L14.6734 61.5931ZM48.5643 94.5012L51.3021 97.2196L50.9302 97.5889L48.1923 94.8705L48.5643 94.5012ZM13.2926 63.1213L10.3253 60.6503L10.6656 60.2496L13.6329 62.7206L13.2926 63.1213ZM49.9411 92.973L52.9084 95.444L52.5682 95.8447L49.6008 93.3737L49.9411 92.973ZM12.0543 64.7633L8.88122 62.5595L9.18586 62.1313L12.3589 64.3351L12.0543 64.7633ZM51.1834 91.327L54.3565 93.5309L54.0518 93.9591L50.8788 91.7552L51.1834 91.327ZM10.9623 66.5036L7.60725 64.5826L7.87233 64.1269L11.2274 66.0479L10.9623 66.5036ZM52.2754 89.5828L55.6304 91.5038L55.3654 91.9595L52.0103 90.0385L52.2754 89.5828ZM10.0286 68.3382L6.51923 66.7118L6.74079 66.2365L10.2501 67.8628L10.0286 68.3382ZM53.2131 87.7522L56.7224 89.3786L56.5009 89.8539L52.9915 88.2276L53.2131 87.7522ZM9.26103 70.2434L5.62112 68.9274L5.80311 68.4364L9.44303 69.7524L9.26103 70.2434ZM53.9846 85.847L57.6245 87.163L57.4425 87.654L53.8026 86.338L53.9846 85.847ZM8.66361 72.2076L4.92478 71.2137L5.06326 70.707L8.80604 71.7009L8.66757 72.2076H8.66361ZM54.5859 83.8828L58.3287 84.8766L58.1903 85.3834L54.4475 84.3895L54.5859 83.8828ZM8.24027 74.2189L4.42627 73.5511L4.51727 73.0365L8.33127 73.7043L8.24027 74.2189ZM55.0132 81.8754L58.8272 82.5432L58.7362 83.0578L54.9222 82.39L55.0132 81.8754ZM7.99498 76.2578L4.13745 75.9239L4.18493 75.4014L8.04245 75.7353L7.99498 76.2578ZM55.2625 79.8365L59.12 80.1704L59.0725 80.6929L55.215 80.359L55.2625 79.8365ZM7.92772 78.3084H4.04645V77.7859H7.9198V78.3084H7.92772ZM59.2031 77.7859V78.3084H55.3298V77.7859H59.2031ZM8.04245 80.359L4.18493 80.6929L4.13745 80.1704L7.99498 79.8365L8.04245 80.359ZM55.215 75.7353L59.0725 75.4014L59.12 75.9239L55.2625 76.2578L55.215 75.7353ZM8.33523 82.3939L4.52123 83.0617L4.43023 82.5471L8.24423 81.8793L8.33523 82.3939ZM54.9222 73.7043L58.7362 73.0365L58.8272 73.5511L55.0132 74.2189L54.9222 73.7043ZM8.80209 84.3935L5.0593 85.3873L4.92083 84.8806L8.65966 83.8867L8.79813 84.3935H8.80209ZM54.4514 71.7048L58.1942 70.7109L58.3327 71.2177L54.5899 72.2115L54.4514 71.7048ZM9.44699 86.3419L5.80707 87.6579L5.62507 87.1669L9.26499 85.8509L9.44699 86.3419ZM53.8105 69.7524L57.4504 68.4364L57.6324 68.9274L53.9925 70.2434L53.8105 69.7524ZM10.262 88.2315L6.75266 89.8578L6.53109 89.3825L10.0405 87.7561L10.262 88.2315ZM52.9994 67.8667L56.5088 66.2404L56.7303 66.7157L53.221 68.3421L52.9994 67.8667ZM11.2393 90.0425L7.8842 91.9635L7.61911 91.5078L10.9742 89.5868L11.2393 90.0425ZM52.0261 66.0558L55.3812 64.1348L55.6463 64.5905L52.2912 66.5115L52.0261 66.0558ZM12.355 91.7592L9.18191 93.963L8.87726 93.5348L12.0503 91.331L12.355 91.7592ZM50.8788 64.3351L54.0518 62.1313L54.3565 62.5595L51.1834 64.7633L50.8788 64.3351ZM13.6329 93.3737L10.6656 95.8447L10.3253 95.444L13.2926 92.973L13.6329 93.3737ZM49.6048 62.7206L52.5721 60.2496L52.9124 60.6503L49.945 63.1213L49.6048 62.7206ZM15.0453 94.8744L12.3075 97.5928L11.9356 97.2236L14.6734 94.5051L15.0453 94.8744ZM48.1884 61.2239L50.9262 58.5054L51.2981 58.8747L48.5603 61.5931L48.1884 61.2239ZM16.5844 96.2454L14.0958 99.1917L13.6922 98.8538L16.1808 95.9075L16.5844 96.2454ZM46.6493 59.8568L49.1379 56.9105L49.5415 57.2483L47.0529 60.1946L46.6493 59.8568ZM18.2382 97.4789L16.0186 100.629L15.5874 100.327L17.8069 97.1764L18.2382 97.4789ZM44.9916 58.6233L47.2112 55.4727L47.6424 55.7752L45.4228 58.9257L44.9916 58.6233ZM19.9909 98.5592L18.0562 101.89L17.5972 101.627L19.5319 98.296L19.9909 98.5592ZM43.2349 57.539L45.1696 54.2078L45.6286 54.471L43.6939 57.8022L43.2349 57.539ZM21.3598 99.2663L21.8385 99.4863L20.2006 102.971L19.7218 102.751L21.3598 99.2663ZM41.87 56.8319L41.3912 56.6119L43.0292 53.1275L43.5079 53.3474L41.87 56.8319ZM23.2589 100.072L23.7535 100.252L22.428 103.866L21.9335 103.686L23.2589 100.072ZM39.9669 56.0227L39.4724 55.842L40.7978 52.2279L41.2923 52.4086L39.9669 56.0227ZM25.2252 100.708L25.7356 100.846L24.7346 104.562L24.2243 104.424L25.2252 100.708ZM38.0045 55.3823L37.4941 55.2449L38.4951 51.5286L39.0055 51.6661L38.0045 55.3823ZM27.2391 101.175L27.7574 101.266L27.0848 105.053L26.5665 104.962L27.2391 101.175ZM35.9907 54.9188L35.4724 54.8284L36.145 51.0415L36.6633 51.1318L35.9907 54.9188ZM29.2885 101.466L29.8147 101.513L29.4784 105.344L28.9522 105.296L29.2885 101.466ZM33.9452 54.6281L33.419 54.581L33.7553 50.7508L34.2815 50.7979L33.9452 54.6281Z" fill="url(#paint1_linear_171_11053)"/>
<path opacity="0.59" d="M49.3001 78.4184C32.8691 78.4184 19.5042 91.6924 19.5042 108.003C19.5042 124.314 32.873 137.588 49.3001 137.588C65.7273 137.588 79.096 124.314 79.096 108.003C79.096 91.6924 65.7312 78.4184 49.3001 78.4184ZM56.3742 106.84C56.3466 104.177 56.2239 101.03 55.9707 97.8128C59.215 97.5417 61.9963 97.0978 64.3267 96.5871C65.209 99.7298 65.7431 103.191 65.838 106.836H56.3782L56.3742 106.84ZM44.5762 106.84C44.6039 103.584 44.7384 100.629 44.952 97.9739C46.3289 98.0446 47.7769 98.0838 49.3041 98.0838C50.8313 98.0838 52.2793 98.0446 53.6562 97.9739C53.8698 100.629 54.0043 103.584 54.032 106.84H44.5801H44.5762ZM54.0281 109.17C54.0004 112.426 53.8659 115.381 53.6522 118.036C52.2754 117.965 50.8273 117.926 49.3001 117.926C47.773 117.926 46.3249 117.965 44.9481 118.036C44.7344 115.381 44.5999 112.426 44.5722 109.17H54.0241H54.0281ZM55.761 95.4911C55.2071 89.9364 54.2219 84.4956 52.6156 81.3018C57.308 82.8771 61.2802 87.7365 63.6145 94.3519C61.4187 94.8233 58.7995 95.2397 55.757 95.495L55.761 95.4911ZM53.4386 95.6483C52.129 95.715 50.7522 95.7543 49.3001 95.7543C47.8481 95.7543 46.4713 95.715 45.1617 95.6483C46.1825 85.7959 48.2556 80.7518 49.3001 80.7518C50.3446 80.7518 52.4178 85.7959 53.4386 95.6483ZM45.9846 81.3018C44.3783 84.4956 43.3971 89.9364 42.8393 95.4911C39.8007 95.2358 37.1855 94.8194 34.9858 94.344C37.3201 87.7365 41.2923 82.881 45.9846 81.3018ZM42.6336 97.8167C42.3764 101.03 42.2537 104.177 42.23 106.844H32.7702C32.8651 103.199 33.3953 99.7338 34.2815 96.595C36.6158 97.1057 39.3972 97.5496 42.6375 97.8206L42.6336 97.8167ZM30.42 106.844H21.8821C22.0838 102.103 23.5082 97.6714 25.8504 93.8569C26.9344 94.3755 28.972 95.2397 32.0184 96.0489C31.0768 99.3724 30.515 103.014 30.4161 106.844H30.42ZM30.42 109.174C30.515 113.004 31.0768 116.645 32.0224 119.969C28.9759 120.782 26.9344 121.642 25.8543 122.161C23.5082 118.343 22.0878 113.911 21.886 109.174H30.424H30.42ZM32.7662 109.174H42.226C42.2537 111.837 42.3764 114.984 42.6296 118.201C39.3853 118.472 36.6039 118.916 34.2736 119.427C33.3913 116.284 32.8572 112.823 32.7622 109.174H32.7662ZM42.8432 120.523C43.4011 126.078 44.3823 131.518 45.9886 134.712C41.2963 133.137 37.324 128.277 34.9897 121.662C37.1855 121.191 39.8047 120.774 42.8472 120.519L42.8432 120.523ZM45.1657 120.366C46.4753 120.299 47.856 120.26 49.3041 120.26C50.7522 120.26 52.1329 120.299 53.4425 120.366C52.4218 130.218 50.3486 135.262 49.3041 135.262C48.2596 135.262 46.1864 130.218 45.1657 120.366ZM52.6196 134.712C54.2259 131.518 55.2071 126.078 55.765 120.523C58.8035 120.778 61.4187 121.195 63.6185 121.67C61.2842 128.277 57.3119 133.133 52.6196 134.712ZM55.9707 118.197C56.2279 114.984 56.3466 111.837 56.3742 109.17H65.8341C65.7391 112.815 65.209 116.28 64.3227 119.423C61.9884 118.912 59.211 118.468 55.9667 118.197H55.9707ZM68.1842 109.17H76.7222C76.5204 113.911 75.0961 118.343 72.7539 122.157C71.6698 121.638 69.6323 120.774 66.5858 119.965C67.5274 116.642 68.0892 113 68.1882 109.17H68.1842ZM68.1842 106.84C68.0892 103.01 67.5274 99.3684 66.5818 96.045C69.6283 95.2318 71.6698 94.3715 72.7499 93.853C75.0961 97.6714 76.5164 102.103 76.7182 106.84H68.1802H68.1842ZM71.4245 91.8927C70.38 92.3681 68.5403 93.1066 65.8776 93.8098C64.2198 89.08 61.755 85.1398 58.7837 82.4292C63.8756 84.2952 68.2594 87.6226 71.4245 91.8927ZM39.8245 82.4253C36.8532 85.1359 34.3923 89.0721 32.7306 93.798C30.0719 93.0948 28.2321 92.3602 27.1837 91.8888C30.3488 87.6186 34.7326 84.2913 39.8205 82.4253H39.8245ZM27.1837 124.117C28.2282 123.642 30.0679 122.903 32.7306 122.2C34.3883 126.93 36.8532 130.87 39.8284 133.581C34.7365 131.715 30.3528 128.387 27.1876 124.113L27.1837 124.117ZM58.7877 133.581C61.7589 130.87 64.2199 126.934 65.8816 122.208C68.5403 122.911 70.38 123.646 71.4285 124.117C68.2633 128.387 63.8796 131.715 58.7916 133.581H58.7877Z" fill="url(#paint2_linear_171_11053)"/>
<path style="mix-blend-mode:multiply" d="M31.6188 65.5844C24.4775 65.5844 18.6655 71.3551 18.6655 78.4459C18.6655 85.5366 24.4775 91.3074 31.6188 91.3074C38.7602 91.3074 44.5722 85.5366 44.5722 78.4459C44.5722 71.3551 38.7602 65.5844 31.6188 65.5844ZM34.693 77.9391C34.6811 76.7802 34.6297 75.4132 34.5149 74.0147C35.9234 73.8968 37.1341 73.7043 38.1469 73.4804C38.5307 74.8475 38.7641 76.352 38.8037 77.9352H34.689L34.693 77.9391ZM29.5654 77.9391C29.5773 76.5249 29.6367 75.2403 29.7277 74.0854C30.3251 74.1168 30.9581 74.1325 31.6188 74.1325C32.2796 74.1325 32.9126 74.1168 33.51 74.0854C33.601 75.2403 33.6603 76.5249 33.6722 77.9391H29.5654ZM33.6722 78.9526C33.6603 80.3669 33.601 81.6514 33.51 82.8064C32.9126 82.775 32.2835 82.7592 31.6188 82.7592C30.9541 82.7592 30.3251 82.775 29.7277 82.8064C29.6367 81.6514 29.5773 80.3669 29.5654 78.9526H33.6722ZM34.4239 73.0051C34.1826 70.5891 33.7553 68.2242 33.059 66.8375C35.0965 67.521 36.8255 69.6345 37.8423 72.5101C36.8888 72.7144 35.7493 72.8951 34.4279 73.0051H34.4239ZM33.4151 73.0718C32.8453 73.0993 32.2479 73.119 31.6149 73.119C30.9818 73.119 30.3844 73.1033 29.8147 73.0718C30.2578 68.7899 31.1599 66.5979 31.6149 66.5979C32.0699 66.5979 32.9719 68.7899 33.4151 73.0758V73.0718ZM30.1747 66.8336C29.4784 68.2242 29.0511 70.5852 28.8098 73.0011C27.4883 72.8911 26.3528 72.7104 25.3954 72.5022C26.4122 69.6306 28.1372 67.5171 30.1747 66.8336ZM28.7188 74.0107C28.608 75.4092 28.5526 76.7763 28.5407 77.9352H24.426C24.4656 76.3481 24.699 74.8436 25.0828 73.4804C26.0956 73.7004 27.3063 73.8968 28.7148 74.0147L28.7188 74.0107ZM23.4092 77.9352H19.6981C19.7851 75.8767 20.4063 73.9479 21.4231 72.2901C21.8939 72.5179 22.7802 72.8911 24.1056 73.2447C23.6941 74.6903 23.4528 76.2735 23.4092 77.9391V77.9352ZM23.4092 78.9487C23.4488 80.6143 23.6941 82.1975 24.1056 83.6431C22.7802 83.9967 21.8939 84.3699 21.4231 84.5977C20.4023 82.9399 19.7851 81.0111 19.6981 78.9526H23.4092V78.9487ZM24.43 78.9487H28.5447C28.5566 80.1076 28.608 81.4747 28.7227 82.8732C27.3142 82.991 26.1036 83.1835 25.0907 83.4074C24.7069 82.0403 24.4735 80.5358 24.4339 78.9526L24.43 78.9487ZM28.8098 83.8828C29.0511 86.2987 29.4784 88.6636 30.1747 90.0503C28.1332 89.3668 26.4082 87.2533 25.3914 84.3777C26.3449 84.1735 27.4844 83.9928 28.8058 83.8828H28.8098ZM29.8187 83.816C30.3884 83.7845 30.9858 83.7688 31.6188 83.7688C32.2519 83.7688 32.8493 83.7845 33.419 83.816C32.9759 88.0979 32.0738 90.2899 31.6188 90.2899C31.1638 90.2899 30.2618 88.0979 29.8187 83.812V83.816ZM33.059 90.0542C33.7553 88.6636 34.1826 86.3026 34.4239 83.8867C35.7454 83.9967 36.8809 84.1774 37.8383 84.3856C36.8215 87.2572 35.0965 89.3707 33.059 90.0542ZM34.5149 82.8771C34.6257 81.4786 34.6811 80.1115 34.693 78.9526H38.8077C38.7681 80.5397 38.5347 82.0443 38.1509 83.4074C37.1381 83.1874 35.9274 82.991 34.5189 82.8732L34.5149 82.8771ZM39.8245 78.9526H43.5356C43.4486 81.015 42.8274 82.9399 41.8106 84.5977C41.3398 84.3699 40.4535 83.9967 39.1281 83.6431C39.5396 82.1975 39.781 80.6143 39.8245 78.9487V78.9526ZM39.8245 77.9391C39.7849 76.2735 39.5396 74.6903 39.1281 73.2447C40.4535 72.8911 41.3398 72.5179 41.8106 72.2901C42.8314 73.9479 43.4486 75.8767 43.5356 77.9352H39.8245V77.9391ZM41.233 71.4416C40.778 71.6498 39.9788 71.968 38.8235 72.2744C38.1034 70.2198 37.0312 68.5071 35.7375 67.3286C37.9531 68.1417 39.8561 69.5874 41.233 71.4416ZM27.4962 67.3286C26.2025 68.5071 25.1342 70.2198 24.4142 72.2744C23.2589 71.968 22.4597 71.6498 22.0047 71.4455C23.3815 69.5913 25.2846 68.1417 27.5002 67.3325L27.4962 67.3286ZM22.0007 85.4502C22.4557 85.242 23.2549 84.9238 24.4102 84.6174C25.1303 86.6719 26.2025 88.3847 27.4962 89.5632C25.2806 88.75 23.3776 87.3044 22.0007 85.4502ZM35.7375 89.5632C37.0312 88.3847 38.0995 86.6719 38.8195 84.6213C39.9748 84.9277 40.774 85.2459 41.229 85.4502C39.8522 87.3044 37.9491 88.75 35.7335 89.5632H35.7375Z" fill="url(#paint3_linear_171_11053)"/>
<path style="mix-blend-mode:multiply" d="M90.1385 156C135.485 156 172.246 153.626 172.246 150.697C172.246 147.768 135.485 145.393 90.1385 145.393C44.7915 145.393 8.03058 147.768 8.03058 150.697C8.03058 153.626 44.7915 156 90.1385 156Z" fill="url(#paint4_radial_171_11053)"/>
<path d="M132.35 28.579C132.35 28.579 114.593 19.0448 90.1385 17.8074C65.6837 19.0448 47.9273 28.579 47.9273 28.579C47.9273 28.579 45.047 47.7338 30.329 47.7338C30.329 136.731 90.1385 145.393 90.1385 145.393C90.1385 145.393 149.948 136.731 149.948 47.7338C135.23 47.7338 132.35 28.579 132.35 28.579Z" fill="url(#paint5_linear_171_11053)"/>
<path style="mix-blend-mode:multiply" d="M131.44 29.7221C131.44 29.7221 114.063 20.3962 90.1384 19.1862C66.2139 20.3962 48.8372 29.7221 48.8372 29.7221C48.8372 29.7221 46.0203 48.4645 31.6188 48.4645C31.6188 135.545 90.1384 144.018 90.1384 144.018C90.1384 144.018 148.658 135.545 148.658 48.4645C134.257 48.4645 131.44 29.7221 131.44 29.7221Z" fill="url(#paint6_linear_171_11053)"/>
<path style="mix-blend-mode:multiply" d="M130.371 31.0656C130.371 31.0656 113.446 21.9793 90.1385 20.8008C66.8311 21.9793 49.9055 31.0656 49.9055 31.0656C49.9055 31.0656 47.1597 49.3208 33.1342 49.3208C33.1342 134.146 90.1385 142.404 90.1385 142.404C90.1385 142.404 147.143 134.15 147.143 49.3208C133.113 49.3208 130.371 31.0656 130.371 31.0656Z" fill="url(#paint7_linear_171_11053)"/>
<path style="mix-blend-mode:multiply" d="M126.807 35.5401C126.807 35.5401 111.381 27.2591 90.1384 26.1827C68.8964 27.2591 53.4702 35.5401 53.4702 35.5401C53.4702 35.5401 50.9697 52.1807 38.1826 52.1807C38.1826 129.495 90.1384 137.022 90.1384 137.022C90.1384 137.022 142.094 129.499 142.094 52.1807C129.307 52.1807 126.807 35.5401 126.807 35.5401Z" fill="url(#paint8_linear_171_11053)"/>
<path d="M125.79 36.8168C125.79 36.8168 110.791 28.7636 90.1385 27.7187C69.4859 28.7636 54.487 36.8168 54.487 36.8168C54.487 36.8168 52.0538 52.9939 39.6227 52.9939C39.6227 128.163 90.1385 135.478 90.1385 135.478C90.1385 135.478 140.654 128.163 140.654 52.9939C128.223 52.9939 125.79 36.8168 125.79 36.8168Z" fill="url(#paint9_linear_171_11053)"/>
<path d="M90.1385 133.942V29.2586C70.0754 30.2721 55.5038 38.0935 55.5038 38.0935C55.5038 38.0935 53.1418 53.811 41.0668 53.811C41.0668 126.836 90.1385 133.942 90.1385 133.942Z" fill="url(#paint10_linear_171_11053)"/>
<path d="M90.1384 133.942V29.2586C110.202 30.2721 124.773 38.0935 124.773 38.0935C124.773 38.0935 127.135 53.811 139.21 53.811C139.21 126.836 90.1384 133.942 90.1384 133.942Z" fill="url(#paint11_linear_171_11053)"/>
<path style="mix-blend-mode:screen" d="M121.022 111.425C129.778 100.056 136.979 82.4057 136.979 55.0799C125.454 55.0799 123.198 40.0813 123.198 40.0813C123.198 40.0813 109.292 32.6174 90.1424 31.6471C70.9933 32.6174 57.0864 40.0813 57.0864 40.0813C57.0864 40.0813 54.8312 55.0799 43.3062 55.0799C43.3062 63.2155 43.9511 70.4831 45.0786 76.9924C62.6412 98.6417 100.425 110.812 121.026 111.425H121.022Z" fill="url(#paint12_linear_171_11053)"/>
<path style="mix-blend-mode:multiply" d="M133.497 103.98C124.429 103.98 117.05 111.307 117.05 120.311C117.05 129.314 124.429 136.641 133.497 136.641C142.565 136.641 149.944 129.314 149.944 120.311C149.944 111.307 142.565 103.98 133.497 103.98ZM137.402 119.67C137.386 118.201 137.319 116.465 137.176 114.689C138.969 114.54 140.504 114.292 141.79 114.013C142.276 115.75 142.573 117.659 142.624 119.67H137.402ZM130.89 119.67C130.906 117.875 130.981 116.241 131.095 114.776C131.855 114.815 132.654 114.838 133.497 114.838C134.34 114.838 135.139 114.815 135.899 114.776C136.017 116.241 136.092 117.875 136.104 119.67H130.89ZM136.104 120.959C136.088 122.754 136.013 124.388 135.899 125.854C135.139 125.814 134.34 125.791 133.497 125.791C132.654 125.791 131.855 125.814 131.095 125.854C130.977 124.388 130.902 122.754 130.89 120.959H136.104ZM137.062 113.408C136.753 110.344 136.211 107.339 135.325 105.575C137.916 106.447 140.108 109.127 141.398 112.78C140.183 113.039 138.739 113.271 137.062 113.408ZM135.78 113.495C135.056 113.534 134.296 113.554 133.497 113.554C132.698 113.554 131.934 113.534 131.214 113.495C131.776 108.058 132.923 105.273 133.497 105.273C134.071 105.273 135.218 108.058 135.78 113.495ZM131.665 105.575C130.779 107.339 130.237 110.34 129.928 113.408C128.251 113.267 126.807 113.035 125.592 112.776C126.882 109.127 129.074 106.447 131.661 105.579L131.665 105.575ZM129.814 114.693C129.671 116.469 129.604 118.205 129.588 119.674H124.366C124.417 117.663 124.71 115.75 125.2 114.017C126.486 114.3 128.021 114.544 129.814 114.693ZM123.072 119.674H118.36C118.47 117.058 119.258 114.611 120.552 112.505C121.149 112.792 122.277 113.267 123.958 113.715C123.436 115.549 123.127 117.561 123.076 119.674H123.072ZM123.072 120.963C123.123 123.076 123.436 125.088 123.954 126.922C122.273 127.37 121.145 127.845 120.548 128.132C119.254 126.026 118.467 123.579 118.356 120.963H123.068H123.072ZM124.366 120.963H129.588C129.604 122.432 129.671 124.168 129.814 125.944C128.021 126.093 126.486 126.341 125.2 126.62C124.714 124.883 124.417 122.974 124.366 120.963ZM129.928 127.229C130.237 130.293 130.779 133.298 131.665 135.062C129.074 134.19 126.882 131.51 125.592 127.857C126.807 127.598 128.251 127.366 129.928 127.229ZM131.21 127.142C131.934 127.103 132.694 127.083 133.493 127.083C134.292 127.083 135.052 127.103 135.776 127.142C135.214 132.579 134.067 135.364 133.493 135.364C132.919 135.364 131.772 132.579 131.21 127.142ZM135.325 135.062C136.211 133.298 136.753 130.297 137.062 127.229C138.739 127.37 140.183 127.602 141.398 127.861C140.108 131.51 137.916 134.19 135.329 135.058L135.325 135.062ZM137.176 125.944C137.319 124.168 137.386 122.432 137.402 120.963H142.624C142.573 122.978 142.28 124.887 141.79 126.62C140.504 126.337 138.969 126.093 137.176 125.944ZM143.918 120.963H148.63C148.52 123.579 147.732 126.026 146.438 128.132C145.841 127.845 144.713 127.37 143.032 126.922C143.554 125.088 143.863 123.076 143.914 120.963H143.918ZM143.918 119.674C143.867 117.561 143.554 115.549 143.036 113.715C144.717 113.267 145.845 112.792 146.442 112.505C147.736 114.611 148.524 117.058 148.634 119.674H143.922H143.918ZM145.707 111.425C145.129 111.688 144.116 112.092 142.644 112.481C141.73 109.873 140.369 107.697 138.727 106.2C141.536 107.229 143.958 109.068 145.707 111.425ZM128.263 106.2C126.621 107.697 125.264 109.869 124.346 112.477C122.878 112.089 121.861 111.684 121.283 111.421C123.028 109.064 125.45 107.229 128.259 106.196L128.263 106.2ZM121.283 129.212C121.861 128.949 122.874 128.545 124.346 128.156C125.264 130.764 126.621 132.94 128.263 134.437C125.45 133.408 123.032 131.569 121.283 129.212ZM138.727 134.437C140.369 132.94 141.726 130.768 142.644 128.16C144.112 128.548 145.129 128.953 145.707 129.216C143.962 131.573 141.54 133.408 138.731 134.441L138.727 134.437Z" fill="url(#paint13_linear_171_11053)"/>
<path style="mix-blend-mode:multiply" d="M152.231 110.211H150.213C150.213 106.817 147.432 104.055 144.013 104.055V102.052C148.543 102.052 152.231 105.713 152.231 110.211ZM144.013 97.7578V99.7613C149.817 99.7613 154.537 104.448 154.537 110.211H156.555C156.555 103.344 150.929 97.7578 144.013 97.7578ZM144.013 93.4641V95.4676C152.199 95.4676 158.862 102.079 158.862 110.211H160.879C160.879 100.975 153.315 93.4641 144.013 93.4641Z" fill="url(#paint14_linear_171_11053)"/>
<g filter="url(#filter0_d_171_11053)">
<path d="M90.0039 81.6357C88.0574 81.6357 86.4036 82.8142 85.7626 84.4524L88.0455 86.9469C88.0732 86.9822 88.0969 87.0137 88.1286 87.0451C88.5994 87.5597 89.2839 87.8543 90.0039 87.8543C90.724 87.8543 91.4085 87.5597 91.8793 87.0451C91.9109 87.0137 91.9386 86.9783 91.9624 86.9469L94.2413 84.4524C93.6003 82.8103 91.9505 81.6357 90 81.6357H90.0039Z" fill="url(#paint15_linear_171_11053)"/>
<path d="M90.0039 75.4171C86.4392 75.4171 83.2424 76.957 81.1138 79.373L83.6301 82.1228C84.9714 80.1154 87.3215 78.768 90.0039 78.768C92.6864 78.768 95.0365 80.1154 96.3778 82.1228L98.894 79.373C96.7655 76.9609 93.5726 75.4171 90.0039 75.4171Z" fill="url(#paint16_linear_171_11053)"/>
<path d="M79.1237 77.1888C81.8022 74.3446 85.6835 72.5415 90.0079 72.5415C94.3323 72.5415 98.2135 74.3446 100.892 77.1888L102.534 75.3935C103.064 74.816 103.021 73.944 102.435 73.4136C99.0879 70.3848 94.6725 68.7153 90.0118 68.7153C85.3512 68.7153 80.9358 70.3848 77.5886 73.4136C77.0031 73.94 76.9596 74.816 77.4897 75.3935L79.1316 77.1888H79.1237Z" fill="url(#paint17_linear_171_11053)"/>
<path d="M97.8139 96.9329C94.906 98.7792 92.2947 101.042 90.0633 103.643C85.1652 97.9307 78.4155 93.8334 70.7401 92.2463C75.0486 89.7125 80.0021 88.2236 85.2048 88.0743L81.0663 84.7038C77.7073 84.802 74.4908 85.6663 71.6144 87.1433C71.5907 87.1551 71.563 87.1669 71.5393 87.1826C71.3177 87.2965 71.1001 87.4144 70.8864 87.5362C70.8864 87.5362 70.8785 87.5401 70.8746 87.544C70.6768 87.654 70.4829 87.7679 70.289 87.8819C69.569 88.3061 68.8251 88.7815 68.0457 89.3196C66.2614 90.5414 64.9558 92.3406 64.3346 94.399L64.3227 94.4423C64.0933 95.2044 64.5403 95.99 65.3237 96.1707C74.1861 98.1899 82.0713 102.747 88.1642 109.028C89.1968 110.093 90.9218 110.101 91.9545 109.036C96.8644 103.973 102.945 100.036 109.758 97.64L109.691 97.5889C106.269 94.898 101.489 94.6073 97.81 96.9407L97.8139 96.9329Z" fill="url(#paint18_linear_171_11053)"/>
<path d="M113.841 65.2936C105.43 63.188 97.9366 58.7804 92.085 52.7896C90.9812 51.6582 89.1493 51.6582 88.0455 52.7896C82.19 58.7804 74.7004 63.1841 66.2891 65.2936C64.9083 65.6393 64.0853 67.0732 64.4849 68.4324C65.6639 72.4747 66.297 76.7488 66.297 81.1722C66.297 82.496 66.2376 83.8081 66.1268 85.1005C67.7213 83.9731 69.4423 83.0617 71.2465 82.39C71.7885 82.1896 72.1564 81.6907 72.1564 81.1172V81.0936C72.1564 77.5777 71.6263 74.1875 70.6372 70.9898C70.4037 70.2316 70.8627 69.4381 71.6382 69.2574C78.4393 67.6625 84.461 64.0837 89.0623 59.1693C89.6043 58.5918 90.5262 58.5918 91.0642 59.1693C95.6616 64.0837 101.687 67.6625 108.488 69.2574C109.264 69.4381 109.723 70.2355 109.489 70.9898C108.504 74.1836 107.97 77.5777 107.97 81.0936C107.97 83.1599 108.16 85.1791 108.512 87.1472C105.636 85.6702 102.419 84.8059 99.0602 84.7077L94.9218 88.0783C100.192 88.2315 105.529 89.5514 109.885 91.9477C110.083 92.0577 110.269 92.1441 110.443 92.2227C111.064 92.5409 111.669 92.8709 112.255 93.2048C113.644 94.0023 115.297 92.7687 114.945 91.2131C114.217 87.984 113.834 84.6252 113.834 81.1761C113.834 76.7527 114.467 72.4787 115.646 68.4363C116.041 67.0771 115.222 65.6472 113.841 65.2976V65.2936Z" fill="url(#paint19_linear_171_11053)"/>
</g>
</g>
<defs>
<filter id="filter0_d_171_11053" x="62.2626" y="49.9411" width="59.4827" height="65.8896" filterUnits="userSpaceOnUse" color-interpolation-filters="sRGB">
<feFlood flood-opacity="0" result="BackgroundImageFix"/>
<feColorMatrix in="SourceAlpha" type="matrix" values="0 0 0 0 0 0 0 0 0 0 0 0 0 0 0 0 0 0 127 0" result="hardAlpha"/>
<feOffset dx="2" dy="2"/>
<feGaussianBlur stdDeviation="2"/>
<feColorMatrix type="matrix" values="0 0 0 0 0.00784314 0 0 0 0 0.372549 0 0 0 0 0.647059 0 0 0 0.75 0"/>
<feBlend mode="normal" in2="BackgroundImageFix" result="effect1_dropShadow_171_11053"/>
<feBlend mode="normal" in="SourceGraphic" in2="effect1_dropShadow_171_11053" result="shape"/>
</filter>
<linearGradient id="paint0_linear_171_11053" x1="65.6006" y1="54.3099" x2="175" y2="54.3099" gradientUnits="userSpaceOnUse">
<stop stop-color="#ADD1F4"/>
<stop offset="0.08" stop-color="#8CB4E3"/>
<stop offset="0.2" stop-color="#5685C8"/>
<stop offset="0.28" stop-color="#5C8ACA"/>
<stop offset="0.38" stop-color="#6D98D1"/>
<stop offset="0.5" stop-color="#8AB0DD"/>
<stop offset="0.63" stop-color="#B1D1EE"/>
<stop offset="0.67" stop-color="#BFDDF4"/>
<stop offset="0.79" stop-color="#94BCE2"/>
<stop offset="0.93" stop-color="#6A9BD0"/>
<stop offset="1" stop-color="#5A8FCA"/>
</linearGradient>
<linearGradient id="paint1_linear_171_11053" x1="1" y1="78.4184" x2="62.2377" y2="78.4184" gradientUnits="userSpaceOnUse">
<stop stop-color="#ADD1F4"/>
<stop offset="0.08" stop-color="#8CB4E3"/>
<stop offset="0.2" stop-color="#5685C8"/>
<stop offset="0.28" stop-color="#5C8ACA"/>
<stop offset="0.38" stop-color="#6D98D1"/>
<stop offset="0.5" stop-color="#8AB0DD"/>
<stop offset="0.63" stop-color="#B1D1EE"/>
<stop offset="0.67" stop-color="#BFDDF4"/>
<stop offset="0.79" stop-color="#94BCE2"/>
<stop offset="0.93" stop-color="#6A9BD0"/>
<stop offset="1" stop-color="#5A8FCA"/>
</linearGradient>
<linearGradient id="paint2_linear_171_11053" x1="49.3001" y1="137.592" x2="49.3001" y2="78.4184" gradientUnits="userSpaceOnUse">
<stop stop-color="white" stop-opacity="0.5"/>
<stop offset="1" stop-color="white"/>
</linearGradient>
<linearGradient id="paint3_linear_171_11053" x1="31.6188" y1="91.3074" x2="31.6188" y2="65.5844" gradientUnits="userSpaceOnUse">
<stop stop-color="#ADD1F4"/>
<stop offset="0.08" stop-color="#8CB4E3"/>
<stop offset="0.2" stop-color="#5685C8"/>
<stop offset="0.28" stop-color="#5C8ACA"/>
<stop offset="0.38" stop-color="#6D98D1"/>
<stop offset="0.5" stop-color="#8AB0DD"/>
<stop offset="0.63" stop-color="#B1D1EE"/>
<stop offset="0.67" stop-color="#BFDDF4"/>
<stop offset="0.79" stop-color="#94BCE2"/>
<stop offset="0.93" stop-color="#6A9BD0"/>
<stop offset="1" stop-color="#5A8FCA"/>
</linearGradient>
<radialGradient id="paint4_radial_171_11053" cx="0" cy="0" r="1" gradientUnits="userSpaceOnUse" gradientTransform="translate(89.2429 150.582) scale(78.6609 4.49156)">
<stop stop-color="#0E2639"/>
<stop offset="0.5" stop-color="#0E2639" stop-opacity="0.149733"/>
<stop offset="1" stop-color="#0E2639" stop-opacity="0"/>
</radialGradient>
<linearGradient id="paint5_linear_171_11053" x1="30.329" y1="81.6004" x2="149.948" y2="81.6004" gradientUnits="userSpaceOnUse">
<stop stop-color="#CEDDEC"/>
<stop offset="0.24" stop-color="#E3EBF1"/>
<stop offset="0.41" stop-color="#EDF1F4"/>
<stop offset="0.48" stop-color="#E4EBF1"/>
<stop offset="0.6" stop-color="#CCDAE9"/>
<stop offset="0.75" stop-color="#A4C0DC"/>
<stop offset="0.77" stop-color="#9EBCDA"/>
<stop offset="1" stop-color="#CEDDEC"/>
</linearGradient>
<linearGradient id="paint6_linear_171_11053" x1="31.6188" y1="81.6004" x2="148.658" y2="81.6004" gradientUnits="userSpaceOnUse">
<stop stop-color="#9EBCDA"/>
<stop offset="0.06" stop-color="#7DA9CF"/>
<stop offset="0.2" stop-color="#2A7CB5"/>
<stop offset="0.23" stop-color="#307FB7"/>
<stop offset="0.27" stop-color="#4189BC"/>
<stop offset="0.31" stop-color="#5E9AC6"/>
<stop offset="0.35" stop-color="#85B2D3"/>
<stop offset="0.4" stop-color="#B8D0E4"/>
<stop offset="0.42" stop-color="#CEDDEC"/>
<stop offset="0.47" stop-color="#A9C7DF"/>
<stop offset="0.57" stop-color="#659FC8"/>
<stop offset="0.64" stop-color="#3A85BA"/>
<stop offset="0.67" stop-color="#2A7CB5"/>
<stop offset="0.7" stop-color="#3884B9"/>
<stop offset="0.75" stop-color="#5D9AC6"/>
<stop offset="0.81" stop-color="#98BDDA"/>
<stop offset="0.86" stop-color="#CEDDEC"/>
<stop offset="0.88" stop-color="#CADAEA"/>
<stop offset="0.9" stop-color="#BED3E6"/>
<stop offset="0.92" stop-color="#AAC7E0"/>
<stop offset="0.94" stop-color="#8EB6D6"/>
<stop offset="0.96" stop-color="#6A9FCA"/>
<stop offset="0.98" stop-color="#3F84BC"/>
<stop offset="1" stop-color="#005EA7"/>
</linearGradient>
<linearGradient id="paint7_linear_171_11053" x1="33.1342" y1="-2.78541e-07" x2="147.143" y2="-2.78541e-07" gradientUnits="userSpaceOnUse">
<stop stop-color="#9EBCDA"/>
<stop offset="0.06" stop-color="#7DA9CF"/>
<stop offset="0.2" stop-color="#2A7CB5"/>
<stop offset="0.23" stop-color="#307FB7"/>
<stop offset="0.27" stop-color="#4189BC"/>
<stop offset="0.31" stop-color="#5E9AC6"/>
<stop offset="0.35" stop-color="#85B2D3"/>
<stop offset="0.4" stop-color="#B8D0E4"/>
<stop offset="0.42" stop-color="#CEDDEC"/>
<stop offset="0.47" stop-color="#A9C7DF"/>
<stop offset="0.57" stop-color="#659FC8"/>
<stop offset="0.64" stop-color="#3A85BA"/>
<stop offset="0.67" stop-color="#2A7CB5"/>
<stop offset="0.7" stop-color="#3884B9"/>
<stop offset="0.75" stop-color="#5D9AC6"/>
<stop offset="0.81" stop-color="#98BDDA"/>
<stop offset="0.86" stop-color="#CEDDEC"/>
<stop offset="0.88" stop-color="#CADAEA"/>
<stop offset="0.9" stop-color="#BED3E6"/>
<stop offset="0.92" stop-color="#AAC7E0"/>
<stop offset="0.94" stop-color="#8EB6D6"/>
<stop offset="0.96" stop-color="#6A9FCA"/>
<stop offset="0.98" stop-color="#3F84BC"/>
<stop offset="1" stop-color="#005EA7"/>
</linearGradient>
<linearGradient id="paint8_linear_171_11053" x1="38.1826" y1="1.16867e-05" x2="142.094" y2="1.16867e-05" gradientUnits="userSpaceOnUse">
<stop stop-color="#9EBCDA"/>
<stop offset="0.06" stop-color="#7DA9CF"/>
<stop offset="0.2" stop-color="#2A7CB5"/>
<stop offset="0.23" stop-color="#307FB7"/>
<stop offset="0.27" stop-color="#4189BC"/>
<stop offset="0.31" stop-color="#5E9AC6"/>
<stop offset="0.35" stop-color="#85B2D3"/>
<stop offset="0.4" stop-color="#B8D0E4"/>
<stop offset="0.42" stop-color="#CEDDEC"/>
<stop offset="0.47" stop-color="#A9C7DF"/>
<stop offset="0.57" stop-color="#659FC8"/>
<stop offset="0.64" stop-color="#3A85BA"/>
<stop offset="0.67" stop-color="#2A7CB5"/>
<stop offset="0.7" stop-color="#3884B9"/>
<stop offset="0.75" stop-color="#5D9AC6"/>
<stop offset="0.81" stop-color="#98BDDA"/>
<stop offset="0.86" stop-color="#CEDDEC"/>
<stop offset="0.88" stop-color="#CADAEA"/>
<stop offset="0.9" stop-color="#BED3E6"/>
<stop offset="0.92" stop-color="#AAC7E0"/>
<stop offset="0.94" stop-color="#8EB6D6"/>
<stop offset="0.96" stop-color="#6A9FCA"/>
<stop offset="0.98" stop-color="#3F84BC"/>
<stop offset="1" stop-color="#005EA7"/>
</linearGradient>
<linearGradient id="paint9_linear_171_11053" x1="39.6227" y1="81.6004" x2="140.654" y2="81.6004" gradientUnits="userSpaceOnUse">
<stop stop-color="#D0E7FD"/>
<stop offset="0.06" stop-color="#D8EAFC"/>
<stop offset="0.28" stop-color="#F0F5FA"/>
<stop offset="0.41" stop-color="#FAFAFA"/>
<stop offset="0.52" stop-color="#F1F5FA"/>
<stop offset="0.71" stop-color="#D9EBFC"/>
<stop offset="0.77" stop-color="#D0E7FD"/>
<stop offset="1" stop-color="#FAFAFA"/>
</linearGradient>
<linearGradient id="paint10_linear_171_11053" x1="41.0668" y1="81.6004" x2="90.1385" y2="81.6004" gradientUnits="userSpaceOnUse">
<stop stop-color="#CEDDEC"/>
<stop offset="0.36" stop-color="#A5C2DD"/>
<stop offset="0.78" stop-color="#7BA6CE"/>
<stop offset="1" stop-color="#6B9CC9"/>
</linearGradient>
<linearGradient id="paint11_linear_171_11053" x1="90.1384" y1="1.56382e-05" x2="139.21" y2="1.56382e-05" gradientUnits="userSpaceOnUse">
<stop stop-color="#CEDDEC"/>
<stop offset="0.36" stop-color="#A5C2DD"/>
<stop offset="0.78" stop-color="#7BA6CE"/>
<stop offset="1" stop-color="#6B9CC9"/>
</linearGradient>
<linearGradient id="paint12_linear_171_11053" x1="43.3022" y1="71.5319" x2="136.975" y2="71.5319" gradientUnits="userSpaceOnUse">
<stop stop-color="#FAFAFA" stop-opacity="0.98"/>
<stop offset="0.08" stop-color="#FAFAFA" stop-opacity="0.78"/>
<stop offset="0.16" stop-color="#FAFAFA" stop-opacity="0.6"/>
<stop offset="0.25" stop-color="#FAFAFA" stop-opacity="0.44"/>
<stop offset="0.34" stop-color="#FAFAFA" stop-opacity="0.3"/>
<stop offset="0.44" stop-color="#FAFAFA" stop-opacity="0.19"/>
<stop offset="0.54" stop-color="#FAFAFA" stop-opacity="0.11"/>
<stop offset="0.66" stop-color="#FAFAFA" stop-opacity="0.05"/>
<stop offset="0.79" stop-color="#FAFAFA" stop-opacity="0.01"/>
<stop offset="1" stop-color="#FAFAFA" stop-opacity="0"/>
</linearGradient>
<linearGradient id="paint13_linear_171_11053" x1="133.497" y1="136.645" x2="133.497" y2="103.98" gradientUnits="userSpaceOnUse">
<stop stop-color="#ADD1F4"/>
<stop offset="0.08" stop-color="#8CB4E3"/>
<stop offset="0.2" stop-color="#5685C8"/>
<stop offset="0.28" stop-color="#5C8ACA"/>
<stop offset="0.38" stop-color="#6D98D1"/>
<stop offset="0.5" stop-color="#8AB0DD"/>
<stop offset="0.63" stop-color="#B1D1EE"/>
<stop offset="0.67" stop-color="#BFDDF4"/>
<stop offset="0.79" stop-color="#94BCE2"/>
<stop offset="0.93" stop-color="#6A9BD0"/>
<stop offset="1" stop-color="#5A8FCA"/>
</linearGradient>
<linearGradient id="paint14_linear_171_11053" x1="144.017" y1="101.835" x2="160.879" y2="101.835" gradientUnits="userSpaceOnUse">
<stop stop-color="#ADD1F4"/>
<stop offset="0.08" stop-color="#8CB4E3"/>
<stop offset="0.2" stop-color="#5685C8"/>
<stop offset="0.24" stop-color="#5C8ACA"/>
<stop offset="0.29" stop-color="#6D98D1"/>
<stop offset="0.34" stop-color="#8AB0DD"/>
<stop offset="0.4" stop-color="#B1D1EE"/>
<stop offset="0.42" stop-color="#BFDDF4"/>
<stop offset="0.52" stop-color="#94BCE2"/>
<stop offset="0.63" stop-color="#6A9BD0"/>
<stop offset="0.69" stop-color="#5A8FCA"/>
<stop offset="0.72" stop-color="#6899CF"/>
<stop offset="0.79" stop-color="#8DB6DF"/>
<stop offset="0.86" stop-color="#BFDDF4"/>
<stop offset="0.89" stop-color="#BBD9F2"/>
<stop offset="0.92" stop-color="#AFD0ED"/>
<stop offset="0.94" stop-color="#9BC1E5"/>
<stop offset="0.97" stop-color="#7FACD9"/>
<stop offset="1" stop-color="#5A8FCA"/>
</linearGradient>
<linearGradient id="paint15_linear_171_11053" x1="63.658" y1="84.9984" x2="111.475" y2="84.5362" gradientUnits="userSpaceOnUse">
<stop stop-color="#6B9CC9"/>
<stop offset="0.53" stop-color="#CEDDEC"/>
<stop offset="0.62" stop-color="#CADAEA"/>
<stop offset="0.72" stop-color="#BED2E6"/>
<stop offset="0.81" stop-color="#AAC5DF"/>
<stop offset="0.91" stop-color="#8EB3D5"/>
<stop offset="1" stop-color="#6B9CC9"/>
</linearGradient>
<linearGradient id="paint16_linear_171_11053" x1="63.6027" y1="79.0508" x2="111.42" y2="78.5886" gradientUnits="userSpaceOnUse">
<stop stop-color="#6B9CC9"/>
<stop offset="0.53" stop-color="#CEDDEC"/>
<stop offset="0.62" stop-color="#CADAEA"/>
<stop offset="0.72" stop-color="#BED2E6"/>
<stop offset="0.81" stop-color="#AAC5DF"/>
<stop offset="0.91" stop-color="#8EB3D5"/>
<stop offset="1" stop-color="#6B9CC9"/>
</linearGradient>
<linearGradient id="paint17_linear_171_11053" x1="63.5433" y1="73.2565" x2="111.361" y2="72.7943" gradientUnits="userSpaceOnUse">
<stop stop-color="#6B9CC9"/>
<stop offset="0.53" stop-color="#CEDDEC"/>
<stop offset="0.62" stop-color="#CADAEA"/>
<stop offset="0.72" stop-color="#BED2E6"/>
<stop offset="0.81" stop-color="#AAC5DF"/>
<stop offset="0.91" stop-color="#8EB3D5"/>
<stop offset="1" stop-color="#6B9CC9"/>
</linearGradient>
<linearGradient id="paint18_linear_171_11053" x1="63.7807" y1="97.471" x2="111.598" y2="97.0048" gradientUnits="userSpaceOnUse">
<stop stop-color="#6B9CC9"/>
<stop offset="0.53" stop-color="#CEDDEC"/>
<stop offset="0.62" stop-color="#CADAEA"/>
<stop offset="0.72" stop-color="#BED2E6"/>
<stop offset="0.81" stop-color="#AAC5DF"/>
<stop offset="0.91" stop-color="#8EB3D5"/>
<stop offset="1" stop-color="#6B9CC9"/>
</linearGradient>
<linearGradient id="paint19_linear_171_11053" x1="63.5433" y1="73.0561" x2="111.361" y2="72.5939" gradientUnits="userSpaceOnUse">
<stop stop-color="#6B9CC9"/>
<stop offset="0.53" stop-color="#CEDDEC"/>
<stop offset="0.62" stop-color="#CADAEA"/>
<stop offset="0.72" stop-color="#BED2E6"/>
<stop offset="0.81" stop-color="#AAC5DF"/>
<stop offset="0.91" stop-color="#8EB3D5"/>
<stop offset="1" stop-color="#6B9CC9"/>
</linearGradient>
<clipPath id="clip0_171_11053">
<rect width="174" height="156" fill="white" transform="translate(1)"/>
</clipPath>
</defs>
</svg>
