<svg width="108" height="108" viewBox="0 0 108 108" fill="none" xmlns="http://www.w3.org/2000/svg">
<g clip-path="url(#clip0_9_1112)">
<path d="M53.6174 55.9285C49.8967 55.9285 46.7398 58.1173 45.5143 61.1677L49.8746 65.8073C49.925 65.8712 49.9754 65.9321 50.0321 65.993C50.9332 66.9519 52.2407 67.4999 53.6143 67.4999C54.9879 67.4999 56.2954 66.9519 57.1964 65.993C57.2531 65.9321 57.3067 65.8712 57.3571 65.8073L61.7143 61.1677C60.4887 58.1173 57.3351 55.9285 53.6111 55.9285H53.6174Z" fill="#DDA923"/>
<path d="M53.2286 44.3572C46.4192 44.3572 40.3182 47.1935 36.2571 51.6393L41.058 56.7C43.6174 53.0017 48.1035 50.5241 53.2286 50.5241C58.3537 50.5241 62.8366 53.0017 65.3991 56.7L70.2 51.6393C66.1358 47.1935 60.0379 44.3572 53.2286 44.3572Z" fill="#205EA4"/>
<path d="M33.1046 47.443C38.1536 42.2693 45.4645 38.9851 53.6143 38.9851C61.7641 38.9851 69.075 42.2693 74.1239 47.443L77.2154 44.1767C78.2159 43.1246 78.132 41.5362 77.029 40.5706C70.7186 35.0542 62.401 32.0144 53.6143 32.0144C44.8275 32.0144 36.51 35.0542 30.1996 40.5706C29.0966 41.5332 29.0127 43.1246 30.0131 44.1767L33.1046 47.443Z" fill="#205EA4"/>
<path d="M68.3411 84.2372C62.8179 87.693 57.8584 91.9337 53.6252 96.803C44.3198 86.1046 31.5076 78.4296 16.9326 75.4583C25.114 70.7116 34.5259 67.9274 44.4012 67.6422L36.5423 61.3286C30.1644 61.5126 24.0557 63.1316 18.5952 65.8974C18.5952 65.8974 18.5952 65.8944 18.5952 65.8913C18.5482 65.9159 18.5012 65.9434 18.4543 65.9649C18.0347 66.1796 17.6214 66.4003 17.2113 66.6272C17.205 66.6303 17.1987 66.6334 17.1925 66.6395C16.8199 66.848 16.4473 67.0565 16.081 67.2742C14.7158 68.0684 13.3037 68.9638 11.8165 69.9634C8.42871 72.2509 5.94893 75.6208 4.76853 79.4813L4.74348 79.5641C4.30513 80.9961 5.15991 82.4649 6.64402 82.7991C23.4733 86.5799 38.4459 95.1135 50.0183 106.882C51.9814 108.878 55.2533 108.891 57.2165 106.897C66.5439 97.4102 78.0911 90.0387 91.0286 85.5465L90.9033 85.4484C84.4033 80.4073 75.3264 79.8615 68.3379 84.2341L68.3411 84.2372Z" fill="#DDA923"/>
<path d="M98.9604 25.1989C82.917 21.2831 68.6315 13.0985 57.4653 1.96257C55.3585 -0.139867 51.8681 -0.139867 49.7612 1.96257C38.595 13.0985 24.3063 21.2831 8.26301 25.1989C5.6279 25.8409 4.06193 28.5032 4.81976 31.0285C7.07124 38.5437 8.27873 46.488 8.27873 54.706C8.27873 57.1675 8.16553 59.6046 7.95485 62.0113C10.9987 59.918 14.2753 58.2202 17.7217 56.9697C18.7531 56.5955 19.4575 55.6675 19.4575 54.6026V54.5569C19.4575 48.0214 18.4418 41.7172 16.5614 35.7811C16.1149 34.3754 16.989 32.8967 18.4701 32.559C31.4381 29.5955 42.9313 22.9443 51.7014 13.8105C52.7328 12.7364 54.4906 12.7364 55.522 13.8105C64.2921 22.9443 75.7853 29.5955 88.7533 32.559C90.2312 32.8967 91.1054 34.3754 90.662 35.7811C88.7816 41.7202 87.7659 48.0245 87.7659 54.5569C87.7659 58.3967 88.1275 62.1513 88.8004 65.8054C83.3164 63.058 77.1783 61.4515 70.7698 61.2689L62.877 67.5336C72.9269 67.8196 83.1057 70.2689 91.4167 74.7263C91.7972 74.9302 92.1462 75.0945 92.4827 75.2375C93.665 75.8308 94.8222 76.4424 95.9416 77.0661C98.5925 78.5448 101.74 76.2537 101.073 73.3633C99.6836 67.3602 98.9509 61.1168 98.9509 54.706C98.9509 46.488 100.162 38.5437 102.41 31.0285C103.165 28.5032 101.602 25.8409 98.9667 25.1989H98.9604Z" fill="#205EA4"/>
</g>
<defs>
<clipPath id="clip0_9_1112">
<rect width="108" height="108" fill="white"/>
</clipPath>
</defs>
</svg>
