<svg width="24" height="24" viewBox="0 0 24 24" fill="none" xmlns="http://www.w3.org/2000/svg">
<path d="M9.03835 8.86342C11.0392 8.86342 12.8631 10.4113 12.9396 10.4773C13.2531 10.7473 13.2876 11.2183 13.0191 11.5333C12.7506 11.8483 12.2782 11.8828 11.9632 11.6158C11.9482 11.6038 10.4783 10.3648 9.03835 10.3648C9.02635 10.3633 9.01285 10.3678 9.00085 10.3678V13.4757C9.30984 13.5687 9.63982 13.6347 10.0133 13.6347C12.1552 13.6347 14.687 11.9083 16.2064 10.5793C14.5115 9.1844 11.6317 7.5 9.52582 7.5C9.35483 7.5 9.17784 7.521 9.00085 7.542V8.86642C9.01285 8.86642 9.02485 8.86342 9.03835 8.86342Z" fill="#4CAF50"/>
<path d="M23.2501 3.00049H9.75085C9.33687 3.00049 9.00089 3.33647 9.00089 3.75045V6.03782C9.17638 6.02132 9.35187 6.00032 9.52586 6.00032C12.5077 6.00032 16.2095 8.46918 17.8414 10.0261C17.9899 10.1656 18.0724 10.3606 18.0739 10.5631C18.0754 10.7655 17.9929 10.962 17.8489 11.1045C17.4274 11.517 13.6281 15.1363 10.0118 15.1363C9.65035 15.1363 9.31737 15.0928 8.99939 15.0298V16.4172C9.18388 16.4592 9.36687 16.4997 9.52586 16.4997C11.6167 16.4997 17.7844 14.7943 19.7253 12.8954C20.0193 12.6059 20.4977 12.6119 20.7857 12.9074C21.0752 13.2029 21.0692 13.6784 20.7737 13.9679C18.4369 16.2567 11.9047 17.9996 9.52586 17.9996C9.35937 17.9996 9.17638 17.9486 9.00089 17.9216V20.2495C9.00089 20.6635 9.33687 20.9995 9.75085 20.9995H23.2501C23.6641 20.9995 24 20.6635 24 20.2495V3.75045C24 3.33647 23.6641 3.00049 23.2501 3.00049Z" fill="#4CAF50"/>
<path d="M6.55144 11.2906C7.09141 10.9261 8.05436 10.3831 9.00081 10.3681V8.8667C7.01342 8.8862 5.21352 10.4116 5.13702 10.4761C4.90454 10.6756 4.81754 10.9966 4.91654 11.2861C4.96453 11.4301 6.03697 14.4464 9.00081 15.0299V13.4774C7.65688 13.0755 6.89043 11.952 6.55144 11.2906Z" fill="#4CAF50"/>
<path d="M1.91373 10.8133C2.4537 10.5238 3.00567 10.2104 3.55914 9.89388C5.42353 8.83044 7.34343 7.7445 9.00083 7.54201V6.0376C6.98945 6.22359 4.87157 7.41902 2.81668 8.59195C2.00223 9.05543 1.19827 9.5144 0.421318 9.89388C0.218829 9.99287 0.0703374 10.1789 0.0193403 10.3994C-0.0316569 10.6198 0.0193403 10.8508 0.158832 11.0293C2.70719 14.2856 6.32948 17.5299 9.00083 17.9214V16.417C7.22793 16.0225 4.39309 13.7922 1.91373 10.8133Z" fill="#4CAF50"/>
</svg>
