<svg width="50" height="50" viewBox="0 0 50 50" fill="none" xmlns="http://www.w3.org/2000/svg">
<rect width="50" height="50" rx="9" fill="#EFF2F5"/>
<g clip-path="url(#clip0_646_3684)">
<path d="M19.3313 8.93407C15.2311 10.3525 11.7345 13.4557 9.79227 17.3683C9.11373 18.7204 8.62323 20.1574 8.3313 21.6429C7.58701 25.3364 8.10512 29.2683 9.79227 32.6378C10.8857 34.8365 12.4598 36.7882 14.3639 38.3115C16.1641 39.7585 18.2563 40.825 20.4813 41.4247C23.2809 42.1863 26.2686 42.1671 29.0959 41.5196C31.6503 40.9293 34.0633 39.6921 35.9858 37.9025C38.0214 36.0079 39.4732 33.5236 40.2464 30.8488C41.0854 27.9263 41.1985 24.8131 40.6705 21.8242H24.826V28.4595H33.9969C33.6385 30.5825 32.3945 32.5149 30.6226 33.7142C29.5101 34.4659 28.2378 34.9613 26.9182 35.1898C25.5894 35.4182 24.2225 35.4468 22.9029 35.1805C21.555 34.9142 20.2728 34.3424 19.1518 33.5429C17.3608 32.2765 15.9945 30.4112 15.2969 28.326C14.5809 26.203 14.571 23.833 15.2969 21.71C15.7966 20.2152 16.6355 18.8253 17.7382 17.7024C19.0953 16.2932 20.858 15.2938 22.7621 14.8847C24.3928 14.5328 26.1082 14.5992 27.7013 15.0846C29.0584 15.5036 30.303 16.2461 31.33 17.2362C32.3669 16.1983 33.3939 15.1517 34.4308 14.1138C34.968 13.552 35.5433 13.0187 36.0706 12.4383C34.5058 10.9721 32.6589 9.79204 30.6509 9.04962C27.0504 7.68829 22.9693 7.65974 19.3306 8.9354L19.3313 8.93407Z" fill="white"/>
<path d="M19.3314 8.93367C22.9694 7.658 27.0511 7.68656 30.67 9.03859C32.6774 9.78101 34.5158 10.9617 36.0898 12.4273C35.5618 12.9984 34.9964 13.5409 34.45 14.1027C33.4131 15.1407 32.3861 16.1872 31.3492 17.2252C30.3216 16.235 29.0776 15.4833 27.7205 15.0736C26.1273 14.5882 24.4119 14.5218 22.7813 14.8737C20.8772 15.2828 19.1151 16.2921 17.7574 17.6913C16.6547 18.8149 15.8158 20.2048 15.3161 21.6989C13.4783 20.2612 11.64 18.8143 9.80225 17.3772C11.7346 13.4553 15.2312 10.3521 19.3314 8.93367Z" fill="#E94435"/>
<path d="M8.33143 21.6418C8.62336 20.157 9.12306 18.7193 9.79239 17.3673C11.6301 18.805 13.4685 20.252 15.3062 21.689C14.5803 23.812 14.5902 26.182 15.3062 28.305C13.4685 29.7427 11.6301 31.1897 9.79239 32.6268C8.10525 29.2766 7.58713 25.3353 8.33143 21.6418Z" fill="#F8BB15"/>
<path d="M24.836 21.8132H40.6805C41.2085 24.8021 41.0954 27.9152 40.2564 30.8378C39.4838 33.5126 38.0321 36.0068 35.9958 37.8914C34.2146 36.4923 32.4236 35.0924 30.6516 33.6932C32.4236 32.5032 33.6676 30.5615 34.0259 28.4385H24.8551C24.8268 26.2398 24.836 24.0311 24.836 21.8132Z" fill="#547DBE"/>
<path d="M9.79236 32.6374C11.6301 31.1997 13.4684 29.7527 15.3062 28.3157C16.0038 30.4101 17.3701 32.2662 19.1611 33.5325C20.2828 34.3321 21.5643 34.8939 22.9121 35.1701C24.2318 35.4364 25.6079 35.4078 26.9275 35.1794C28.2471 34.951 29.5194 34.4562 30.6319 33.7039C32.413 35.103 34.2041 36.5029 35.976 37.9021C34.0535 39.701 31.6405 40.9295 29.0861 41.5192C26.268 42.1667 23.2797 42.1853 20.4715 41.4243C18.2472 40.8246 16.1543 39.7581 14.3541 38.3111C12.4598 36.7785 10.8858 34.8268 9.79236 32.6374Z" fill="#34A751"/>
</g>
<defs>
<clipPath id="clip0_646_3684">
<rect width="33" height="34" fill="white" transform="translate(8 8)"/>
</clipPath>
</defs>
</svg>
