<svg width="50" height="50" viewBox="0 0 50 50" fill="none" xmlns="http://www.w3.org/2000/svg">
<g clip-path="url(#clip0_292_14295)">
<g clip-path="url(#clip1_292_14295)">
<path d="M42.2005 0H7.7995C3.49196 0 0 3.49196 0 7.7995V42.2005C0 46.508 3.49196 50 7.7995 50H42.2005C46.508 50 50 46.508 50 42.2005V7.7995C50 3.49196 46.508 0 42.2005 0Z" fill="#4E7BB3"/>
<path d="M24.9006 8.90309L25.0191 38.4521L15.1001 32.9771L30.5771 49.9996H42.2006C46.5081 49.9996 50.0001 46.5076 50.0001 42.2001V17.3231L24.9006 8.90259V8.90309Z" fill="#205EA4"/>
<path d="M40.8045 15.4506C40.644 20.1421 40.497 24.8311 39.574 29.4586C38.75 33.5906 36.6835 36.7841 32.8645 38.7486C30.575 39.9261 28.323 41.1721 26.2225 42.6751C25.435 43.2386 24.592 43.2376 23.79 42.6671C21.544 41.0696 19.121 39.7671 16.7005 38.4681C12.719 36.3306 10.9445 32.7881 10.2595 28.5316C9.40652 23.2291 9.18802 17.8816 9.18652 12.5226C9.18652 11.0176 9.97302 10.3126 11.6075 10.3256C15.6025 10.3576 19.3395 9.50608 22.6685 7.20008C23.011 6.96258 23.335 6.69808 23.6655 6.44358C24.5175 5.78708 25.417 5.71908 26.253 6.39858C29.832 9.30808 33.9865 10.3651 38.5095 10.3286C40.0975 10.3156 40.8035 11.0661 40.8125 12.6321C40.8155 13.1191 40.806 13.6066 40.8045 14.0936C40.803 14.5461 40.8045 14.9981 40.8045 15.4506ZM36.792 17.4466C36.792 16.5786 36.774 15.8816 36.797 15.1861C36.82 14.4891 36.5195 14.1921 35.815 14.1516C32.159 13.9401 28.789 12.8146 25.7135 10.8391C25.1445 10.4736 24.7405 10.5386 24.21 10.8866C21.205 12.8586 17.8795 13.9076 14.306 14.1356C13.432 14.1916 13.1535 14.5376 13.193 15.3611C13.2935 17.4456 13.294 19.5361 13.445 21.6166C13.647 24.3901 13.8865 27.1636 14.6245 29.8666C15.232 32.0931 16.456 33.8066 18.494 34.9471C20.4975 36.0681 22.5545 37.0991 24.461 38.3886C24.826 38.6351 25.147 38.6421 25.515 38.3956C27.2535 37.2321 29.086 36.2221 30.9495 35.2851C33.7465 33.8791 35.1365 31.5586 35.718 28.5851C36.449 24.8466 36.6035 21.0611 36.7925 17.4461L36.792 17.4466Z" fill="#EFF2F5"/>
<path d="M40.8131 12.6315C40.8041 11.0655 40.0981 10.3155 38.5101 10.328C33.9871 10.3645 29.8326 9.308 26.2536 6.398C25.8486 6.069 25.4291 5.9155 25.0071 5.919V10.594C25.2266 10.595 25.4531 10.671 25.7141 10.8385C28.7896 12.814 32.1596 13.9395 35.8156 14.151C36.5201 14.192 36.8206 14.4885 36.7976 15.1855C36.7746 15.881 36.7926 16.5775 36.7926 17.446C36.6036 21.061 36.4491 24.8465 35.7181 28.585C35.1366 31.5585 33.7466 33.8785 30.9496 35.285C29.0861 36.222 27.2536 37.232 25.5151 38.3955C25.3381 38.514 25.1721 38.573 25.0071 38.576V43.096C25.4181 43.0985 25.8276 42.9575 26.2231 42.675C28.3241 41.1715 30.5761 39.926 32.8651 38.7485C36.6846 36.7835 38.7506 33.5905 39.5746 29.4585C40.4976 24.831 40.6446 20.142 40.8051 15.4505C40.8051 14.998 40.8041 14.546 40.8051 14.0935C40.8066 13.6065 40.8161 13.119 40.8131 12.632V12.6315Z" fill="#CED2DA"/>
</g>
</g>
<defs>
<clipPath id="clip0_292_14295">
<rect width="50" height="50" fill="white"/>
</clipPath>
<clipPath id="clip1_292_14295">
<rect width="50" height="50" fill="white"/>
</clipPath>
</defs>
</svg>
