<svg width="50" height="50" viewBox="0 0 50 50" fill="none" xmlns="http://www.w3.org/2000/svg">
<g clip-path="url(#clip0_292_14304)">
<g clip-path="url(#clip1_292_14304)">
<path d="M42.2005 0H7.7995C3.49196 0 0 3.49196 0 7.7995V42.2005C0 46.508 3.49196 50 7.7995 50H42.2005C46.508 50 50 46.508 50 42.2005V7.7995C50 3.49196 46.508 0 42.2005 0Z" fill="#4E7BB3"/>
<path d="M25 30.1L34.35 49.95L42.4985 50C46.6415 50 50 46.6415 50 42.4985V18.55L25 12.7" fill="#205EA4"/>
<path d="M5.35003 25.8755C5.35403 25.6085 5.48603 25.4045 5.66753 25.223C6.38103 24.5105 7.09353 23.796 7.80753 23.084C8.30753 22.5855 8.74653 22.582 9.24403 23.078C10.516 24.3475 11.7855 25.619 13.056 26.89C14.1505 27.985 15.2455 29.0805 16.34 30.1755C16.6174 30.4531 16.8924 30.4555 17.165 30.1825C19.5 27.847 21.8355 25.511 24.1715 23.176C24.2715 23.076 24.3775 22.9795 24.4905 22.895C24.827 22.6435 25.2255 22.658 25.546 22.93C25.627 22.9985 25.7 23.077 25.7755 23.1525C28.146 25.523 30.5165 27.894 32.887 30.265C33.1985 30.5765 33.2595 30.5765 33.576 30.26C35.9615 27.874 38.3465 25.488 40.7325 23.102C41.2585 22.576 41.6865 22.5775 42.215 23.1055C42.9085 23.798 43.602 24.4905 44.2945 25.1845C44.7685 25.6595 44.7665 26.107 44.2895 26.584C42.1105 28.764 39.93 30.943 37.7515 33.124C36.477 34.4 35.2055 35.68 33.932 36.957C33.4575 37.433 33.0125 37.4305 32.531 36.9485C30.135 34.553 27.7395 32.157 25.3435 29.7615C25.0305 29.4485 24.97 29.4485 24.6545 29.7635C22.2485 32.169 19.8435 34.5755 17.437 36.9805C17.011 37.4065 16.602 37.422 16.1385 37.0355C16.0785 36.9855 16.0235 36.93 15.969 36.874C15.5175 36.412 15.0715 35.9445 14.614 35.4885C13.6735 34.5515 12.715 33.6315 11.7855 32.683C11.1195 32.0035 10.4655 31.311 9.77453 30.6575C8.48353 29.437 7.28553 28.1255 6.01303 26.8875C5.85053 26.7295 5.66953 26.5915 5.53253 26.4065C5.41353 26.246 5.34553 26.074 5.34953 25.8745L5.35003 25.8755Z" fill="#CED2DA"/>
<path d="M24.9991 12.6855C27.5301 12.7025 29.9361 13.2495 32.2111 14.37C33.6936 15.1 35.0406 16.019 36.2411 17.157C36.5966 17.494 36.9411 17.842 37.2936 18.1825C37.7481 18.6215 37.7031 19.136 37.2851 19.537C36.4501 20.338 35.6436 21.169 34.8251 21.987C34.5386 22.2735 34.3431 22.2825 34.0426 21.9955C33.6676 21.6375 33.3081 21.2635 32.9376 20.901C31.4281 19.4235 29.6346 18.467 27.5816 17.988C26.6721 17.776 25.7486 17.6535 24.8171 17.6845C22.0881 17.7765 19.6466 18.6425 17.5611 20.4425C16.9526 20.9675 16.4296 21.5805 15.8241 22.108C15.5556 22.342 15.3721 22.346 15.1231 22.0975C14.2681 21.245 13.4136 20.392 12.5626 19.5355C12.2131 19.1835 12.1981 18.7165 12.5446 18.3545C13.1436 17.729 13.7596 17.12 14.4216 16.5595C15.3466 15.776 16.3451 15.104 17.4246 14.551C18.5146 13.9925 19.6441 13.54 20.8321 13.232C21.9281 12.948 23.0366 12.764 24.1696 12.7185C24.4456 12.7075 24.7221 12.6905 24.9986 12.6855H24.9991Z" fill="#CED2DA"/>
<path d="M24.985 22.7171C24.8165 22.7201 24.6475 22.7791 24.4915 22.8956C24.3785 22.9801 24.2725 23.0766 24.1725 23.1766C21.836 25.5111 19.501 27.8471 17.166 30.1831C16.8933 30.4557 16.6183 30.4534 16.341 30.1761C15.246 29.0811 14.1515 27.9856 13.057 26.8906C11.7865 25.6196 10.517 24.3476 9.24496 23.0786C8.74746 22.5821 8.30846 22.5856 7.80846 23.0846C7.09446 23.7966 6.38196 24.5111 5.66846 25.2236C5.48696 25.4046 5.35496 25.6086 5.35096 25.8761C5.34746 26.0761 5.41546 26.2481 5.53396 26.4081C5.67096 26.5931 5.85196 26.7311 6.01446 26.8891C7.28696 28.1271 8.48496 29.4391 9.77596 30.6591C10.467 31.3126 11.121 32.0046 11.787 32.6846C12.7165 33.6331 13.6745 34.5526 14.6155 35.4901C15.073 35.9461 15.519 36.4141 15.9705 36.8756C16.025 36.9316 16.0805 36.9871 16.14 37.0371C16.6035 37.4231 17.0125 37.4076 17.4385 36.9821C19.845 34.5771 22.2505 32.1706 24.656 29.7651C24.8045 29.6166 24.8965 29.5391 24.985 29.5301V22.7176V22.7171Z" fill="#EFF2F5"/>
<path d="M24.9851 12.6855C24.7131 12.691 24.4416 12.707 24.1701 12.718C23.0371 12.7635 21.9286 12.948 20.8326 13.2315C19.6446 13.539 18.5151 13.992 17.4251 14.5505C16.3456 15.1035 15.3471 15.7755 14.4221 16.559C13.7601 17.1195 13.1441 17.7285 12.5451 18.354C12.1986 18.716 12.2131 19.1835 12.5631 19.535C13.4141 20.3915 14.2686 21.2445 15.1236 22.097C15.3726 22.345 15.5561 22.3415 15.8246 22.1075C16.4301 21.58 16.9531 20.967 17.5616 20.442C19.6471 18.642 22.0886 17.776 24.8176 17.684C24.8736 17.682 24.9296 17.681 24.9856 17.68V12.686L24.9851 12.6855Z" fill="#EFF2F5"/>
</g>
</g>
<defs>
<clipPath id="clip0_292_14304">
<rect width="50" height="50" fill="white"/>
</clipPath>
<clipPath id="clip1_292_14304">
<rect width="50" height="50" fill="white"/>
</clipPath>
</defs>
</svg>
