<svg width="50" height="50" viewBox="0 0 50 50" fill="none" xmlns="http://www.w3.org/2000/svg">
<g clip-path="url(#clip0_292_14258)">
<path d="M46.6861 2.74512L27.8826 16.6581L31.3791 8.45862L46.6856 2.74512H46.6861Z" fill="#4E7BB3"/>
<path d="M3.31396 2.74512L21.95 16.7881L18.621 8.45862L3.31396 2.74512Z" fill="#CED2DA"/>
<path d="M39.9161 35.0044L34.9131 42.6474L45.6261 45.5969L48.6951 35.1714L39.9166 35.0044H39.9161Z" fill="#4E7BB3"/>
<path d="M1.32397 35.1714L4.37397 45.5969L15.0685 42.6474L10.084 35.0044L1.32397 35.1714Z" fill="#7B9CC7"/>
<path d="M14.4916 22.0935L11.5161 26.583L22.1171 27.0655L21.7636 15.657L14.4916 22.094V22.0935Z" fill="#CED2DA"/>
<path d="M35.5081 22.0936L28.1246 15.5266L27.8826 27.0651L38.4836 26.5826L35.5076 22.0931L35.5081 22.0936Z" fill="#7B9CC7"/>
<path d="M15.0686 42.6476L21.4851 39.5496L15.9616 35.2456L15.0686 42.6471V42.6476Z" fill="#CED2DA"/>
<path d="M28.5149 39.5496L34.9129 42.6476L34.0389 35.2461L28.5154 39.5501L28.5149 39.5496Z" fill="#7B9CC7"/>
<path d="M34.9129 42.648L28.5149 39.55L29.0354 43.7055L28.9794 45.468L34.9124 42.648H34.9129Z" fill="#CED2DA"/>
<path d="M15.0686 42.648L21.0201 45.468L20.9831 43.7055L21.4851 39.55L15.0686 42.648Z" fill="#EFF2F5"/>
<path d="M21.1315 32.5005L15.812 30.9425L19.569 29.217L21.1315 32.5005Z" fill="#323F52" stroke="#323F52" stroke-width="0.25" stroke-linecap="round" stroke-linejoin="round"/>
<path d="M28.8684 32.5005L30.4309 29.217L34.2064 30.9425L28.8684 32.5005Z" fill="#1B2839" stroke="#1B2839" stroke-width="0.25" stroke-linecap="round" stroke-linejoin="round"/>
<path d="M15.068 42.6474L15.998 35.0044L10.0835 35.1714L15.068 42.6474Z" fill="#4E7BB3"/>
<path d="M34.0015 35.0044L34.913 42.6474L39.916 35.1714L34.0015 35.0044Z" fill="#205EA4"/>
<path d="M38.4836 26.5825L27.8826 27.065L28.8681 32.5005L30.4306 29.217L34.2061 30.9425L38.4836 26.583V26.5825Z" fill="#205EA4"/>
<path d="M15.8121 30.942L19.5691 29.2165L21.1316 32.5L22.1171 27.0645L11.5161 26.582L15.8126 30.9415L15.8121 30.942Z" fill="#4E7BB3"/>
<path d="M11.5161 26.5825L15.9611 35.246L15.8121 30.942L11.5161 26.5825Z" fill="#7B9CC7"/>
<path d="M34.2066 30.942L34.0391 35.246L38.4841 26.5825L34.2066 30.942Z" fill="#7B9CC7"/>
<path d="M22.1176 27.0649L21.1316 32.5004L22.3776 38.9189L22.6566 30.4599L22.1171 27.0649H22.1176Z" fill="#7B9CC7"/>
<path d="M27.8831 27.0649L27.3621 30.4414L27.6226 38.9189L28.8686 32.5004L27.8831 27.0649Z" fill="#7B9CC7"/>
<path d="M28.8686 32.5004L27.6226 38.9189L28.5156 39.5499L34.0396 35.2459L34.2071 30.9419L28.8691 32.5004H28.8686Z" fill="#CED2DA"/>
<path d="M15.812 30.9419L15.961 35.2459L21.4845 39.5499L22.3775 38.9189L21.1315 32.5004L15.812 30.9419Z" fill="#EFF2F5"/>
<path d="M28.9801 45.4555L29.0356 43.693L28.5521 43.285H21.4476L20.9826 43.693L21.0196 45.4555L15.0681 42.6355L17.1511 44.342L21.3731 47.2545H28.6081L32.8486 44.342L34.9131 42.6355L28.9801 45.4555Z" fill="#7B9CC7"/>
<path d="M47.4854 17.5671L49.0664 9.88712L46.6859 2.74512L28.5149 16.1946L35.5079 22.0936L45.3839 24.9691L47.5599 22.4276L46.6114 21.7411L48.1179 20.3686L46.9649 19.4781L48.4714 18.3281L47.4854 17.5676V17.5671Z" fill="#205EA4"/>
<path d="M0.933594 9.88712L2.53309 17.5671L1.51009 18.3276L3.03509 19.4776L1.88209 20.3681L3.38859 21.7406L2.44009 22.4271L4.61609 24.9686L14.4921 22.0931L21.4851 16.1941L3.31409 2.74512L0.933594 9.88712Z" fill="#7B9CC7"/>
<path d="M45.3841 24.9685L35.5081 22.093L38.4841 26.5825L34.0391 35.2455L39.9161 35.1715H48.6946L45.3841 24.9685Z" fill="#CED2DA"/>
<path d="M14.4915 22.0935L4.61549 24.969L1.32349 35.172H10.0835L15.9605 35.246L11.5155 26.583L14.491 22.0935H14.4915Z" fill="#EFF2F5"/>
<path d="M27.8826 27.065L28.5151 16.194L31.3791 8.4585H18.6206L21.4846 16.194L22.1171 27.065L22.3591 30.4785L22.3776 38.919H27.6226L27.6411 30.4785L27.8831 27.065H27.8826Z" fill="#EFF2F5"/>
<path d="M24.875 8.48291V38.9434H27.6345L27.653 30.5029L27.895 27.0894L28.527 16.2184L31.3915 8.48291H24.875Z" fill="#CED2DA"/>
<path d="M25 43.285H21.4535L20.9885 43.6935L21.026 45.4555L15.0745 42.636L17.1575 44.3425L21.3795 47.255H25V43.285Z" fill="#CED2DA"/>
<path d="M28.5149 39.5546L27.6219 38.9241H22.3769L21.4844 39.5546L20.9824 43.7101L21.4474 43.3021H28.5519L29.0354 43.7101L28.5149 39.5546Z" fill="#0E1727" stroke="#0E1727" stroke-width="0.25" stroke-linecap="round" stroke-linejoin="round"/>
<path d="M24.9999 38.9561H22.3679L21.4749 39.5826L20.9729 43.7101L21.4379 43.3046H24.9999V38.9561Z" fill="#323F52" stroke="#323F52" stroke-width="0.25" stroke-linecap="round" stroke-linejoin="round"/>
</g>
<defs>
<clipPath id="clip0_292_14258">
<rect width="50" height="50" fill="white"/>
</clipPath>
</defs>
</svg>
