<svg width="24" height="24" viewBox="0 0 24 24" fill="none" xmlns="http://www.w3.org/2000/svg">
<path d="M23.5861 19.8618H0.413812C0.185297 19.8618 0 19.6765 0 19.448V4.55151C0 4.32299 0.185297 4.1377 0.413812 4.1377H23.5862C23.8147 4.1377 24 4.32299 24 4.55151V19.448C24 19.6766 23.8147 19.8618 23.5861 19.8618Z" fill="#FF4B55"/>
<path d="M3.98481 6.59682L4.37931 7.77967L5.62618 7.78932C5.78762 7.79054 5.85456 7.9966 5.72467 8.09246L4.72164 8.83313L5.09771 10.022C5.14637 10.1759 4.97115 10.3032 4.83981 10.2093L3.82544 9.48422L2.81106 10.2093C2.67972 10.3032 2.5045 10.1758 2.55316 10.0219L2.92923 8.83309L1.9262 8.09246C1.79631 7.99656 1.86325 7.79054 2.02469 7.78932L3.27156 7.77967L3.66606 6.59682C3.71715 6.44364 3.93376 6.44364 3.98481 6.59682Z" fill="#FFE15A"/>
<path d="M8.51259 6.88828L8.79548 7.27406L9.252 7.13128C9.31111 7.11281 9.35972 7.18022 9.32353 7.23042L9.04406 7.61859L9.32091 8.00864C9.35677 8.05912 9.30769 8.1262 9.24872 8.10731L8.79314 7.96148L8.50772 8.34534C8.47078 8.39503 8.3918 8.36906 8.39156 8.30718L8.38945 7.82883L7.93617 7.67597C7.87753 7.65614 7.87777 7.57308 7.9366 7.55367L8.39081 7.40386L8.39616 6.92555C8.39681 6.86372 8.47599 6.83836 8.51259 6.88828Z" fill="#FFE15A"/>
<path d="M6.79034 5.73846L7.26589 5.79012L7.46876 5.35695C7.49506 5.30089 7.57756 5.3105 7.59022 5.37111L7.688 5.83929L8.16265 5.89836C8.22411 5.906 8.24047 5.98746 8.1867 6.01826L7.77162 6.25592L7.86214 6.7256C7.87386 6.78645 7.80144 6.82713 7.75555 6.78556L7.40122 6.46423L6.98253 6.69542C6.92834 6.72537 6.86717 6.66903 6.89258 6.61254L7.08866 6.17623L6.73934 5.84942C6.69416 5.80732 6.7288 5.73181 6.79034 5.73846Z" fill="#FFE15A"/>
<path d="M7.54212 10.3741L7.25923 10.7599L6.80271 10.6171C6.7436 10.5987 6.69499 10.6661 6.73118 10.7163L7.01065 11.1044L6.7338 11.4945C6.69795 11.545 6.74702 11.612 6.80599 11.5932L7.26157 11.4473L7.54699 11.8312C7.58393 11.8809 7.66291 11.8549 7.66315 11.793L7.66526 11.3147L8.11854 11.1618C8.17722 11.142 8.17694 11.0589 8.11811 11.0395L7.6639 10.8897L7.65855 10.4114C7.6578 10.3496 7.57873 10.3242 7.54212 10.3741Z" fill="#FFE15A"/>
<path d="M9.26435 9.29364L8.7888 9.3453L8.58593 8.91213C8.55963 8.85606 8.47713 8.86567 8.46447 8.92628L8.36665 9.39447L7.89199 9.45353C7.83054 9.46117 7.81418 9.54264 7.86794 9.57344L8.28302 9.81109L8.19251 10.2808C8.18079 10.3416 8.25321 10.3823 8.2991 10.3407L8.65343 10.0194L9.07211 10.2506C9.1263 10.2805 9.18747 10.2242 9.16207 10.1677L8.96599 9.73141L9.3153 9.40459C9.36063 9.3625 9.32599 9.28698 9.26435 9.29364Z" fill="#FFE15A"/>
</svg>
