<svg width="70" height="70" viewBox="0 0 70 70" fill="none" xmlns="http://www.w3.org/2000/svg">
<rect width="70" height="70" rx="6" fill="#0E1727"/>
<path d="M39.9239 32.614H37.2954C37.2573 32.4779 37.2175 32.3461 37.1752 32.2206L39.7214 31.5743L47.3281 33.9495L44.2956 23.5952C44.627 23.3537 44.8433 22.9612 44.8433 22.516C44.8433 21.782 44.2567 21.1875 43.5343 21.1875C42.8118 21.1875 42.2253 21.7828 42.2253 22.516C42.2253 23.1562 42.6708 23.69 43.2643 23.8165L45.763 32.3444L39.7517 30.467L37.3603 31.0738C37.3845 31.0299 37.4044 30.9834 37.4217 30.9351L39.4307 28.8962H43.7722L40.7942 23.4556C41.0313 23.215 41.1775 22.8831 41.1775 22.516C41.1775 21.782 40.5909 21.1875 39.8685 21.1875C39.1461 21.1875 38.5595 21.7828 38.5595 22.516C38.5595 23.2492 39.1114 23.8077 39.8045 23.8419L41.9873 27.8302H38.9964L37.08 29.7751C37.1613 29.5126 37.1596 28.9471 36.0097 28.3632C36.5332 28.6292 36.5332 29.6917 36.5332 29.6917H36.5358C36.13 29.704 35.7909 29.9806 35.681 30.359C35.668 30.359 35.6559 30.3564 35.6429 30.3564C35.6299 30.3564 35.6178 30.3582 35.6048 30.359C35.495 29.9815 35.1558 29.704 34.75 29.6935H34.7526C34.7526 29.6935 34.7526 28.6292 35.2761 28.3632C34.019 29.0015 34.134 29.6188 34.2301 29.8401C34.1998 29.8603 34.1695 29.8814 34.1418 29.9051L32.0974 27.8302H29.1064L31.2893 23.8419C31.9823 23.8077 32.5343 23.2282 32.5343 22.516C32.5343 21.8039 31.9477 21.1875 31.2253 21.1875C30.5028 21.1875 29.9162 21.7828 29.9162 22.516C29.9162 22.8831 30.0625 23.215 30.2995 23.4556L27.3215 28.8962H31.6631L33.8338 31.0993L31.3421 30.467L25.3307 32.3444L27.8294 23.8165C28.4229 23.69 28.8685 23.1562 28.8685 22.516C28.8685 21.782 28.2819 21.1875 27.5595 21.1875C26.837 21.1875 26.2504 21.7828 26.2504 22.516C26.2504 22.9612 26.4667 23.3546 26.7981 23.5952L23.7656 33.9495L31.3723 31.5743L34.096 32.2654C34.0596 32.3778 34.025 32.4945 33.9913 32.614H31.1708L25.0098 37.7297L27.203 47.126C26.7929 47.3508 26.5135 47.7907 26.5135 48.2965C26.5135 49.0305 27.1001 49.625 27.8225 49.625C28.5449 49.625 29.1315 49.0297 29.1315 48.2965C29.1315 47.7196 28.769 47.2305 28.2637 47.047L26.1838 38.1327L31.5454 33.6799H33.1737L30.5305 36.1386L32.3448 47.1839C31.9875 47.421 31.7504 47.8302 31.7504 48.2965C31.7504 49.0305 32.337 49.625 33.0595 49.625C33.7819 49.625 34.3685 49.0297 34.3685 48.2965C34.3685 47.6757 33.948 47.155 33.3804 47.0092L31.6605 36.5337L33.6175 34.7134C33.5725 35.1894 33.5483 35.6881 33.5483 36.2035C33.5483 39.4331 34.4862 42.0507 35.6429 42.0507C36.7997 42.0507 37.7375 39.4331 37.7375 36.2035C37.7375 35.7584 37.7194 35.3246 37.6856 34.9075L39.4333 36.5337L37.7133 47.0092C37.1457 47.155 36.7253 47.6748 36.7253 48.2965C36.7253 49.0305 37.3119 49.625 38.0343 49.625C38.7567 49.625 39.3433 49.0297 39.3433 48.2965C39.3433 47.8302 39.1063 47.421 38.7489 47.1839L40.5632 36.1386L37.9201 33.6799H39.5484L44.9099 38.1327L42.83 47.047C42.3239 47.2314 41.9622 47.7204 41.9622 48.2965C41.9622 49.0305 42.5488 49.625 43.2713 49.625C43.9937 49.625 44.5803 49.0297 44.5803 48.2965C44.5803 47.7898 44.3017 47.3499 43.8907 47.126L46.084 37.7297L39.9239 32.614ZM33.9238 31.0729C33.935 31.0931 33.9463 31.1124 33.9593 31.1318L33.8849 31.1124L33.9238 31.0729Z" fill="#205EA4"/>
<path d="M57.1633 35.2091C57.1438 31.4027 57.6477 27.7158 58.605 24.2118C59.0245 22.6773 58.0574 21.1234 56.5038 20.72C49.1756 18.8164 42.6304 14.9933 37.4557 9.82288C36.3501 8.71814 34.5938 8.72692 33.4988 9.84221C28.3757 15.0627 21.8705 18.9508 14.5618 20.9265C13.0117 21.3458 12.0616 22.9093 12.4962 24.4394C13.489 27.9338 14.0303 31.6163 14.0489 35.4227C14.0507 35.8015 14.0445 36.1776 14.0356 36.5538C15.1866 37.1699 16.4114 37.7367 17.7011 38.25C17.7882 37.2657 17.837 36.2699 17.837 35.2627C17.837 31.945 17.3535 28.7388 16.4558 25.7085C16.1679 24.7365 16.7865 23.7416 17.7793 23.4955C24.2071 21.903 29.9151 18.5176 34.3298 13.9088C34.9937 13.2153 36.0976 13.2153 36.7616 13.9088C41.1763 18.5184 46.8842 21.903 53.3121 23.4955C54.3058 23.7416 54.9235 24.7373 54.6355 25.7085C53.7369 28.7388 53.2543 31.945 53.2543 35.2627C53.2543 36.2699 53.3041 37.2648 53.3903 38.25C54.7289 37.7174 55.999 37.1259 57.1882 36.4826C57.1731 36.059 57.1633 35.6345 57.1606 35.2082L57.1633 35.2091Z" fill="#DDA923"/>
<path d="M57.3993 39.0634C56.2354 39.6407 55.0089 40.1724 53.7271 40.655C53.9362 41.8775 54.2077 43.0786 54.5427 44.2537C54.7928 45.1322 54.2845 46.0134 53.3975 46.2332C46.892 47.8409 41.1154 51.2949 36.6528 56.0089C35.9846 56.714 34.8752 56.714 34.208 56.0089C29.7453 51.2949 23.9687 47.8409 17.4632 46.2332C16.5762 46.0142 16.068 45.1331 16.3181 44.2537C16.6522 43.0786 16.9237 41.8775 17.1336 40.655C15.9161 40.1965 14.7487 39.6934 13.6375 39.1492C13.4249 41.4039 13.0354 43.6076 12.4798 45.7453C12.1011 47.2046 12.9622 48.6854 14.42 49.0661C21.8107 50.9964 28.4108 54.8909 33.6265 60.1626C34.7386 61.2868 36.5036 61.2779 37.605 60.1429C42.7679 54.8194 49.3288 50.8588 56.6999 48.8552C58.1541 48.4602 59 46.9696 58.6069 45.5147C58.0424 43.4244 57.6369 41.2689 57.3993 39.0625V39.0634Z" fill="#205EA4"/>
</svg>
