<svg width="48" height="48" viewBox="0 0 48 48" fill="none" xmlns="http://www.w3.org/2000/svg">
<path d="M48 17.76C48 14.5839 45.4766 12 42.375 12H24L12.75 30L24 48H42.375C45.4766 48 48 45.4161 48 42.24V29.28L42.375 24.24L48 19.2V17.76Z" fill="#205EA4"/>
<path d="M5.625 12C2.52338 12 0 14.5839 0 17.76V19.2L5.625 24.24L0 29.28V42.24C0 45.4161 2.52338 48 5.625 48H24V12H5.625Z" fill="#4E7BB3"/>
<path d="M48 19.2002H24L18.375 24.2402L24 29.2802H48V19.2002Z" fill="#0E1727"/>
<path d="M0 19.2002H24V29.2802H0V19.2002Z" fill="#323F52"/>
<path d="M33.9375 32.1602H42.375V40.8002H33.9375V32.1602Z" fill="#DDA923"/>
<path d="M31.125 32.1602H24L19.7812 36.4802L24 40.8002H31.125V32.1602Z" fill="#CEEFFE"/>
<path d="M5.625 32.1602H24V40.8002H5.625V32.1602Z" fill="#EFF2F5"/>
</svg>
