<svg width="48" height="48" viewBox="0 0 48 48" fill="none" xmlns="http://www.w3.org/2000/svg">
<path d="M36.9151 15.0625H7.79122C5.97303 15.0625 4.4975 16.5381 4.4975 18.3562L4.49787 18.3563C4.49787 21.9945 7.44725 24.9437 11.0854 24.9437H36.9152C38.7342 24.9437 40.2089 23.469 40.2089 21.65V18.3562C40.2088 16.5373 38.7342 15.0625 36.9151 15.0625Z" fill="#465465"/>
<path d="M40.2088 21.65V18.3562C40.2088 16.5373 38.734 15.0625 36.9151 15.0625H24V24.9437H36.9151C38.7341 24.9437 40.2088 23.469 40.2088 21.65Z" fill="#0E1727"/>
<path d="M24 23.9001C30.5998 23.9001 35.9501 18.5499 35.9501 11.95C35.9501 5.35021 30.5998 0 24 0C17.4002 0 12.05 5.35021 12.05 11.95C12.05 18.5499 17.4002 23.9001 24 23.9001Z" fill="#FFE55F"/>
<path d="M24 0C30.5892 0 35.95 5.36081 35.95 11.95C35.95 18.5393 30.5892 23.9001 24 23.9001V0Z" fill="#DDA923"/>
<path d="M24 18.6283C23.5298 18.6283 23.0908 18.3932 22.83 18.0021L19.3151 12.7303C19.0002 12.2578 19.0002 11.6424 19.3151 11.17L22.83 5.89813C23.0908 5.507 23.5298 5.27197 24 5.27197C24.4701 5.27197 24.9092 5.507 25.17 5.89813L28.6848 11.17C28.9998 11.6424 28.9998 12.2578 28.6848 12.7303L25.17 18.0021C24.9092 18.3932 24.4701 18.6283 24 18.6283Z" fill="#DDA923"/>
<path d="M24 5.27197C24.4702 5.27197 24.9092 5.507 25.17 5.89813L28.6849 11.17C28.9998 11.6424 28.9998 12.2578 28.6849 12.7303L25.17 18.0021C24.9092 18.3932 24.4702 18.6283 24 18.6283V5.27197Z" fill="#FFE55F"/>
<path d="M40.2088 21.65H7.79109C5.973 21.65 4.49747 20.1745 4.49738 18.3564V44.7062C4.49738 46.5244 5.973 47.9999 7.79109 47.9999H40.2088C42.027 47.9999 43.5025 46.5243 43.5025 44.7062C43.5025 44.7062 43.5025 42.2603 43.5025 38.9624C41.0661 38.9624 39.0838 36.9802 39.0838 34.5437C39.0838 32.1072 41.0661 30.1249 43.5025 30.1249V24.9437C43.5026 23.1248 42.0278 21.65 40.2088 21.65Z" fill="#4E7BB3"/>
<path d="M43.5027 44.7061C43.5027 44.7061 43.5027 42.2602 43.5027 38.9623C41.0662 38.9623 39.0839 36.9801 39.0839 34.5436C39.0839 32.1072 41.0662 30.1248 43.5027 30.1248V24.9436C43.5027 23.1247 42.0279 21.6499 40.2089 21.6499H24.0001V47.9998H40.2089C42.027 47.9998 43.5027 46.5242 43.5027 44.7061Z" fill="#205EA4"/>
<path d="M43.5027 30.125H36.0714C33.6349 30.125 31.6526 32.1073 31.6526 34.5438C31.6526 36.9803 33.6349 38.9625 36.0714 38.9625H43.5027V30.125Z" fill="#0E1727"/>
</svg>
