<svg width="156" height="157" viewBox="0 0 156 157" fill="none" xmlns="http://www.w3.org/2000/svg">
<path fill-rule="evenodd" clip-rule="evenodd" d="M126.75 87.3164H29.25V132.439C29.25 134.592 30.6613 136.491 32.7234 137.11C42.5198 140.047 70.0684 148.312 76.5984 150.272C77.5125 150.545 78.4875 150.545 79.4016 150.272C85.9316 148.312 113.48 140.047 123.277 137.11C125.339 136.491 126.75 134.592 126.75 132.439C126.75 121.139 126.75 87.3164 126.75 87.3164Z" fill="url(#paint0_linear_252_5799)"/>
<path fill-rule="evenodd" clip-rule="evenodd" d="M126.75 87.3164H78C78 87.3164 77.5271 150.477 78 150.477C78.4729 150.477 78.9433 150.409 79.4016 150.272C85.9316 148.312 113.48 140.047 123.277 137.11C125.339 136.491 126.75 134.592 126.75 132.439C126.75 121.139 126.75 87.3164 126.75 87.3164Z" fill="#7B9CC7"/>
<path fill-rule="evenodd" clip-rule="evenodd" d="M78 103.133L29.25 87.3164C29.25 87.3164 20.7017 99.9914 16.8797 105.656C16.4507 106.292 16.3459 107.089 16.5945 107.813C16.8456 108.537 17.4184 109.1 18.1472 109.339C27.4073 112.347 54.8194 121.254 62.01 123.589C63.0411 123.925 64.1721 123.538 64.7814 122.638C68.0501 117.814 78 103.133 78 103.133Z" fill="#EFF2F5"/>
<path fill-rule="evenodd" clip-rule="evenodd" d="M126.75 87.3164L78 103.133C78 103.133 87.9499 117.814 91.2186 122.638C91.8279 123.538 92.9589 123.925 93.99 123.589C101.181 121.254 128.593 112.347 137.853 109.339C138.582 109.1 139.154 108.537 139.406 107.813C139.654 107.089 139.549 106.292 139.12 105.656C135.298 99.9914 126.75 87.3164 126.75 87.3164Z" fill="#EFF2F5"/>
<path fill-rule="evenodd" clip-rule="evenodd" d="M66.2001 54.0907C65.5907 53.1962 64.4621 52.8086 63.4311 53.145C56.2453 55.4777 28.8259 64.3867 19.5658 67.3971C18.837 67.6335 18.2618 68.1966 18.0131 68.9205C17.7645 69.6444 17.8693 70.4439 18.2983 71.0777C21.8181 76.2988 29.25 87.3163 29.25 87.3163L78 71.4458C78 71.4458 69.2445 58.5684 66.2001 54.0907Z" fill="#656E80"/>
<path fill-rule="evenodd" clip-rule="evenodd" d="M137.702 71.0777C138.131 70.4439 138.236 69.6444 137.987 68.9205C137.738 68.1966 137.163 67.6335 136.434 67.3971C127.174 64.3867 99.7547 55.4777 92.5689 53.145C91.5379 52.8086 90.4093 53.1962 89.7999 54.0907C86.7555 58.5684 78 71.4458 78 71.4458L126.75 87.3163C126.75 87.3163 134.182 76.2988 137.702 71.0777Z" fill="#EFF2F5"/>
<path fill-rule="evenodd" clip-rule="evenodd" d="M126.75 87.3164L78 71.4458L29.25 87.3164L78 103.133L126.75 87.3164Z" fill="#7B9CC7"/>
<path fill-rule="evenodd" clip-rule="evenodd" d="M78 103.133V71.4458L29.25 87.3164L78 103.133Z" fill="#205EA4"/>
<path fill-rule="evenodd" clip-rule="evenodd" d="M68.2061 78.4466C67.1921 77.7836 66.2781 77.0743 65.4664 76.3308C64.4767 75.4216 62.9338 75.4875 62.0222 76.4795C61.113 77.4691 61.1788 79.0121 62.1709 79.9213C63.1678 80.8378 64.2915 81.7104 65.5395 82.527C66.6656 83.2631 68.1769 82.9462 68.913 81.8201C69.6491 80.694 69.3323 79.1827 68.2061 78.4466Z" fill="#DDA923"/>
<path fill-rule="evenodd" clip-rule="evenodd" d="M60.6109 70.9586C59.8869 69.9763 59.2751 68.9891 58.773 68.0019C58.1636 66.8027 56.6938 66.3249 55.4946 66.9343C54.2953 67.5437 53.8176 69.0135 54.4269 70.2127C55.0461 71.4266 55.7968 72.6429 56.6865 73.8495C57.4836 74.9317 59.0094 75.1633 60.0941 74.3662C61.1764 73.5667 61.4079 72.0409 60.6109 70.9586Z" fill="#DDA923"/>
<path fill-rule="evenodd" clip-rule="evenodd" d="M57.0472 61.0112C57.0716 60.0289 57.2154 59.0758 57.4787 58.1617C57.8492 56.8699 57.1009 55.5171 55.8066 55.1466C54.5147 54.7761 53.1619 55.5244 52.7914 56.8187C52.4184 58.1252 52.2088 59.4877 52.1722 60.8893C52.1406 62.2348 53.2033 63.3536 54.5488 63.3853C55.8943 63.4194 57.0131 62.3567 57.0472 61.0112Z" fill="#DDA923"/>
<path fill-rule="evenodd" clip-rule="evenodd" d="M60.7961 52.8701C61.4226 52.29 62.1246 51.7538 62.8924 51.2687C64.0307 50.5496 64.3719 49.0433 63.6553 47.9074C62.9363 46.7691 61.4299 46.4278 60.2916 47.1445C59.2605 47.7953 58.3245 48.5143 57.4836 49.2943C56.4964 50.2084 56.4379 51.7513 57.3519 52.7385C58.266 53.7257 59.8089 53.7842 60.7961 52.8701Z" fill="#DDA923"/>
<path fill-rule="evenodd" clip-rule="evenodd" d="M69.8612 48.665C71.0872 48.4384 72.3864 48.2921 73.7563 48.236C75.1018 48.1775 76.1451 47.0392 76.089 45.6962C76.0329 44.3531 74.8946 43.3074 73.5491 43.3635C71.9404 43.4317 70.4145 43.6048 68.9739 43.8705C67.6528 44.1167 66.7753 45.389 67.0215 46.7102C67.2652 48.0337 68.5376 48.9088 69.8612 48.665Z" fill="#DDA923"/>
<path fill-rule="evenodd" clip-rule="evenodd" d="M82.5654 48.5212C84.6446 48.5455 86.58 48.4724 88.3764 48.314C89.7171 48.1945 90.7091 47.0099 90.5897 45.6693C90.4703 44.3311 89.2856 43.339 87.945 43.4585C86.2997 43.6023 84.5276 43.6705 82.6215 43.6462C81.276 43.6315 80.1718 44.7113 80.1572 46.0544C80.1401 47.3999 81.2199 48.5065 82.5654 48.5212Z" fill="#DDA923"/>
<path fill-rule="evenodd" clip-rule="evenodd" d="M96.3885 46.8201C98.8016 46.0815 100.839 45.1358 102.546 44.0511C103.679 43.3272 104.015 41.8208 103.291 40.6849C102.57 39.5515 101.061 39.2151 99.9253 39.939C98.553 40.8117 96.9077 41.5624 94.9626 42.1572C93.678 42.552 92.9516 43.9146 93.3465 45.2016C93.7389 46.4886 95.1039 47.2125 96.3885 46.8201Z" fill="#DDA923"/>
<path fill-rule="evenodd" clip-rule="evenodd" d="M108.795 37.2285C109.946 34.8495 110.387 32.334 110.275 29.9087C110.212 28.5632 109.068 27.5248 107.725 27.5882C106.382 27.6516 105.341 28.7923 105.405 30.1354C105.483 31.7831 105.185 33.4918 104.405 35.1079C103.82 36.3193 104.327 37.7794 105.539 38.3644C106.75 38.9494 108.21 38.44 108.795 37.2285Z" fill="#DDA923"/>
<path fill-rule="evenodd" clip-rule="evenodd" d="M107.243 21.2896C105.466 18.8887 103.055 17.2166 100.427 16.6779C99.1087 16.4098 97.8193 17.258 97.5487 18.5767C97.2806 19.8954 98.1313 21.1848 99.4476 21.4554C100.964 21.765 102.299 22.8058 103.326 24.1927C104.128 25.2725 105.656 25.4992 106.736 24.6997C107.818 23.8978 108.045 22.3695 107.243 21.2896Z" fill="#DDA923"/>
<path fill-rule="evenodd" clip-rule="evenodd" d="M75.3992 17.1506C78.0366 2.216 100.893 3.18125 87.5867 17.1506H75.3992Z" fill="url(#paint1_linear_252_5799)"/>
<path fill-rule="evenodd" clip-rule="evenodd" d="M75.3992 20.9336C78.0366 35.8657 100.893 34.9029 87.5867 20.9336H75.3992Z" fill="url(#paint2_linear_252_5799)"/>
<path fill-rule="evenodd" clip-rule="evenodd" d="M75.1798 21.5039H91.5013C92.8468 21.5039 93.9388 20.4119 93.9388 19.0664C93.9388 17.7209 92.8468 16.6289 91.5013 16.6289H75.1798C73.8368 16.6289 72.7423 17.7209 72.7423 19.0664C72.7423 20.4119 73.8368 21.5039 75.1798 21.5039Z" fill="#DDA923"/>
<defs>
<linearGradient id="paint0_linear_252_5799" x1="117.783" y1="101.346" x2="58.6447" y2="160.102" gradientUnits="userSpaceOnUse">
<stop stop-color="#7B9CC7"/>
<stop offset="1" stop-color="#205EA4"/>
</linearGradient>
<linearGradient id="paint1_linear_252_5799" x1="90.2179" y1="8.7169" x2="80.0713" y2="18.5469" gradientUnits="userSpaceOnUse">
<stop stop-color="#7B9CC7"/>
<stop offset="1" stop-color="#205EA4"/>
</linearGradient>
<linearGradient id="paint2_linear_252_5799" x1="90.2179" y1="23.3417" x2="80.0722" y2="33.1717" gradientUnits="userSpaceOnUse">
<stop stop-color="#7B9CC7"/>
<stop offset="1" stop-color="#205EA4"/>
</linearGradient>
</defs>
</svg>
