<svg width="20" height="21" viewBox="0 0 20 21" fill="none" xmlns="http://www.w3.org/2000/svg">
<g clip-path="url(#clip0_252_5573)">
<path d="M14.4446 20.5H3.33348C2.44306 20.5 1.606 20.1532 0.976447 19.5236C0.34689 18.894 0.000167847 18.057 0.000167847 17.1666V6.05555C0.000167847 5.16516 0.346929 4.32811 0.976486 3.69855C1.60604 3.069 2.4431 2.72224 3.33352 2.72224H7.77795C8.39163 2.72224 8.88907 3.21967 8.88907 3.83335C8.88907 4.44703 8.39163 4.94447 7.77795 4.94447H3.33348C3.03667 4.94447 2.75768 5.06006 2.54786 5.26988C2.33803 5.47971 2.2224 5.75874 2.2224 6.05555V17.1666C2.2224 17.4635 2.33799 17.7424 2.54786 17.9524C2.75768 18.1621 3.03667 18.2778 3.33348 18.2778H14.4445C14.7413 18.2778 15.0203 18.1622 15.2302 17.9523C15.44 17.7424 15.5556 17.4634 15.5556 17.1666V12.7222C15.5556 12.1085 16.0531 11.6111 16.6668 11.6111C17.2805 11.6111 17.7779 12.1086 17.7779 12.7222V17.1666C17.7779 18.057 17.4312 18.894 16.8016 19.5237C16.172 20.1532 15.3349 20.5 14.4446 20.5ZM7.77795 13.8333C7.49356 13.8333 7.20922 13.7248 6.99229 13.5079C6.55839 13.074 6.55839 12.3704 6.99229 11.9365L16.2065 2.72224H12.2224C11.6087 2.72224 11.1113 2.2248 11.1113 1.61112C11.1113 0.997435 11.6087 0.5 12.2224 0.5H18.889C19.0427 0.5 19.1891 0.531206 19.3222 0.587602C19.4465 0.640156 19.5631 0.716308 19.6652 0.816098L19.6653 0.816176C19.666 0.816913 19.6668 0.817612 19.6675 0.818349C19.6677 0.818543 19.6679 0.818776 19.6681 0.81897C19.6687 0.819514 19.6693 0.820096 19.6698 0.820678C19.6702 0.821066 19.6706 0.821416 19.6709 0.821804C19.6714 0.822231 19.6718 0.822696 19.6722 0.823046C19.673 0.823822 19.6738 0.824637 19.6746 0.825452C19.6754 0.826228 19.6762 0.827082 19.677 0.827859C19.6774 0.828247 19.6779 0.828751 19.6782 0.829101C19.6786 0.829489 19.6789 0.829838 19.6793 0.830226C19.68 0.830808 19.6805 0.831352 19.681 0.831973C19.6812 0.832128 19.6815 0.8324 19.6817 0.832594C19.6824 0.833331 19.6831 0.834069 19.6838 0.834806L19.6839 0.834884C19.7837 0.937041 19.8599 1.05372 19.9124 1.17792C19.9688 1.31105 20 1.45738 20 1.61108V8.27774C20 8.89143 19.5025 9.38886 18.8889 9.38886C18.2752 9.38886 17.7778 8.89143 17.7778 8.27774V4.2936L8.56342 13.5079C8.34665 13.7249 8.0623 13.8333 7.77795 13.8333Z" fill="#CED2DA"/>
</g>
<defs>
<clipPath id="clip0_252_5573">
<rect width="20" height="20" fill="white" transform="translate(0 0.5)"/>
</clipPath>
</defs>
</svg>
