<svg width="312" height="280" viewBox="0 0 312 280" fill="none" xmlns="http://www.w3.org/2000/svg">
<g clip-path="url(#clip0_293_11408)">
<path d="M220.116 166.232C219.788 168.342 217.822 170.089 215.723 170.133L160.582 171.3C158.482 171.346 157.045 169.67 157.369 167.558L171.115 78.5217C171.439 76.4116 173.406 74.6642 175.506 74.6189L230.649 73.4496C232.748 73.4061 234.186 75.0817 233.859 77.1918L220.116 166.228V166.232Z" fill="url(#paint0_linear_293_11408)"/>
<path d="M223.706 83.3256C223.689 83.4144 223.606 83.4919 223.513 83.4919L218.134 83.5164C218.045 83.5164 217.985 83.4447 218 83.3521L218.554 80.118C218.569 80.0235 218.652 79.9498 218.741 79.9498L224.123 79.9253C224.213 79.9253 224.273 79.9971 224.255 80.0896L223.704 83.3237L223.706 83.3256Z" fill="url(#paint1_linear_293_11408)"/>
<path d="M223.221 88.4375C223.206 88.5281 223.121 88.6018 223.03 88.6018L217.649 88.6283C217.56 88.6283 217.5 88.5546 217.517 88.4639L218.071 85.2298C218.086 85.1391 218.171 85.0636 218.258 85.0617L223.642 85.0371C223.732 85.0371 223.791 85.1108 223.775 85.2015L223.219 88.4393L223.221 88.4375Z" fill="white"/>
<path d="M195.263 103.7L217.866 98.7748C216.661 91.313 210.862 85.7458 202.738 85.0034L195.263 103.7Z" fill="url(#paint2_linear_293_11408)"/>
<path d="M200.605 87.4817C200.186 87.444 199.763 87.4175 199.329 87.4043C188.08 87.0869 177.092 95.9184 174.793 107.13C172.492 118.344 179.746 127.689 191 128.006C201.582 128.305 211.935 120.507 215.038 110.245L193.129 106.176L200.605 87.4817Z" fill="white"/>
<path d="M217.507 99.9102L194.904 104.833L216.813 108.902C217.009 108.256 217.175 107.601 217.313 106.938C217.817 104.48 217.864 102.113 217.507 99.9102Z" fill="url(#paint3_linear_293_11408)"/>
<path d="M163.234 128.014C163.234 128.014 209.721 138.44 226.763 123.168L221.129 159.664C221.129 159.664 219.762 166.211 219.762 168.017L163.234 132.353V128.014Z" fill="url(#paint4_linear_293_11408)"/>
<path d="M82.4393 132.353H209.512C215.168 132.353 219.762 136.953 219.762 142.618V219.931C219.762 225.596 215.168 230.196 209.512 230.196H82.4393C76.7824 230.196 72.1893 225.596 72.1893 219.931V142.618C72.1893 136.953 76.7824 132.353 82.4393 132.353Z" fill="url(#paint5_linear_293_11408)"/>
<path d="M212.124 216.413C212.124 221.229 208.01 225.133 202.934 225.133H89.0167C83.9427 225.133 79.8268 221.229 79.8268 216.413V150.738C79.8268 145.922 83.9408 142.018 89.0167 142.018H202.934C208.01 142.018 212.124 145.922 212.124 150.738V216.413Z" fill="white"/>
<path d="M228.878 222.173V220.28H62.4581C63.5427 233.324 76.6334 234.346 79.6344 234.409H207.231C228.512 234.409 228.438 226.023 228.88 222.173H228.878Z" fill="url(#paint6_linear_293_11408)"/>
<path opacity="0.3" d="M72.1893 208.487C72.1893 208.487 192.311 229.254 219.761 199.315V219.963L72.195 220.282L72.1874 208.487H72.1893Z" fill="#3D5366"/>
<path d="M150.245 137.136C150.245 137.841 149.675 138.412 148.972 138.412H140.438C139.735 138.412 139.165 137.841 139.165 137.136C139.165 136.432 139.735 135.861 140.438 135.861H148.972C149.675 135.861 150.245 136.432 150.245 137.136Z" fill="white"/>
<path d="M180.265 166.275H200.535C201.327 166.275 201.972 166.92 201.972 167.715V180.955C201.972 181.749 201.329 182.395 200.535 182.395H180.265C179.473 182.395 178.828 181.751 178.828 180.955V167.715C178.828 166.921 179.471 166.275 180.265 166.275Z" fill="#F3C209"/>
<path d="M188.223 174.334C194.267 182.393 197.217 180.838 201.974 178.947V167.715C201.974 166.92 201.331 166.275 200.537 166.275H180.267C179.473 166.275 178.829 166.92 178.829 167.715V177.245C178.829 177.245 182.181 166.275 188.223 174.334Z" fill="url(#paint7_linear_293_11408)"/>
<path d="M180.265 182.393H200.535C201.329 182.393 201.972 181.749 201.972 180.954V178.946C197.215 180.837 194.265 182.391 188.221 174.333C182.178 166.274 178.828 177.244 178.828 177.244V180.954C178.828 181.749 179.471 182.393 180.265 182.393Z" fill="url(#paint8_linear_293_11408)"/>
<path d="M189.257 175.656C189.257 175.656 192.431 179.177 195.142 174.334C197.852 169.49 200.425 170.289 201.972 174.334V178.947C201.972 178.947 196.145 185.039 189.257 175.658V175.656Z" fill="white"/>
<path d="M195.615 169.674C195.615 170.614 194.855 171.376 193.916 171.376C192.976 171.376 192.216 170.614 192.216 169.674C192.216 168.733 192.976 167.972 193.916 167.972C194.855 167.972 195.615 168.733 195.615 169.674Z" fill="white"/>
<path d="M90.1259 163.092H167.378C169.662 163.092 171.516 164.949 171.516 167.236V201.752C171.516 204.04 169.662 205.896 167.378 205.896H90.1259C87.8416 205.896 85.9874 204.04 85.9874 201.752V167.236C85.9874 164.949 87.8416 163.092 90.1259 163.092Z" fill="url(#paint9_linear_293_11408)"/>
<path d="M90.8464 188.506V200.399H165.469V188.687C165.469 188.687 159.32 199.631 147.789 192.318C136.26 185.005 128.189 200.016 121.655 192.318C115.121 184.62 107.713 183.836 101.947 187.14C98.5066 189.112 94.6246 196.244 90.8464 188.508V188.506Z" fill="white"/>
<path d="M90.8464 188.506C90.8464 188.506 91.5311 198.046 101.947 192.341C112.365 186.636 119.499 183.874 126.929 189.775C134.359 195.677 136.153 197.045 141.787 193.282C147.423 189.518 152.531 190.937 158.175 197.668C158.175 197.668 163.273 201.835 165.467 195.42V200.4H90.8445V188.506H90.8464Z" fill="url(#paint10_linear_293_11408)"/>
<path d="M91.0407 168.223H90.6559V186.318H91.0407V168.223Z" fill="white"/>
<path d="M160.108 168.223H159.724V194.339H160.108V168.223Z" fill="white"/>
<path d="M91.7215 179.642L90.9519 179.646L90.9548 180.286L91.7244 180.282L91.7215 179.642Z" fill="white"/>
<path d="M93.2778 180.278L93.274 179.635L94.8283 179.63V180.27L93.2759 180.278H93.2778ZM96.3864 180.264V179.622L97.9388 179.616L97.9426 180.257L96.3883 180.264H96.3864ZM99.495 180.251V179.609L101.047 179.601L101.051 180.242L99.4968 180.249L99.495 180.251ZM102.604 180.238L102.6 179.596L104.154 179.588L104.158 180.229L102.604 180.236V180.238ZM105.712 180.225V179.582L107.264 179.577V180.217L105.712 180.225ZM108.823 180.212L108.819 179.569L110.373 179.564V180.206L108.823 180.213V180.212ZM111.931 180.198V179.556L113.484 179.548V180.191L111.931 180.198ZM115.04 180.185L115.036 179.543L116.59 179.535L116.594 180.178L115.04 180.185ZM118.148 180.172V179.53L119.701 179.524L119.704 180.164L118.15 180.172H118.148ZM121.257 180.159V179.516L122.809 179.509V180.151L121.257 180.159ZM124.365 180.145L124.362 179.503L125.916 179.496V180.136L124.364 180.144L124.365 180.145ZM127.474 180.132L127.47 179.492L129.024 179.484V180.127L127.472 180.132H127.474ZM130.583 180.119L130.579 179.477L132.133 179.469L132.137 180.11L130.583 180.117V180.119ZM133.691 180.106L133.687 179.463L135.242 179.456L135.245 180.098L133.691 180.106ZM136.8 180.093L136.796 179.452L138.35 179.445V180.087L136.798 180.093H136.8ZM139.908 180.079L139.904 179.437L141.459 179.429L141.463 180.072L139.908 180.079ZM143.017 180.066L143.013 179.424L144.567 179.416L144.571 180.059L143.017 180.064V180.066ZM146.125 180.053L146.122 179.411L147.676 179.405V180.047L146.123 180.053H146.125ZM149.234 180.04V179.397L150.786 179.39L150.79 180.032L149.236 180.04H149.234ZM152.343 180.026V179.384L153.895 179.378V180.019L152.343 180.026ZM155.451 180.013L155.447 179.373L157.002 179.365L157.005 180.008L155.451 180.013ZM158.56 180V179.358L160.112 179.35L160.116 179.992L158.562 179.998L158.56 180ZM161.67 179.987L161.666 179.344L163.221 179.337L163.224 179.977L161.67 179.985V179.987Z" fill="white"/>
<path d="M165.565 179.304L164.797 179.308L164.8 179.948L165.568 179.944L165.565 179.304Z" fill="white"/>
<path d="M293.75 230.383C293.75 232.85 295.348 234.851 297.319 234.851H306.837C308.808 234.851 310.406 232.85 310.406 230.383V169.957C310.406 167.49 308.808 165.489 306.837 165.489H297.319C295.348 165.489 293.75 167.49 293.75 169.957V230.383Z" fill="url(#paint11_linear_293_11408)"/>
<path d="M273.822 231.598C273.822 233.478 275.42 235 277.391 235H286.909C288.88 235 290.478 233.478 290.478 231.598V185.586C290.478 183.706 288.88 182.184 286.909 182.184H277.391C275.42 182.184 273.822 183.706 273.822 185.586V231.598Z" fill="url(#paint12_linear_293_11408)"/>
<path d="M253.309 232.22C253.309 233.673 254.906 234.851 256.878 234.851H266.396C268.367 234.851 269.965 233.673 269.965 232.22V196.631C269.965 195.179 268.367 194 266.396 194H256.878C254.906 194 253.309 195.179 253.309 196.631V232.22Z" fill="url(#paint13_linear_293_11408)"/>
<path d="M233.665 233.536C233.665 234.263 235.263 234.852 237.234 234.852H246.752C248.723 234.852 250.321 234.263 250.321 233.536V215.742C250.321 215.015 248.723 214.426 246.752 214.426H237.234C235.263 214.426 233.665 215.015 233.665 215.742V233.536Z" fill="url(#paint14_linear_293_11408)"/>
<path d="M300.462 142.103L303.448 146.215L280.69 165.189L273.675 158.766L233.665 189.263V198.737L273.675 168.198L275.006 169.305L280.69 174.037L307.779 150.889L310.38 154.538L312 143.684L300.462 142.103Z" fill="url(#paint15_linear_293_11408)"/>
<path d="M93.5343 109.057C93.5947 108.619 93.6022 107.763 92.9816 106.943C92.7364 106.618 92.4346 106.358 92.0876 106.167C91.101 105.625 89.8844 105.714 88.9884 106.395L83.771 110.621C81.7489 109.616 79.2458 109.771 77.3256 111.23L33.5076 144.517C30.8046 146.571 30.2765 150.428 32.3268 153.135C34.3772 155.842 38.229 156.371 40.932 154.318L84.75 121.03C86.5947 119.629 87.4266 117.386 87.1172 115.244L92.4346 110.943C93.2533 110.321 93.4759 109.494 93.5362 109.055L93.5343 109.057Z" fill="url(#paint16_linear_293_11408)"/>
<path d="M78.5272 147.934C77.5501 148.945 76.192 149.366 74.8999 149.189C74.0341 149.07 73.1985 148.684 72.5232 148.031L59.5193 135.419C57.8348 133.785 57.7915 131.093 59.4231 129.406C60.4002 128.396 61.7564 127.974 63.0504 128.152C63.9162 128.271 64.7518 128.654 65.4271 129.31L78.431 141.921C80.1154 143.555 80.1588 146.247 78.5272 147.934Z" fill="url(#paint17_linear_293_11408)"/>
<path d="M73.2683 154.677C72.2912 155.687 70.9331 156.108 69.641 155.933C68.7752 155.814 67.9396 155.428 67.2643 154.775L52.4929 140.45C50.8085 138.816 50.7651 136.124 52.3967 134.437C53.3738 133.426 54.7319 133.005 56.024 133.183C56.8879 133.302 57.7254 133.685 58.4007 134.341L73.1721 148.666C74.8565 150.3 74.8999 152.992 73.2683 154.678V154.677Z" fill="url(#paint18_linear_293_11408)"/>
<path d="M66.9455 160.389C65.9684 161.4 64.6122 161.821 63.3182 161.644C62.4543 161.525 61.6168 161.141 60.9415 160.486L49.3127 149.208C47.6282 147.574 47.5849 144.882 49.2165 143.195C50.1936 142.184 51.5498 141.763 52.8438 141.94C53.7077 142.059 54.5452 142.443 55.2205 143.098L66.8493 154.376C68.5337 156.01 68.5771 158.702 66.9455 160.389Z" fill="url(#paint19_linear_293_11408)"/>
<path d="M59.574 165.083C58.5969 166.094 57.2388 166.515 55.9467 166.338C55.0828 166.219 54.2453 165.835 53.57 165.18L44.2632 156.154C42.5787 154.519 42.5354 151.828 44.167 150.141C45.1441 149.13 46.5003 148.709 47.7943 148.886C48.6601 149.005 49.4957 149.389 50.171 150.044L59.4778 159.07C61.1623 160.704 61.2056 163.396 59.574 165.083Z" fill="url(#paint20_linear_293_11408)"/>
<path d="M29.0297 112.778C29.0297 112.778 45.4496 120.04 54.6075 116.725C61.3075 114.299 62.907 112.512 69.9428 109.724C72.2082 108.826 73.5909 108.569 76.6127 109.282C77.5086 109.493 78.316 109.992 78.8856 110.715C79.8966 112.002 80.6247 114.152 76.7994 116.12L59.9682 125.127L32.689 144.007C32.689 144.007 26.2455 137.342 17.4254 133.798L29.0316 112.776L29.0297 112.778Z" fill="url(#paint21_linear_293_11408)"/>
<path d="M137.801 121.198C116.805 130.559 92.8893 122.634 84.3822 103.498C83.5994 101.735 82.9732 99.9405 82.5016 98.1232C82.8241 99.0564 83.1901 99.982 83.5975 100.898C92.1612 120.165 116.234 128.146 137.366 118.725C154.182 111.228 164.069 94.9665 163.089 78.9282C165.439 95.7127 155.468 113.319 137.801 121.196V121.198Z" fill="url(#paint22_linear_293_11408)"/>
<path d="M163.089 78.9301C162.647 75.7678 161.766 72.6338 160.418 69.5999C151.911 50.4635 127.995 42.5407 106.999 51.9011C87.9359 60.4001 77.8349 80.2241 82.5035 98.125C76.0279 79.4534 86.2288 57.9311 106.353 48.9579C127.485 39.5371 151.558 47.5185 160.121 66.7833C161.87 70.7164 162.836 74.8176 163.089 78.9301Z" fill="url(#paint23_linear_293_11408)"/>
<path d="M163.089 78.9299C162.647 75.7676 161.766 72.6336 160.418 69.5997C151.911 50.4633 127.995 42.5405 106.999 51.9009C87.9359 60.3999 77.8349 80.2239 82.5034 98.1248C82.826 99.058 83.1919 99.9837 83.5994 100.9C92.163 120.167 116.236 128.148 137.367 118.727C154.183 111.229 164.071 94.9682 163.09 78.9299H163.089ZM135.887 110.972C135.779 111.025 135.67 111.078 135.562 111.131C135.134 111.341 134.7 111.543 134.261 111.738C133.923 111.887 133.584 112.034 133.246 112.174C133.086 112.24 132.929 112.304 132.769 112.369C114.166 119.864 93.7984 113.406 86.7306 97.5052C79.4722 81.1779 88.9865 61.0781 107.979 52.6112C126.972 44.1425 148.251 50.5143 155.51 66.8417C162.557 82.6948 153.791 102.107 135.889 110.971L135.887 110.972Z" fill="url(#paint24_linear_293_11408)"/>
<path d="M135.887 110.972C153.084 102.407 161.395 83.4995 154.489 67.9618C147.368 51.9405 126.765 45.5649 108.472 53.72C90.1787 61.8752 81.1209 81.4744 88.2434 97.4957C95.1717 113.083 114.859 119.541 132.769 112.37C114.166 119.866 93.7985 113.407 86.7306 97.507C79.4722 81.1797 88.9866 61.0799 107.979 52.613C126.972 44.1443 148.251 50.5161 155.51 66.8435C162.557 82.6966 153.791 102.109 135.889 110.972H135.887Z" fill="url(#paint25_linear_293_11408)"/>
<g style="mix-blend-mode:screen" opacity="0.8">
<path d="M110.818 62.7652C118.642 58.9889 126.806 57.8063 133.712 58.9341C126.504 56.1704 117.728 56.4273 109.645 60.3264C101.562 64.2273 95.894 70.9411 93.5588 78.3085C96.9805 72.1954 102.992 66.5395 110.818 62.7633V62.7652Z" fill="#E6E6E8"/>
</g>
<path d="M16.6109 97.8366L-0.000183105 126.146L21.1315 138.583L37.7426 110.273L16.6109 97.8366Z" fill="url(#paint26_radial_293_11408)"/>
<path d="M14.8789 138.005L34.198 105.082L0.12262 85.0278L0.232023 129.145L14.8789 138.005Z" fill="url(#paint27_linear_293_11408)"/>
<path d="M14.147 130.475C13.2756 129.961 12.1777 130.211 11.6967 131.031C11.2158 131.851 11.5326 132.931 12.4041 133.445C13.2756 133.959 14.3734 133.709 14.8544 132.89C15.3354 132.07 15.0185 130.989 14.147 130.475Z" fill="url(#paint28_linear_293_11408)"/>
<path d="M9.64451 127.827C8.77305 127.313 7.67525 127.562 7.19425 128.382C6.71325 129.202 7.03014 130.283 7.9016 130.797C8.77305 131.31 9.87086 131.061 10.3519 130.241C10.8329 129.421 10.516 128.341 9.64451 127.827Z" fill="url(#paint29_linear_293_11408)"/>
</g>
<defs>
<linearGradient id="paint0_linear_293_11408" x1="157.324" y1="122.379" x2="233.907" y2="122.379" gradientUnits="userSpaceOnUse">
<stop stop-color="#0B2337"/>
<stop offset="1" stop-color="#2A7CB3"/>
</linearGradient>
<linearGradient id="paint1_linear_293_11408" x1="218" y1="81.7218" x2="224.26" y2="81.7218" gradientUnits="userSpaceOnUse">
<stop stop-color="#0B2337"/>
<stop offset="0.14" stop-color="#132B3F"/>
<stop offset="0.36" stop-color="#2C4155"/>
<stop offset="0.65" stop-color="#546678"/>
<stop offset="0.98" stop-color="#8A99AA"/>
<stop offset="1" stop-color="#8E9CAD"/>
</linearGradient>
<linearGradient id="paint2_linear_293_11408" x1="195.263" y1="94.3525" x2="217.864" y2="94.3525" gradientUnits="userSpaceOnUse">
<stop stop-color="#F4F6F7"/>
<stop offset="0.01" stop-color="#EEF2F4"/>
<stop offset="0.09" stop-color="#CBDAE8"/>
<stop offset="0.18" stop-color="#ADC6DE"/>
<stop offset="0.27" stop-color="#95B6D5"/>
<stop offset="0.38" stop-color="#82A9CF"/>
<stop offset="0.51" stop-color="#75A0CA"/>
<stop offset="0.67" stop-color="#6E9BC7"/>
<stop offset="1" stop-color="#6C9AC7"/>
</linearGradient>
<linearGradient id="paint3_linear_293_11408" x1="194.904" y1="104.406" x2="217.738" y2="104.406" gradientUnits="userSpaceOnUse">
<stop stop-color="#F4F6F7"/>
<stop offset="0.01" stop-color="#EEF2F4"/>
<stop offset="0.09" stop-color="#CBDAE8"/>
<stop offset="0.18" stop-color="#ADC6DE"/>
<stop offset="0.27" stop-color="#95B6D5"/>
<stop offset="0.38" stop-color="#82A9CF"/>
<stop offset="0.51" stop-color="#75A0CA"/>
<stop offset="0.67" stop-color="#6E9BC7"/>
<stop offset="1" stop-color="#6C9AC7"/>
</linearGradient>
<linearGradient id="paint4_linear_293_11408" x1="163.234" y1="145.594" x2="226.763" y2="145.594" gradientUnits="userSpaceOnUse">
<stop stop-color="#0B2337"/>
<stop offset="1" stop-color="#6C9AC7"/>
</linearGradient>
<linearGradient id="paint5_linear_293_11408" x1="72.1893" y1="181.276" x2="219.762" y2="181.276" gradientUnits="userSpaceOnUse">
<stop stop-color="#0B2337"/>
<stop offset="1" stop-color="#6C9AC7"/>
</linearGradient>
<linearGradient id="paint6_linear_293_11408" x1="62.4581" y1="227.345" x2="228.878" y2="227.345" gradientUnits="userSpaceOnUse">
<stop stop-color="#0B2337"/>
<stop offset="1" stop-color="#6C9AC7"/>
</linearGradient>
<linearGradient id="paint7_linear_293_11408" x1="178.829" y1="173.369" x2="201.972" y2="173.369" gradientUnits="userSpaceOnUse">
<stop stop-color="white"/>
<stop offset="0.03" stop-color="#EEF3F8"/>
<stop offset="0.11" stop-color="#CBDBEB"/>
<stop offset="0.19" stop-color="#ADC7E0"/>
<stop offset="0.29" stop-color="#95B6D6"/>
<stop offset="0.39" stop-color="#82A9CF"/>
<stop offset="0.52" stop-color="#75A0CA"/>
<stop offset="0.68" stop-color="#6E9BC7"/>
<stop offset="1" stop-color="#6C9AC7"/>
</linearGradient>
<linearGradient id="paint8_linear_293_11408" x1="178.829" y1="176.885" x2="201.972" y2="176.885" gradientUnits="userSpaceOnUse">
<stop stop-color="#0B2337"/>
<stop offset="1" stop-color="#2A7CB3"/>
</linearGradient>
<linearGradient id="paint9_linear_293_11408" x1="85.9874" y1="184.493" x2="171.516" y2="184.493" gradientUnits="userSpaceOnUse">
<stop stop-color="white"/>
<stop offset="0.03" stop-color="#EEF3F8"/>
<stop offset="0.11" stop-color="#CBDBEB"/>
<stop offset="0.19" stop-color="#ADC7E0"/>
<stop offset="0.29" stop-color="#95B6D6"/>
<stop offset="0.39" stop-color="#82A9CF"/>
<stop offset="0.52" stop-color="#75A0CA"/>
<stop offset="0.68" stop-color="#6E9BC7"/>
<stop offset="1" stop-color="#6C9AC7"/>
</linearGradient>
<linearGradient id="paint10_linear_293_11408" x1="90.8464" y1="193.442" x2="165.471" y2="193.442" gradientUnits="userSpaceOnUse">
<stop stop-color="#0B2337"/>
<stop offset="1" stop-color="#2A7CB3"/>
</linearGradient>
<linearGradient id="paint11_linear_293_11408" x1="293.75" y1="200.169" x2="310.408" y2="200.169" gradientUnits="userSpaceOnUse">
<stop stop-color="#0B2337"/>
<stop offset="1" stop-color="#6C9AC7"/>
</linearGradient>
<linearGradient id="paint12_linear_293_11408" x1="273.822" y1="208.593" x2="290.48" y2="208.593" gradientUnits="userSpaceOnUse">
<stop stop-color="#0B2337"/>
<stop offset="1" stop-color="#6C9AC7"/>
</linearGradient>
<linearGradient id="paint13_linear_293_11408" x1="253.309" y1="214.427" x2="269.966" y2="214.427" gradientUnits="userSpaceOnUse">
<stop stop-color="#0B2337"/>
<stop offset="1" stop-color="#6C9AC7"/>
</linearGradient>
<linearGradient id="paint14_linear_293_11408" x1="233.665" y1="224.638" x2="250.323" y2="224.638" gradientUnits="userSpaceOnUse">
<stop stop-color="#0B2337"/>
<stop offset="1" stop-color="#6C9AC7"/>
</linearGradient>
<linearGradient id="paint15_linear_293_11408" x1="233.665" y1="170.42" x2="312" y2="170.42" gradientUnits="userSpaceOnUse">
<stop stop-color="#0B2337"/>
<stop offset="1" stop-color="#6C9AC7"/>
</linearGradient>
<linearGradient id="paint16_linear_293_11408" x1="34.1052" y1="126.636" x2="90.0833" y2="134.263" gradientUnits="userSpaceOnUse">
<stop stop-color="#0B2337"/>
<stop offset="1" stop-color="#2A7CB3"/>
</linearGradient>
<linearGradient id="paint17_linear_293_11408" x1="57.5232" y1="137.116" x2="80.3929" y2="140.232" gradientUnits="userSpaceOnUse">
<stop stop-color="#2A7CB3"/>
<stop offset="0.08" stop-color="#5193C0"/>
<stop offset="0.19" stop-color="#7CADCE"/>
<stop offset="0.3" stop-color="#A1C3DB"/>
<stop offset="0.42" stop-color="#BFD6E5"/>
<stop offset="0.54" stop-color="#D6E4ED"/>
<stop offset="0.67" stop-color="#E7EEF2"/>
<stop offset="0.81" stop-color="#F0F4F5"/>
<stop offset="1" stop-color="#F4F6F7"/>
</linearGradient>
<linearGradient id="paint18_linear_293_11408" x1="50.3999" y1="142.869" x2="75.2321" y2="146.252" gradientUnits="userSpaceOnUse">
<stop stop-color="#2A7CB3"/>
<stop offset="0.08" stop-color="#5193C0"/>
<stop offset="0.19" stop-color="#7CADCE"/>
<stop offset="0.3" stop-color="#A1C3DB"/>
<stop offset="0.42" stop-color="#BFD6E5"/>
<stop offset="0.54" stop-color="#D6E4ED"/>
<stop offset="0.67" stop-color="#E7EEF2"/>
<stop offset="0.81" stop-color="#F0F4F5"/>
<stop offset="1" stop-color="#F4F6F7"/>
</linearGradient>
<linearGradient id="paint19_linear_293_11408" x1="47.3942" y1="150.342" x2="68.7351" y2="153.249" gradientUnits="userSpaceOnUse">
<stop stop-color="#2A7CB3"/>
<stop offset="0.08" stop-color="#5193C0"/>
<stop offset="0.19" stop-color="#7CADCE"/>
<stop offset="0.3" stop-color="#A1C3DB"/>
<stop offset="0.42" stop-color="#BFD6E5"/>
<stop offset="0.54" stop-color="#D6E4ED"/>
<stop offset="0.67" stop-color="#E7EEF2"/>
<stop offset="0.81" stop-color="#F0F4F5"/>
<stop offset="1" stop-color="#F4F6F7"/>
</linearGradient>
<linearGradient id="paint20_linear_293_11408" x1="42.4728" y1="156.338" x2="61.2343" y2="158.894" gradientUnits="userSpaceOnUse">
<stop stop-color="#2A7CB3"/>
<stop offset="0.08" stop-color="#5193C0"/>
<stop offset="0.19" stop-color="#7CADCE"/>
<stop offset="0.3" stop-color="#A1C3DB"/>
<stop offset="0.42" stop-color="#BFD6E5"/>
<stop offset="0.54" stop-color="#D6E4ED"/>
<stop offset="0.67" stop-color="#E7EEF2"/>
<stop offset="0.81" stop-color="#F0F4F5"/>
<stop offset="1" stop-color="#F4F6F7"/>
</linearGradient>
<linearGradient id="paint21_linear_293_11408" x1="19.0486" y1="121.745" x2="77.3891" y2="129.694" gradientUnits="userSpaceOnUse">
<stop stop-color="#2A7CB3"/>
<stop offset="0.08" stop-color="#5193C0"/>
<stop offset="0.19" stop-color="#7CADCE"/>
<stop offset="0.3" stop-color="#A1C3DB"/>
<stop offset="0.42" stop-color="#BFD6E5"/>
<stop offset="0.54" stop-color="#D6E4ED"/>
<stop offset="0.67" stop-color="#E7EEF2"/>
<stop offset="0.81" stop-color="#F0F4F5"/>
<stop offset="1" stop-color="#F4F6F7"/>
</linearGradient>
<linearGradient id="paint22_linear_293_11408" x1="82.5016" y1="102.03" x2="163.428" y2="102.03" gradientUnits="userSpaceOnUse">
<stop stop-color="#9CBAD8"/>
<stop offset="1" stop-color="#0B2337"/>
</linearGradient>
<linearGradient id="paint23_linear_293_11408" x1="80.5644" y1="71.5627" x2="163.089" y2="71.5627" gradientUnits="userSpaceOnUse">
<stop stop-color="#0D253A"/>
<stop offset="0.1" stop-color="#26445F"/>
<stop offset="0.2" stop-color="#3B5E7F"/>
<stop offset="0.31" stop-color="#4D7499"/>
<stop offset="0.43" stop-color="#5B85AD"/>
<stop offset="0.56" stop-color="#6491BC"/>
<stop offset="0.73" stop-color="#6A97C4"/>
<stop offset="1" stop-color="#6C9AC7"/>
</linearGradient>
<linearGradient id="paint24_linear_293_11408" x1="81.3717" y1="85.3244" x2="163.155" y2="85.3244" gradientUnits="userSpaceOnUse">
<stop stop-color="#0B2337"/>
<stop offset="1" stop-color="#9CBAD8"/>
</linearGradient>
<linearGradient id="paint25_linear_293_11408" x1="84.2935" y1="82.1753" x2="157.943" y2="82.1753" gradientUnits="userSpaceOnUse">
<stop stop-color="#0B2337"/>
<stop offset="0.02" stop-color="#0A263D"/>
<stop offset="0.13" stop-color="#07375D"/>
<stop offset="0.25" stop-color="#044577"/>
<stop offset="0.38" stop-color="#02508B"/>
<stop offset="0.52" stop-color="#01589A"/>
<stop offset="0.7" stop-color="#005CA2"/>
<stop offset="1" stop-color="#005EA5"/>
</linearGradient>
<radialGradient id="paint26_radial_293_11408" cx="0" cy="0" r="1" gradientUnits="userSpaceOnUse" gradientTransform="translate(41.5532 103.538) rotate(-59.5973) scale(26.8999 33.379)">
<stop stop-color="#CCDBEA"/>
<stop offset="0.15" stop-color="#BDCDDC"/>
<stop offset="0.43" stop-color="#98A9BA"/>
<stop offset="0.81" stop-color="#5C7083"/>
<stop offset="1" stop-color="#3D5366"/>
</radialGradient>
<linearGradient id="paint27_linear_293_11408" x1="-2.20302" y1="127.939" x2="17.1602" y2="95.0368" gradientUnits="userSpaceOnUse">
<stop offset="0.06" stop-color="#005EA5"/>
<stop offset="1" stop-color="#9CBAD8"/>
</linearGradient>
<linearGradient id="paint28_linear_293_11408" x1="12.358" y1="133.403" x2="14.104" y2="130.436" gradientUnits="userSpaceOnUse">
<stop stop-color="#6C9AC7"/>
<stop offset="0.05" stop-color="#7CA5CC"/>
<stop offset="0.18" stop-color="#A1BED9"/>
<stop offset="0.32" stop-color="#BFD2E4"/>
<stop offset="0.46" stop-color="#D6E2EC"/>
<stop offset="0.61" stop-color="#E7EDF2"/>
<stop offset="0.78" stop-color="#F0F3F5"/>
<stop offset="1" stop-color="#F4F6F7"/>
</linearGradient>
<linearGradient id="paint29_linear_293_11408" x1="7.85654" y1="130.754" x2="9.60352" y2="127.786" gradientUnits="userSpaceOnUse">
<stop stop-color="#6C9AC7"/>
<stop offset="0.05" stop-color="#7CA5CC"/>
<stop offset="0.18" stop-color="#A1BED9"/>
<stop offset="0.32" stop-color="#BFD2E4"/>
<stop offset="0.46" stop-color="#D6E2EC"/>
<stop offset="0.61" stop-color="#E7EDF2"/>
<stop offset="0.78" stop-color="#F0F3F5"/>
<stop offset="1" stop-color="#F4F6F7"/>
</linearGradient>
<clipPath id="clip0_293_11408">
<rect width="312" height="190" fill="white" transform="translate(0 45)"/>
</clipPath>
</defs>
</svg>
